<svg width="178" height="107" viewBox="0 0 178 107" fill="none" xmlns="http://www.w3.org/2000/svg">
<path d="M133.825 17.801L126.894 21.8285L119.918 17.801L126.849 13.7734L133.825 17.801Z" fill="#45CAF2"/>
<path fill-rule="evenodd" clip-rule="evenodd" d="M126.869 79.5163V21.8283L119.893 17.8008L119.789 75.5244L126.869 79.5163ZM133.949 75.5244L133.845 17.8008L126.87 21.8283V79.5163L133.949 75.5244Z" fill="url(#paint0_linear)"/>
<path fill-rule="evenodd" clip-rule="evenodd" d="M146.685 72.8743V35.6473L140.337 31.9829L140.242 69.2419L146.685 72.8743ZM153.128 69.2421L153.033 31.9831L146.686 35.6475V72.8745L153.128 69.2421Z" fill="url(#paint1_linear)"/>
<path d="M144.446 45.3454L137.515 49.373L130.539 45.3454L137.469 41.3179L144.446 45.3454Z" fill="#50E6FF"/>
<path fill-rule="evenodd" clip-rule="evenodd" d="M144.57 82.0352L144.467 45.3452L137.491 49.3728V86.0271L144.57 82.0352ZM137.49 86.0273V49.3729L130.514 45.3454L130.41 82.0353L137.49 86.0273Z" fill="url(#paint2_linear)"/>
<path d="M153.009 31.9829L146.703 35.6473L140.355 31.9829L146.662 28.3179L153.009 31.9829Z" fill="white"/>
<path d="M99.2771 85.4696C99.2284 85.5043 99.1896 85.5512 99.1646 85.6056C99.1397 85.66 99.1295 85.72 99.1351 85.7796L99.116 92.723C99.129 92.8422 99.1099 92.9628 99.0607 93.0722C99.0114 93.1816 98.9339 93.2758 98.8359 93.3452L103.762 90.4827C103.86 90.4134 103.937 90.319 103.987 90.2095C104.036 90.0999 104.055 89.9792 104.042 89.8598L104.062 82.9172C104.056 82.8576 104.066 82.7974 104.091 82.7429C104.115 82.6883 104.154 82.6413 104.203 82.6064L99.2771 85.4696Z" fill="#2195DC"/>
<path d="M115.378 46.8828C115.964 47.2619 116.452 47.7744 116.802 48.3784C117.152 48.9824 117.355 49.6607 117.392 50.3578L117.271 93.3783C117.267 94.65 116.358 95.1629 115.242 94.5189L99.6283 85.5033C99.3552 85.3462 99.1373 85.4712 99.1359 85.7765L99.1168 92.7199C99.1168 93.383 98.6387 93.5668 98.1305 93.2744C97.893 93.1284 97.6909 92.9312 97.5391 92.6973L88.1643 79.0006C88.088 78.8825 87.9859 78.7833 87.8658 78.7103L60.5461 62.9372C59.9604 62.5576 59.4727 62.0451 59.1226 61.4413C58.7725 60.8376 58.5699 60.1597 58.5312 59.4628L58.6542 16.4452C58.6542 15.168 59.5667 14.6605 60.682 15.3046L115.378 46.8828Z" fill="url(#paint3_linear)"/>
<path d="M120.305 44.0205L65.6097 12.4422C65.4037 12.2926 65.1616 12.2005 64.9082 12.1754C64.6548 12.1503 64.3993 12.1932 64.1679 12.2995L59.2422 15.1626C59.4736 15.0561 59.7292 15.013 59.9827 15.038C60.2362 15.063 60.4785 15.155 60.6847 15.3047L115.38 46.8829C115.966 47.262 116.455 47.7746 116.805 48.3785C117.155 48.9825 117.357 49.6608 117.395 50.358L117.273 93.3784C117.298 93.6248 117.257 93.8733 117.154 94.0986C117.051 94.3238 116.89 94.5177 116.687 94.6604L121.614 91.7979C121.816 91.655 121.977 91.4611 122.079 91.2359C122.182 91.0107 122.224 90.7623 122.199 90.516L122.321 47.4949C122.283 46.7977 122.081 46.1195 121.73 45.5156C121.38 44.9117 120.892 44.3994 120.305 44.0205Z" fill="#2195DC"/>
<path d="M88.4425 64.1386C88.9581 64.4736 89.3873 64.9257 89.6951 65.458C90.0028 65.9903 90.1805 66.5878 90.2135 67.2018L90.2094 68.7898C90.2094 69.9188 89.4055 70.3709 88.4261 69.8054L87.0444 69.0076C86.5283 68.6721 86.0988 68.2192 85.791 67.686C85.4832 67.1528 85.3059 66.5544 85.2734 65.9396L85.2782 64.3524C85.2782 63.2275 86.0821 62.7753 87.0608 63.3408L88.4425 64.1386Z" fill="white"/>
<path d="M90.3611 39.9153C90.6638 40.1113 90.9138 40.3785 91.0892 40.6936C91.2646 41.0087 91.36 41.362 91.3671 41.7225L90.4075 60.819C90.3754 61.4201 89.9294 61.6482 89.3919 61.3374L86.0111 59.3854C85.7244 59.1984 85.4846 58.9479 85.3101 58.6533C85.1357 58.3588 85.0313 58.0281 85.005 57.6868L84.3835 37.6751C84.3623 37.0044 84.8234 36.7189 85.3957 37.0508L90.3611 39.9153Z" fill="white"/>
<path d="M25.25 39.3973L30.5823 36.2983C32.0211 35.4623 34.0669 35.4315 36.9666 36.8442C37.2929 37.0024 37.6093 37.1707 37.9159 37.3491C44.3494 41.0628 46.6717 48.5821 47.2638 50.5276L41.9316 53.6266C41.3382 51.6811 39.0171 44.1618 32.5842 40.4481C32.2768 40.2705 31.9604 40.1022 31.6349 39.9432C28.7341 38.5304 26.6888 38.5613 25.25 39.3973Z" fill="#0078D4"/>
<path d="M51.5335 51.1546C51.8401 51.3314 52.1565 51.5292 52.4828 51.7479C61.7715 57.9488 62.2319 68.8157 62.0996 72.7899C62.0076 75.6379 61.3336 84.5064 42.0449 89.2424C22.8447 62.2831 22.2234 52.6658 22.1439 49.7211C22.0348 45.6075 22.5545 35.3066 31.8485 39.8344C32.1748 39.9926 32.4913 40.1611 32.7978 40.3399C39.2313 44.0518 41.5536 51.5711 42.1458 53.5184C42.7439 52.2582 45.1 47.4391 51.5335 51.1546Z" fill="#2195DC"/>
<path d="M57.6089 48.7578C57.283 48.5398 56.9665 48.342 56.6596 48.1644H56.656H56.6525C53.503 46.3459 51.3308 46.5725 49.8635 47.4251L44.5312 50.5241C45.998 49.6715 48.1708 49.4448 51.3202 51.2634C51.6271 51.441 51.9436 51.6388 52.2695 51.8567C61.5581 58.0571 62.0186 68.9246 61.8862 72.8981L61.8934 72.894V72.8981C61.8257 74.9914 61.4436 80.3379 53.5867 84.9048L58.9196 81.8058C66.7783 77.2372 67.1604 71.8924 67.2262 69.7991C67.358 65.8256 66.8975 54.9581 57.6089 48.7578Z" fill="#0078D4"/>
<path d="M52.3603 64.7794L61.8767 70.6807L61.84 73.8105L53.9949 69.0318C53.8691 68.9594 53.7481 68.9618 53.6852 69.0532L49.2957 74.9972C49.1539 75.1888 48.9124 75.1841 48.6715 75.0452C48.3727 74.8546 48.1471 74.5686 48.0313 74.2336L44.6309 64.7776C44.5739 64.6105 44.4618 64.4678 44.3129 64.373C44.1687 64.2899 44.0245 64.3035 43.9699 64.4566L39.8166 76.0794C39.7057 76.3891 39.4179 76.4141 39.1301 76.2473C38.8076 76.0414 38.5712 75.725 38.465 75.3573L34.5858 62.6974C34.5317 62.5155 34.4137 62.3594 34.2535 62.2577C34.1289 62.1859 34.0037 62.1841 33.9343 62.288L31.0329 66.6466C30.97 66.7433 30.849 66.757 30.7137 66.6786L26.501 63.973C25.6704 62.3117 25.293 61.303 24.7109 59.9022L29.0251 62.3942C29.1556 62.4695 29.276 62.4612 29.3443 62.3675L33.9129 55.5068C34.0518 55.2985 34.2998 55.3003 34.5466 55.4433C34.8676 55.6482 35.1035 55.9625 35.2106 56.3279L38.5332 67.1676C38.5855 67.3498 38.7026 67.5066 38.8625 67.6084C39.0079 67.6921 39.1533 67.6802 39.2084 67.5247L43.1411 56.5196C43.2508 56.2105 43.5386 56.1838 43.8275 56.3505C44.1257 56.5403 44.3501 56.8263 44.4636 57.161L48.4983 68.375C48.5569 68.5419 48.6699 68.6842 48.8193 68.779C48.9379 68.8485 49.0596 68.8514 49.1302 68.7565L52.0511 64.8055C52.114 64.7147 52.2345 64.707 52.3603 64.7794Z" fill="#50E6FF"/>
<defs>
<linearGradient id="paint0_linear" x1="119.729" y1="50.5383" x2="135.662" y2="50.6652" gradientUnits="userSpaceOnUse">
<stop offset="0.151986" stop-color="#45CAF2"/>
<stop offset="1" stop-color="#32B0E7"/>
</linearGradient>
<linearGradient id="paint1_linear" x1="140.721" y1="50.1889" x2="153.288" y2="50.1889" gradientUnits="userSpaceOnUse">
<stop stop-color="white"/>
<stop offset="1" stop-color="#DCDCDC"/>
</linearGradient>
<linearGradient id="paint2_linear" x1="130.274" y1="62.1198" x2="144.372" y2="62.1198" gradientUnits="userSpaceOnUse">
<stop stop-color="#50E6FF"/>
<stop offset="1" stop-color="#45CAF2"/>
</linearGradient>
<linearGradient id="paint3_linear" x1="100.588" y1="24.0639" x2="75.7106" y2="84.8429" gradientUnits="userSpaceOnUse">
<stop stop-color="#45CAF2"/>
<stop offset="1" stop-color="#32B0E7"/>
</linearGradient>
</defs>
</svg>
