<svg width="178" height="107" viewBox="0 0 178 107" fill="none" xmlns="http://www.w3.org/2000/svg">
<path d="M101.194 57.1667L101.291 57.2332L102.152 32.771C102.373 27.0471 101.057 22.4707 98.6875 19.2593C99.8845 19.4215 101.048 19.7641 102.136 20.2749C107.716 22.7562 111.072 28.962 110.779 38.0536L109.939 62.4462L101.194 57.1667Z" fill="#1D4A79"/>
<path d="M55.7031 92.8394C56.0324 94.066 57.7973 96.6872 63.4506 97.375C67.4651 97.8675 70.8011 96.1946 74.0493 94.4007C74.3016 94.2611 74.5535 94.122 74.7961 93.9824C75.0479 93.8428 75.31 93.6943 75.5618 93.5547C77.9181 92.2633 104.869 76.5591 105.955 75.9549L99.2834 72.3672C98.4013 72.8691 75.1546 86.6865 72.4587 88.2504C71.5284 88.7897 70.5194 89.4032 68.6966 90.444C68.6386 90.4813 68.5801 90.5088 68.5125 90.5478C66.7475 91.5236 62.1898 93.6429 59.2422 93.5495C58.038 93.4437 56.8505 93.2055 55.7031 92.8394Z" fill="#32B0E7"/>
<path d="M128.353 47.56L128.221 94.5444L64.1758 59.2403L64.3059 12.2559L128.353 47.56Z" fill="url(#paint0_linear)"/>
<path d="M127.886 47.7533L133.199 44.938L133.064 91.7293L127.75 94.5446L127.886 47.7533Z" fill="#156AB3"/>
<path d="M64.1758 12.1901L69.2592 9.33789L133.196 45L128.113 47.8559L64.1758 12.1901Z" fill="#0078D4"/>
<path d="M67.8086 18.0918L124.72 50.0516V89.2918L67.8086 57.5771V18.0918Z" fill="#2195DC"/>
<path d="M75.6836 75.7944L84.8647 70.6162L105.956 82.384L96.5691 87.5591L75.6836 75.7944ZM96.5691 88.708V87.5591L75.6836 75.7944V77.1295L96.5691 88.708Z" fill="#156AB3"/>
<path d="M81.7344 72.1683L84.5538 70.6162L106.145 82.384L103.344 83.8938L81.7344 72.1683ZM107.163 83.0327L96.5361 88.708V87.5591L106.145 82.384L107.163 83.0327Z" fill="#185A97"/>
<path d="M136.225 70.0951L136.178 85.6189C136.175 86.8182 135.287 87.3008 134.193 86.698L107.321 71.8916C106.746 71.535 106.268 71.0539 105.925 70.4873C105.582 69.9208 105.384 69.285 105.348 68.6316L105.394 53.1084L136.225 70.0951Z" fill="#ACF3FD"/>
<path d="M134.288 63.0291C134.853 63.3879 135.322 63.8724 135.659 64.443C135.996 65.0136 136.19 65.6541 136.225 66.3121L136.214 70.033L105.953 52.9254L105.964 49.204C105.967 47.998 106.841 47.5099 107.912 48.117L134.288 63.0291Z" fill="#84ECFD"/>
<path d="M137.436 69.4317L137.423 69.4389V69.4327L137.435 65.7131C137.399 65.0556 137.206 64.4156 136.87 63.8454C136.534 63.2752 136.064 62.7911 135.5 62.4325L109.142 47.5307H109.137L109.141 47.5281C108.944 47.3877 108.712 47.3015 108.469 47.2783C108.226 47.2551 107.981 47.2958 107.76 47.3963L106.559 48.081C106.78 47.9811 107.024 47.9407 107.267 47.9639C107.51 47.987 107.741 48.073 107.939 48.2129V48.2155L134.297 63.1168C134.861 63.4755 135.33 63.9597 135.666 64.5298C136.003 65.0999 136.197 65.7398 136.232 66.3973V66.3973L136.221 70.1154L136.231 70.1304L136.186 85.7382C136.21 85.9723 136.171 86.2084 136.071 86.4225C135.972 86.6367 135.816 86.8212 135.62 86.9572L136.823 86.2725C137.019 86.1365 137.174 85.9521 137.274 85.7381C137.373 85.524 137.413 85.2879 137.389 85.054V85.054L137.436 69.4317Z" fill="#50E6FF"/>
<path d="M130.55 71.6649C130.79 71.8214 130.989 72.0305 131.134 72.2759C131.278 72.5212 131.363 72.7963 131.382 73.0795C131.382 73.6253 131.014 73.807 130.55 73.5779L116.773 65.7928C116.53 65.6311 116.328 65.4152 116.184 65.1625C116.04 64.9098 115.958 64.6273 115.945 64.3377C115.945 63.7925 116.314 63.6107 116.773 63.8831L130.55 71.6649ZM130.55 76.7775C130.79 76.9339 130.989 77.143 131.134 77.3884C131.278 77.6338 131.363 77.9089 131.382 78.1921C131.382 78.7373 131.014 78.9191 130.55 78.6904L116.773 70.9054C116.53 70.7436 116.328 70.5278 116.184 70.2751C116.04 70.0224 115.958 69.7399 115.945 69.4503C115.945 68.905 116.314 68.7227 116.773 68.9956L130.55 76.7775ZM113.185 65.989L113.823 66.8951L110.002 68.679L108.375 66.4457L109.013 66.1302L109.992 67.4952L113.185 65.989ZM113.185 61.2788L113.823 62.1849L110.002 63.9689L108.375 61.7356L109.013 61.4201L109.992 62.7851L113.185 61.2788Z" fill="#45CAF2"/>
<path d="M70.8346 64.8427L70.7883 80.3665C70.785 81.5658 69.896 82.0483 68.8028 81.4456L41.9312 66.6386C41.3563 66.2823 40.8779 65.8013 40.5348 65.235C40.1917 64.6686 39.9938 64.0329 39.957 63.3797L40.0044 47.856L70.8346 64.8427Z" fill="#ACF3FD"/>
<path d="M65.3006 69.7473C65.2077 69.4167 65.0569 69.1039 64.8547 68.8223C64.6408 68.5034 64.3554 68.235 64.0195 68.0369C63.8413 67.9303 63.6373 67.8708 63.4278 67.8644C63.3295 67.8586 63.2311 67.8729 63.1389 67.9063C63.0467 67.9396 62.9629 67.9914 62.8928 68.0581C62.7144 68.2619 62.6228 68.5235 62.6366 68.7899C62.6435 69.0563 62.6975 69.3196 62.796 69.5685L61.2295 70.4091C61.0297 70.1373 60.7744 69.9078 60.4795 69.7346C60.3017 69.628 60.098 69.5687 59.8889 69.5626C59.8318 69.56 59.7746 69.564 59.7185 69.5743L56.7184 64.5598C56.7135 64.5688 56.7069 64.5757 56.7014 64.5842C56.7576 64.4417 56.786 64.2904 56.785 64.1379C56.7807 63.9414 56.7508 63.7461 56.6959 63.5568C56.6022 63.2264 56.4515 62.9137 56.2499 62.6318C56.0352 62.3132 55.7495 62.0448 55.4136 61.8464C55.2358 61.74 55.0321 61.6807 54.8231 61.6744C54.7244 61.6633 54.6244 61.675 54.5313 61.7085C54.4383 61.7421 54.3549 61.7967 54.288 61.8676C54.1089 62.071 54.0168 62.3328 54.0307 62.5994C54.0339 62.7507 54.054 62.9013 54.0906 63.0484L51.3798 63.8874C51.3007 63.7099 51.2045 63.5401 51.0923 63.3801C50.8777 63.0613 50.5919 62.793 50.2559 62.5947C50.0783 62.4883 49.8748 62.429 49.6659 62.4227C49.6088 62.42 49.5515 62.4241 49.4955 62.4349L46.7704 56.7863C46.8955 56.5975 46.9587 56.3766 46.9518 56.1526C46.921 55.696 46.7811 55.2524 46.5432 54.8565C46.3054 54.4606 45.9758 54.1232 45.5805 53.8706C44.8343 53.4509 44.1992 53.7953 44.1992 54.6237C44.2289 55.0819 44.3681 55.5273 44.606 55.9249C44.844 56.3225 45.1741 56.6614 45.5706 56.9152C45.7021 56.9896 45.845 57.0433 45.994 57.0744C46.0724 57.0877 46.1522 57.0911 46.2315 57.0845L49.0231 62.7523C48.9199 62.9332 48.8687 63.1375 48.8747 63.344C48.9042 63.8022 49.0433 64.2475 49.281 64.645C49.5187 65.0426 49.8487 65.3816 50.2449 65.6355C50.9922 66.0553 51.6273 65.7109 51.6273 64.8825C51.6273 64.8671 51.624 64.8512 51.6234 64.8358C51.6267 64.8464 51.6328 64.857 51.6355 64.8676L54.4992 63.9883C54.7222 64.3527 55.0316 64.6608 55.4021 64.8872C55.5205 64.9632 55.6534 65.0154 55.7931 65.0408C55.9328 65.0662 56.0764 65.0644 56.2153 65.0353L59.1818 70.0238C59.1244 70.1693 59.0959 70.324 59.0977 70.4797C59.1274 70.938 59.2667 71.3834 59.5047 71.781C59.7428 72.1785 60.073 72.5175 60.4696 72.7712C61.2157 73.191 61.8508 72.8465 61.8508 72.0181C61.8468 71.8217 61.8169 71.6266 61.7617 71.4376C61.7617 71.4328 61.7579 71.4285 61.7568 71.4238L63.3585 70.5142C63.5396 70.7359 63.7596 70.9252 64.0085 71.0735C64.7541 71.4928 65.3897 71.1489 65.3897 70.3205C65.3856 70.1265 65.3556 69.9339 65.3006 69.7473V69.7473Z" fill="#45CAF2"/>
<path d="M68.8593 57.7762C69.4349 58.1351 69.9139 58.6196 70.2572 59.1902C70.6005 59.7608 70.7983 60.4012 70.8346 61.0592L70.8249 64.7801L39.957 47.6725L39.9678 43.9511C39.971 42.7447 40.8622 42.2571 41.9555 42.8642L68.8593 57.7762Z" fill="#84ECFD"/>
<path d="M72.0455 60.4591C72.0092 59.8014 71.8115 59.1614 71.4685 58.5911C71.1255 58.0208 70.6469 57.5366 70.0719 57.1779V57.1779L43.2001 42.2764H43.1958C42.9948 42.1359 42.7584 42.0495 42.511 42.0263C42.2635 42.0032 42.0142 42.044 41.7887 42.1445L40.5625 42.8293C40.7883 42.7292 41.0377 42.6886 41.2852 42.7118C41.5327 42.735 41.7693 42.8211 41.9707 42.9612V42.9612L68.8424 57.8627C69.4173 58.2215 69.8957 58.7058 70.2387 59.276C70.5816 59.8463 70.7792 60.4863 70.8155 61.1439L70.8048 64.8622L70.8134 64.8663L70.7671 80.4862C70.7915 80.7203 70.751 80.9564 70.6496 81.1705C70.5482 81.3846 70.3895 81.5691 70.1898 81.7053L71.4149 81.0205C71.6151 80.8849 71.7741 80.7006 71.8755 80.4864C71.9769 80.2722 72.017 80.0359 71.9917 79.8019V79.8019L72.0396 64.1774L72.024 64.1862L72.0283 64.1789L72.0455 60.4591Z" fill="#50E6FF"/>
<path d="M52.7014 68.8657L44.1992 76.2527L49.5566 79.1477C49.5566 79.2037 49.497 80.2429 49.497 81.0782C49.4874 85.1893 49.4475 87.5837 52.1044 91.3508C53.2649 92.9929 55.3184 94.3574 57.1143 95.3224C58.2066 95.9177 59.3403 96.4378 60.5071 96.8788C60.4081 96.8233 58.4435 95.7188 57.6102 94.6609C56.4833 93.1139 55.8861 91.2596 55.9037 89.3622C55.9436 87.3388 56.0527 86.2534 56.1123 85.2417C56.1719 84.3696 56.3007 82.9958 56.3108 82.9309L61.757 85.7429L52.7014 68.8657Z" fill="#45CAF2"/>
<path d="M93.1993 35.6463L98.2763 38.457C98.3197 38.4831 98.3566 38.5182 98.3844 38.5597C98.4122 38.6013 98.4302 38.6483 98.4372 38.6974C98.4441 38.7465 98.4398 38.7965 98.4246 38.8439C98.4094 38.8912 98.3836 38.9346 98.3491 38.9712L90.6428 47.1645C90.5989 47.2064 90.5454 47.2375 90.4866 47.2553C90.4279 47.2732 90.3656 47.2772 90.305 47.267C90.2443 47.2569 90.1871 47.2328 90.1379 47.1969C90.0886 47.161 90.0489 47.1142 90.022 47.0605L82.9729 30.6754C82.9437 30.6088 82.9375 30.5347 82.9551 30.4643C82.9727 30.394 83.0133 30.331 83.0707 30.2848C83.1281 30.2386 83.1994 30.2116 83.2738 30.2079C83.3483 30.2042 83.422 30.2239 83.484 30.2642L87.2836 32.3896V31.944C87.2836 25.4971 89.8037 21.9685 94.1502 19.5342C94.1502 19.5342 99.8609 16.1028 105.952 22.961C104.79 22.6116 103.566 22.5013 102.358 22.6373C101.149 22.7733 99.9835 23.1525 98.9346 23.7507C95.273 25.7872 93.9672 28.2417 93.5658 31.4641C93.3818 33.0754 93.2357 34.5493 93.1993 35.6463Z" fill="#0062AD"/>
<defs>
<linearGradient id="paint0_linear" x1="63.6652" y1="12.7243" x2="125.096" y2="96.8274" gradientUnits="userSpaceOnUse">
<stop stop-color="#2195DC"/>
<stop offset="1" stop-color="#0078D4"/>
</linearGradient>
</defs>
</svg>
