<svg width="178" height="107" viewBox="0 0 178 107" fill="none" xmlns="http://www.w3.org/2000/svg">
<g clip-path="url(#clip0)">
<path d="M91.7275 12.0972C91.5586 11.9729 91.3597 11.8957 91.151 11.8734C90.9423 11.8511 90.7314 11.8846 90.54 11.9704L85.4662 14.9103C85.6578 14.8192 84.8505 16.0514 85.4662 15.4267C87.4949 15.535 87.0499 16.5164 87.2206 16.6422L94.5871 19.5916L99.6609 16.6422L91.7275 12.0972Z" fill="#243A5E"/>
<path d="M101.052 13.9702C100.912 13.8699 100.748 13.8084 100.576 13.792C100.405 13.7756 100.232 13.8049 100.075 13.8769L95.0039 16.8167C95.1597 16.7438 95.3324 16.7139 95.5037 16.7303C95.6751 16.7467 95.9834 17.4666 96.1224 17.5679L102.215 20.4982L107.301 17.5679L101.052 13.9702Z" fill="#1D4A79"/>
<path d="M110.412 21.2733C110.182 21.144 109.975 20.9775 109.8 20.7806C109.442 20.4269 109.173 19.9929 109.017 19.5148C108.861 19.0367 108.822 18.5283 108.903 18.0321C108.961 17.8119 109.102 17.6225 109.296 17.5034L104.213 20.4433C104.02 20.5633 103.88 20.7524 103.822 20.9719C103.741 21.469 103.781 21.9781 103.939 22.4564C104.097 22.9347 104.368 23.3682 104.729 23.7204C104.904 23.9171 105.111 24.0836 105.34 24.2132C105.502 24.3309 105.693 24.4032 105.893 24.4225C106.092 24.4419 106.256 24.5069 106.438 24.4225L111.546 21.3858C111.364 21.469 111.163 21.5025 110.964 21.4827C110.764 21.463 110.574 21.3907 110.412 21.2733Z" fill="#243A5E"/>
<path d="M130.503 34.9733C130.792 35.4719 130.96 36.0313 130.992 36.6063L130.99 36.6015L130.858 83.0557C130.879 83.2595 130.845 83.4652 130.761 83.652C130.677 83.8389 130.545 84.0003 130.378 84.1202L125.307 87.0601V85.4399L124.303 40.0499L123.709 37.3799L116.32 32.1044L118.369 30.2599L121.394 29.1646L129.327 33.7358C129.811 34.0508 130.214 34.4747 130.503 34.9733Z" fill="#243A5E"/>
<path d="M120.026 24.8971L113.731 21.2731C113.672 20.1626 113.35 19.082 112.791 18.1195C112.232 17.157 111.453 16.3401 110.517 15.7354C110.19 15.4982 109.805 15.3525 109.403 15.3134C109.001 15.2743 108.595 15.3432 108.228 15.513L103.164 18.4504C103.531 18.2805 104.025 18.6503 104.428 18.6899C104.831 18.7294 104.992 18.7485 105.318 18.9865C106.253 19.5913 106.837 20.311 107.395 21.2731C107.952 22.2352 108.601 23.7875 108.66 24.8971L109.403 25.2165L114.515 28.1832C114.916 28.4459 115.691 28.4508 115.93 28.8665C116.168 29.2821 116.305 29.7482 116.33 30.2267V32.1044L121.403 29.1646V27.2868C121.379 26.8083 121.242 26.3424 121.003 25.927C120.763 25.5116 120.429 25.1587 120.026 24.8971Z" fill="#1D4A79"/>
<path d="M125.433 37.9082C125.144 37.4095 124.742 36.9856 124.258 36.6711L116.315 32.1046V35.176L120.151 39.1601C120.635 39.4749 121.337 39.8481 121.626 40.3467C121.915 40.8454 121.594 41.1301 121.626 41.7052V80.2346C121.626 81.2943 122.545 81.8178 121.626 81.2867L89.017 63.6657C88.5334 63.3507 88.1308 62.9268 87.8416 62.4282C87.5525 61.9296 87.3848 61.3703 87.3522 60.7952L88.4077 21.0634L94.9343 22.8434L94.5898 19.5916L86.6589 15.0204C85.7353 14.4965 84.9796 14.9223 84.9796 15.9772L84.8477 62.429C84.8795 63.0049 85.0469 63.5652 85.3361 64.0647C85.6253 64.5642 86.0283 64.9888 86.5125 65.3043L124.109 86.9502C125.033 87.4741 125.788 87.0483 125.788 85.9934L125.92 39.5416C125.889 38.9665 125.722 38.4069 125.433 37.9082Z" fill="#1D4A79"/>
<path d="M121.75 38.3051C122.234 38.6199 122.637 39.0438 122.926 39.5424C123.215 40.041 123.383 40.6005 123.415 41.1756L123.3 81.4917C123.3 82.5442 122.544 82.9724 121.621 82.4485L89.0164 63.6707C88.5328 63.3557 88.1302 62.9318 87.841 62.4332C87.5518 61.9346 87.3842 61.3753 87.3516 60.8002L87.4667 20.4841C87.4667 19.4316 88.2224 19.0034 89.146 19.5273L94.5796 22.6633L96.1204 23.4369L112.734 33.5236L116.314 35.1763L121.75 38.3051Z" fill="#185A97"/>
<path d="M114.954 27.8345C115.356 28.0972 115.689 28.4507 115.928 28.8664C116.167 29.2821 116.304 29.7481 116.328 30.2266V32.1044V35.1758V36.9292L94.5938 24.4186V22.6628V19.5914V17.7136C94.5938 16.8357 95.2103 16.4697 95.9756 16.9099L102.213 20.498C102.213 18.4623 103.664 17.6418 105.439 18.6657C106.378 19.27 107.159 20.0878 107.718 21.0517C108.278 22.0156 108.6 23.0982 108.659 24.2105L114.954 27.8345ZM107.004 23.2584V23.1398C106.973 22.5851 106.857 22.1905 106.579 21.7096C106.3 21.2287 105.911 20.8202 105.444 20.5171C105.304 20.4357 105.154 20.373 104.998 20.3305C104.886 20.2906 104.768 20.2746 104.649 20.2836C104.531 20.2925 104.416 20.3261 104.312 20.3823C104.207 20.4385 104.116 20.516 104.044 20.6097C103.972 20.7034 103.92 20.8112 103.892 20.9262C103.811 21.4228 103.85 21.9317 104.007 22.41C104.164 22.8883 104.434 23.322 104.794 23.6747C104.969 23.8714 105.176 24.0379 105.406 24.1674C106.279 24.6698 107.001 24.2775 107.004 23.2584Z" fill="#156AB3"/>
<path d="M101.752 41.5087L104.073 40.1509L103.805 88.9367L101.484 90.3419L100.758 61.7493L101.752 41.5087Z" fill="#2195DC"/>
<path d="M68 21.9628L70.3051 20.5576L104.076 40.1509L101.755 41.5087L87.2459 35.3355L68 21.9628Z" fill="#45CAF2"/>
<path d="M101.753 41.5088L101.485 90.342L67.8555 70.9224L67.9976 21.9629L101.753 41.5088Z" fill="#32B0E7"/>
<path d="M86.1119 47.8817L88.4327 46.5239L88.1643 95.3098L85.8435 96.7149L85.1172 68.1223L86.1119 47.8817Z" fill="#45CAF2"/>
<path d="M52.3594 28.3358L54.6645 26.9307L88.4356 46.5239L86.1148 47.8817L71.6053 41.7085L52.3594 28.3358Z" fill="#84ECFD"/>
<path d="M86.1123 47.8819L85.8439 96.7151L52.2148 77.2955L52.3569 28.3359L86.1123 47.8819Z" fill="#50E6FF"/>
<path d="M70.325 70.5223C70.8934 70.8538 71.3512 71.6432 71.3512 72.2906C71.3512 72.9379 70.8934 73.2063 70.325 72.8905L58.0575 65.8016C57.4891 65.47 57.0312 64.6806 57.0312 64.0333C57.0312 63.386 57.4891 63.1176 58.0575 63.4491L70.325 70.5223Z" fill="white"/>
<path d="M70.3406 63.449C70.909 63.7806 71.3669 64.57 71.3669 65.2173C71.3669 65.8647 70.909 66.1331 70.3406 65.8173L58.0731 58.7283C57.5047 58.3968 57.0469 57.6074 57.0469 56.96C57.0469 56.3127 57.5047 56.0443 58.0731 56.3759L70.3406 63.449Z" fill="white"/>
<path d="M70.3562 56.4861C70.9246 56.8177 71.3825 57.6071 71.3825 58.2544C71.3825 58.9018 70.9246 59.1702 70.3562 58.8544L58.0887 51.7654C57.5204 51.4339 57.0625 50.6445 57.0625 49.9972C57.0625 49.3498 57.5204 49.0814 58.0887 49.413L70.3562 56.4861Z" fill="white"/>
<path d="M80.335 60.1968L81.1718 61.6493L76.1038 64.5386L74.0039 60.9073L74.8565 60.4336L76.1038 62.6124L80.335 60.1968Z" fill="white"/>
<path d="M80.3039 74.4536L81.1407 75.9061L76.0569 78.7954L73.957 75.1641L74.8096 74.6746L76.0569 76.8534L80.3039 74.4536Z" fill="white"/>
<path d="M80.3194 67.1279L81.1562 68.5804L76.0723 71.4697L73.9883 67.8384L74.8251 67.3648L76.0881 69.5435L80.3194 67.1279Z" fill="white"/>
</g>
<defs>
<clipPath id="clip0">
<rect width="178" height="106.8" fill="white"/>
</clipPath>
</defs>
</svg>
