<svg width="20" height="18" viewBox="0 0 20 18" fill="none" xmlns="http://www.w3.org/2000/svg">
<path d="M1 18C0.447715 18 0 17.5523 0 17V12.0769C0 11.5246 0.447715 11.0769 1 11.0769H3.21053C3.76281 11.0769 4.21053 11.5246 4.21053 12.0769V17C4.21053 17.5523 3.76281 18 3.21053 18H1ZM6.26316 18C5.71087 18 5.26316 17.5523 5.26316 17V7C5.26316 6.44771 5.71087 6 6.26316 6H8.47368C9.02597 6 9.47368 6.44772 9.47368 7V17C9.47368 17.5523 9.02597 18 8.47368 18H6.26316ZM15.7895 7C15.7895 6.44771 16.2372 6 16.7895 6H19C19.5523 6 20 6.44772 20 7V17C20 17.5523 19.5523 18 19 18H16.7895C16.2372 18 15.7895 17.5523 15.7895 17V7ZM11.5263 18C10.974 18 10.5263 17.5523 10.5263 17V1C10.5263 0.447716 10.974 0 11.5263 0H13.7368C14.2891 0 14.7368 0.447715 14.7368 1V17C14.7368 17.5523 14.2891 18 13.7368 18H11.5263Z" fill="url(#paint0_linear)"/>
<defs>
<linearGradient id="paint0_linear" x1="10" y1="18" x2="10" y2="3.7998e-07" gradientUnits="userSpaceOnUse">
<stop stop-color="#7B14AC"/>
<stop offset="1" stop-color="#D38BFF"/>
</linearGradient>
</defs>
</svg>
