<svg width="22" height="20" viewBox="0 0 22 20" fill="none" xmlns="http://www.w3.org/2000/svg">
<path d="M1 1.05051C0.38141 1.68178 0 2.54635 0 3.5V14.5C0 16.433 1.567 18 3.5 18H10.5135C10.5652 17.7477 10.6577 17.4994 10.7935 17.2641L11.5234 16H3.5C2.67157 16 2 15.3284 2 14.5V5H16V6.25429C16.6354 6.0248 17.3198 5.9385 18 6.00934V3.5C18 2.54635 17.6186 1.68178 17 1.05051V1H16.9495C16.3182 0.38141 15.4537 0 14.5 0H3.5C2.54635 0 1.68178 0.38141 1.05051 1H1V1.05051ZM17.2123 7C17.4255 6.9803 17.6411 6.98005 17.8565 7C17.9616 7.00974 18.0667 7.0243 18.1714 7.04377L16.521 9.9024C16.1988 10.4604 16.39 11.1739 16.948 11.4961C17.506 11.8183 18.2195 11.6271 18.5417 11.0691L20.1921 8.2105C21.1291 9.3063 21.3244 10.916 20.5624 12.2357C19.8586 13.4548 18.5321 14.0903 17.2166 13.9724L14.1855 19.2224C13.7828 19.9199 12.8908 20.1589 12.1933 19.7562C11.5724 19.3977 11.3149 18.6516 11.5499 18C11.5788 17.9196 11.6153 17.8407 11.6595 17.7641L14.685 12.5239C13.9109 11.4415 13.7915 9.9632 14.5002 8.7357C15.0907 7.71296 16.1194 7.10098 17.2123 7ZM8.3029 7.2432C8.5828 7.54854 8.5621 8.023 8.2568 8.3029L5.85992 10.5L8.2568 12.6971C8.5621 12.977 8.5828 13.4515 8.3029 13.7568C8.023 14.0621 7.54855 14.0828 7.24321 13.8029L4.24321 11.0529C4.08823 10.9108 4 10.7102 4 10.5C4 10.2898 4.08823 10.0892 4.24321 9.9471L7.24321 7.19713C7.54855 6.91724 8.023 6.93786 8.3029 7.2432ZM11.2568 13.8029L13.2766 11.9514C12.9587 11.0273 12.9412 10.0035 13.2685 9.0412L11.2568 7.19713C10.9515 6.91724 10.477 6.93786 10.1971 7.2432C9.9172 7.54854 9.9379 8.023 10.2432 8.3029L12.6401 10.5L10.2432 12.6971C9.9379 12.977 9.9172 13.4515 10.1971 13.7568C10.477 14.0621 10.9515 14.0828 11.2568 13.8029Z" fill="#C4C4C4"/>
</svg>
