<svg width="20" height="18" viewBox="0 0 20 18" fill="none" xmlns="http://www.w3.org/2000/svg">
<path d="M9.29289 0.707106C9.68342 0.316582 10.3166 0.316583 10.7071 0.707107L19 9C19.369 9.36903 19.1077 10 18.5858 10C18.2623 10 18 10.2623 18 10.5858V17C18 17.5523 17.5523 18 17 18H13C12.4477 18 12 17.5523 12 17V13C12 12.4477 11.5523 12 11 12H9C8.44771 12 8 12.4477 8 13V17C8 17.5523 7.55228 18 7 18H3C2.44772 18 2 17.5523 2 17V10.5858C2 10.2623 1.73773 10 1.41421 10C0.892334 10 0.630975 9.36903 1 9L9.29289 0.707106Z" fill="url(#paint0_linear)"/>
<defs>
<linearGradient id="paint0_linear" x1="10" y1="0" x2="10" y2="18" gradientUnits="userSpaceOnUse">
<stop stop-color="#C4C4C4"/>
<stop offset="1" stop-color="#C4C4C4"/>
</linearGradient>
</defs>
</svg>
