<svg width="15" height="14" viewBox="0 0 15 14" fill="none" xmlns="http://www.w3.org/2000/svg">
<path opacity="0.1" d="M6.5 9.5C6.5 9.89556 6.3827 10.2822 6.16294 10.6111C5.94318 10.94 5.63082 11.1964 5.26537 11.3478C4.89992 11.4991 4.49778 11.5387 4.10982 11.4616C3.72186 11.3844 3.36549 11.1939 3.08579 10.9142C2.80608 10.6345 2.6156 10.2781 2.53843 9.89018C2.46126 9.50222 2.50087 9.10009 2.65224 8.73463C2.80362 8.36918 3.05996 8.05682 3.38886 7.83706C3.71776 7.6173 4.10444 7.5 4.5 7.5C5.03043 7.5 5.53914 7.71071 5.91421 8.08579C6.28929 8.46086 6.5 8.96957 6.5 9.5Z" fill="white"/>
<path d="M4.5 7C3.83696 7 3.20107 7.26339 2.73223 7.73223C2.26339 8.20107 2 8.83696 2 9.5C1.99965 9.98984 2.14479 10.4688 2.417 10.876L0.145996 13.146L0.853996 13.854L3.124 11.583C3.53124 11.8552 4.01015 12.0003 4.5 12C5.16304 12 5.79892 11.7366 6.26776 11.2678C6.7366 10.7989 7 10.163 7 9.5C7 8.83696 6.7366 8.20107 6.26776 7.73223C5.79892 7.26339 5.16304 7 4.5 7ZM4.5 11C4.20332 11 3.91331 10.912 3.66664 10.7472C3.41997 10.5824 3.22771 10.3481 3.11418 10.074C3.00065 9.79994 2.97094 9.49834 3.02882 9.20736C3.0867 8.91639 3.22956 8.64912 3.43934 8.43934C3.64911 8.22956 3.91639 8.0867 4.20736 8.02882C4.49833 7.97094 4.79993 8.00065 5.07402 8.11418C5.34811 8.22771 5.58238 8.41997 5.7472 8.66665C5.91202 8.91332 6 9.20333 6 9.5C6 9.89782 5.84196 10.2794 5.56066 10.5607C5.27935 10.842 4.89782 11 4.5 11Z" fill="#212121"/>
<path d="M13.9995 5.36637V6.78037L11.8885 4.66937L8.70653 7.85238H7.99954L5.52454 5.37637L4.86654 6.03537C4.74496 6.01641 4.62245 6.00406 4.49954 5.99837C4.07135 6.00102 3.6473 6.08237 3.24854 6.23837L5.17154 4.31637H5.87854L8.35354 6.79138L11.5345 3.60938H12.2415L13.9995 5.36637Z" fill="black"/>
<path d="M15 0.5V11.5L14.5 12H6.944C7.23659 11.711 7.47562 11.3724 7.65 11H14V1H2V7.056C1.35898 7.70795 0.999832 8.5857 1 9.5V0.5L1.5 0H14.5L15 0.5Z" fill="#212121"/>
</svg>
