<svg width="16" height="16" viewBox="0 0 16 16" fill="none" xmlns="http://www.w3.org/2000/svg">
<path d="M8 0C8.73438 0 9.44271 0.0963542 10.125 0.289062C10.8073 0.476562 11.4453 0.744792 12.0391 1.09375C12.6328 1.4375 13.1719 1.85417 13.6562 2.34375C14.1458 2.82812 14.5625 3.36719 14.9062 3.96094C15.2552 4.55469 15.5234 5.19271 15.7109 5.875C15.9036 6.55729 16 7.26562 16 8C16 8.73438 15.9036 9.44271 15.7109 10.125C15.5234 10.8073 15.2552 11.4453 14.9062 12.0391C14.5625 12.6328 14.1458 13.1745 13.6562 13.6641C13.1719 14.1484 12.6328 14.5651 12.0391 14.9141C11.4453 15.2578 10.8073 15.526 10.125 15.7188C9.44271 15.9062 8.73438 16 8 16C7.26562 16 6.55729 15.9062 5.875 15.7188C5.19271 15.526 4.55469 15.2578 3.96094 14.9141C3.36719 14.5651 2.82552 14.1484 2.33594 13.6641C1.85156 13.1745 1.4349 12.6328 1.08594 12.0391C0.742188 11.4453 0.473958 10.8099 0.28125 10.1328C0.09375 9.45052 0 8.73958 0 8C0 7.26562 0.09375 6.55729 0.28125 5.875C0.473958 5.19271 0.742188 4.55469 1.08594 3.96094C1.4349 3.36719 1.85156 2.82812 2.33594 2.34375C2.82552 1.85417 3.36719 1.4375 3.96094 1.09375C4.55469 0.744792 5.1901 0.476562 5.86719 0.289062C6.54948 0.0963542 7.26042 0 8 0ZM14.3203 5C14.1224 4.57812 13.8828 4.18229 13.6016 3.8125C13.3203 3.4375 13.0078 3.09635 12.6641 2.78906C12.3203 2.48177 11.9479 2.20833 11.5469 1.96875C11.1458 1.72917 10.7266 1.53385 10.2891 1.38281C10.4766 1.64323 10.6458 1.91927 10.7969 2.21094C10.9479 2.5026 11.0807 2.80469 11.1953 3.11719C11.3151 3.42448 11.4167 3.73698 11.5 4.05469C11.5833 4.3724 11.6562 4.6875 11.7188 5H14.3203ZM15 8C15 7.30729 14.9036 6.64062 14.7109 6H11.875C11.9167 6.33333 11.9479 6.66667 11.9688 7C11.9896 7.32812 12 7.66146 12 8C12 8.33854 11.9896 8.67448 11.9688 9.00781C11.9479 9.33594 11.9167 9.66667 11.875 10H14.7109C14.9036 9.35938 15 8.69271 15 8ZM8 15C8.25521 15 8.49219 14.9297 8.71094 14.7891C8.9349 14.6484 9.14062 14.4635 9.32812 14.2344C9.51562 14.0052 9.68229 13.7474 9.82812 13.4609C9.97917 13.1693 10.112 12.875 10.2266 12.5781C10.3411 12.2812 10.4375 11.9948 10.5156 11.7188C10.5938 11.4427 10.6536 11.2031 10.6953 11H5.30469C5.34635 11.2031 5.40625 11.4427 5.48438 11.7188C5.5625 11.9948 5.65885 12.2812 5.77344 12.5781C5.88802 12.875 6.01823 13.1693 6.16406 13.4609C6.3151 13.7474 6.48438 14.0052 6.67188 14.2344C6.85938 14.4635 7.0625 14.6484 7.28125 14.7891C7.50521 14.9297 7.74479 15 8 15ZM10.8672 10C10.9089 9.66667 10.9401 9.33594 10.9609 9.00781C10.987 8.67448 11 8.33854 11 8C11 7.66146 10.987 7.32812 10.9609 7C10.9401 6.66667 10.9089 6.33333 10.8672 6H5.13281C5.09115 6.33333 5.05729 6.66667 5.03125 7C5.01042 7.32812 5 7.66146 5 8C5 8.33854 5.01042 8.67448 5.03125 9.00781C5.05729 9.33594 5.09115 9.66667 5.13281 10H10.8672ZM1 8C1 8.69271 1.09635 9.35938 1.28906 10H4.125C4.08333 9.66667 4.05208 9.33594 4.03125 9.00781C4.01042 8.67448 4 8.33854 4 8C4 7.66146 4.01042 7.32812 4.03125 7C4.05208 6.66667 4.08333 6.33333 4.125 6H1.28906C1.09635 6.64062 1 7.30729 1 8ZM8 1C7.74479 1 7.50521 1.07031 7.28125 1.21094C7.0625 1.35156 6.85938 1.53646 6.67188 1.76562C6.48438 1.99479 6.3151 2.25521 6.16406 2.54688C6.01823 2.83333 5.88802 3.125 5.77344 3.42188C5.65885 3.71875 5.5625 4.00521 5.48438 4.28125C5.40625 4.55729 5.34635 4.79688 5.30469 5H10.6953C10.6536 4.79688 10.5938 4.55729 10.5156 4.28125C10.4375 4.00521 10.3411 3.71875 10.2266 3.42188C10.112 3.125 9.97917 2.83333 9.82812 2.54688C9.68229 2.25521 9.51562 1.99479 9.32812 1.76562C9.14062 1.53646 8.9349 1.35156 8.71094 1.21094C8.49219 1.07031 8.25521 1 8 1ZM5.71094 1.38281C5.27344 1.53385 4.85417 1.72917 4.45312 1.96875C4.05208 2.20833 3.67969 2.48177 3.33594 2.78906C2.99219 3.09635 2.67969 3.4375 2.39844 3.8125C2.11719 4.18229 1.8776 4.57812 1.67969 5H4.28125C4.34375 4.6875 4.41667 4.3724 4.5 4.05469C4.58333 3.73698 4.68229 3.42448 4.79688 3.11719C4.91667 2.80469 5.05208 2.5026 5.20312 2.21094C5.35417 1.91927 5.52344 1.64323 5.71094 1.38281ZM1.67969 11C1.8776 11.4219 2.11719 11.8203 2.39844 12.1953C2.67969 12.5651 2.99219 12.9036 3.33594 13.2109C3.67969 13.5182 4.05208 13.7917 4.45312 14.0312C4.85417 14.2708 5.27344 14.4661 5.71094 14.6172C5.52344 14.3568 5.35417 14.0807 5.20312 13.7891C5.05208 13.4974 4.91667 13.1979 4.79688 12.8906C4.68229 12.5781 4.58333 12.263 4.5 11.9453C4.41667 11.6276 4.34375 11.3125 4.28125 11H1.67969ZM10.2891 14.6172C10.7266 14.4661 11.1458 14.2708 11.5469 14.0312C11.9479 13.7917 12.3203 13.5182 12.6641 13.2109C13.0078 12.9036 13.3203 12.5651 13.6016 12.1953C13.8828 11.8203 14.1224 11.4219 14.3203 11H11.7188C11.6562 11.3125 11.5833 11.6276 11.5 11.9453C11.4167 12.263 11.3151 12.5781 11.1953 12.8906C11.0807 13.1979 10.9479 13.4974 10.7969 13.7891C10.6458 14.0807 10.4766 14.3568 10.2891 14.6172Z" fill="black" fill-opacity="0.9"/>
</svg>
