<svg width="24" height="24" viewBox="0 0 24 24" fill="none" xmlns="http://www.w3.org/2000/svg">
<path d="M19.16 5.55993L19.2667 5.65326C19.3011 5.68512 19.3464 5.70282 19.3933 5.70282C19.4403 5.70282 19.4855 5.68512 19.52 5.65326L20.5067 4.8266L22.2933 1.87993C22.3182 1.84738 22.3317 1.80756 22.3317 1.7666C22.3317 1.72564 22.3182 1.68581 22.2933 1.65326L21.9867 1.33326C21.9541 1.3084 21.9143 1.29492 21.8733 1.29492C21.8324 1.29492 21.7925 1.3084 21.76 1.33326L18.9467 3.23993L18.1467 4.2666C18.1184 4.30022 18.103 4.34271 18.103 4.3866C18.103 4.43049 18.1184 4.47298 18.1467 4.5066L18.2533 4.61326L12.44 10.6666L11.24 9.33327L9.90666 10.6666C9.96839 11.0237 9.94891 11.3901 9.84966 11.7387C9.7504 12.0872 9.57393 12.4089 9.33333 12.6799C9.1055 12.9305 8.82026 13.1221 8.5021 13.2382C8.18394 13.3544 7.84235 13.3915 7.50666 13.3466L1.78666 19.1466C1.75157 19.1802 1.72365 19.2206 1.70457 19.2652C1.68549 19.3099 1.67566 19.358 1.67566 19.4066C1.67566 19.4552 1.68549 19.5033 1.70457 19.548C1.72365 19.5926 1.75157 19.633 1.78666 19.6666L4.55999 22.5466C4.59374 22.5838 4.6349 22.6135 4.68083 22.6339C4.72675 22.6542 4.77643 22.6648 4.82666 22.6648C4.87689 22.6648 4.92657 22.6542 4.9725 22.6339C5.01842 22.6135 5.05958 22.5838 5.09333 22.5466L10.6667 16.7333C10.6228 16.3835 10.6601 16.0284 10.7757 15.6954C10.8913 15.3624 11.0821 15.0605 11.3333 14.8133C11.5632 14.5653 11.8487 14.3756 12.1663 14.2597C12.4839 14.1438 12.8245 14.105 13.16 14.1466L14.4933 12.8133L13.3333 11.5199L19.16 5.55993Z" fill="url(#paint0_linear)"/>
<path d="M21.4667 18.7597L20.1334 17.333L11.2267 8.19971L10.7867 7.71971C11.0395 6.88038 11.0653 5.98908 10.8615 5.13654C10.6577 4.284 10.2317 3.50069 9.62672 2.86637C9.10359 2.32104 8.45349 1.91384 7.73453 1.68117C7.01557 1.44849 6.25016 1.3976 5.50672 1.53304C5.47411 1.54122 5.44408 1.55748 5.41942 1.58034C5.39476 1.60319 5.37626 1.63189 5.36563 1.66379C5.355 1.69568 5.35258 1.72974 5.35859 1.76282C5.36461 1.7959 5.37887 1.82693 5.40005 1.85304L7.72005 4.21304C7.73523 4.24181 7.74317 4.27384 7.74317 4.30637C7.74317 4.3389 7.73523 4.37094 7.72005 4.39971L7.16005 6.81304C7.15166 6.8451 7.13489 6.87435 7.11146 6.89778C7.08803 6.92121 7.05878 6.93798 7.02672 6.94637L4.65339 7.59971C4.62501 7.61609 4.59282 7.62471 4.56005 7.62471C4.52729 7.62471 4.4951 7.61609 4.46672 7.59971L2.21339 5.21304C2.18808 5.1871 2.15578 5.16909 2.12041 5.1612C2.08505 5.15331 2.04815 5.15588 2.01422 5.1686C1.9803 5.18133 1.9508 5.20365 1.92935 5.23285C1.90789 5.26205 1.8954 5.29686 1.89339 5.33304C1.76074 6.09489 1.81258 6.87744 2.04456 7.61514C2.27654 8.35284 2.68191 9.02422 3.22672 9.57304C3.79496 10.1639 4.51403 10.5881 5.30605 10.7996C6.09808 11.0111 6.93288 11.0019 7.72005 10.773L7.80005 10.8664L8.30672 11.3864L18.4534 22.053C18.8334 22.4568 19.3573 22.6944 19.9115 22.7144C20.4656 22.7343 21.0053 22.535 21.4134 22.1597L21.5201 22.053C21.7247 21.8407 21.8854 21.5901 21.9929 21.3155C22.1004 21.041 22.1527 20.7479 22.1467 20.453C22.1448 19.8224 21.9015 19.2165 21.4667 18.7597Z" fill="url(#paint1_linear)"/>
<defs>
<linearGradient id="paint0_linear" x1="12" y1="1.33326" x2="12" y2="22.6666" gradientUnits="userSpaceOnUse">
<stop stop-color="#198AB3"/>
<stop offset="0.29" stop-color="#1786B1"/>
<stop offset="0.59" stop-color="#1079AD"/>
<stop offset="0.89" stop-color="#0565A5"/>
<stop offset="1" stop-color="#005BA1"/>
</linearGradient>
<linearGradient id="paint1_linear" x1="11.9467" y1="1.46637" x2="11.9467" y2="22.6397" gradientUnits="userSpaceOnUse">
<stop stop-color="#32D4F5"/>
<stop offset="0.23" stop-color="#31D0F1"/>
<stop offset="0.46" stop-color="#2CC3E6"/>
<stop offset="0.7" stop-color="#25AFD4"/>
<stop offset="0.94" stop-color="#1C92BA"/>
<stop offset="1" stop-color="#198AB3"/>
</linearGradient>
</defs>
</svg>
