<svg xmlns="http://www.w3.org/2000/svg" xmlns:xlink="http://www.w3.org/1999/xlink" viewBox="0 0 119.56 104.16"><defs><style>.cls-1{fill:url(#linear-gradient);}.cls-2{fill:#fff;}.cls-3{fill:#d15900;}.cls-4{fill:#b31b1b;}.cls-5{fill:#e62323;}.cls-6{fill:#ffb34d;}</style><linearGradient id="linear-gradient" x1="56.87" y1="265.75" x2="56.87" y2="346.31" gradientTransform="matrix(1, 0, 0, -1, 0, 346.31)" gradientUnits="userSpaceOnUse"><stop offset="0" stop-color="#f78d1e"/><stop offset="0.44" stop-color="#f8911e"/><stop offset="0.85" stop-color="#f99c1d"/><stop offset="1" stop-color="#faa21d"/></linearGradient></defs><title>Asset 9</title><g id="Layer_2" data-name="Layer 2"><g id="Layer_1-2" data-name="Layer 1"><rect class="cls-1" width="113.74" height="80.56" rx="3.79"/><rect class="cls-2" x="6.63" y="7.08" width="100.47" height="66.35" rx="1.9"/><path id="bcc3d4fb-2f67-48ef-b6e7-f3c11ba0061b" class="cls-3" d="M94.4,54.21a1.84,1.84,0,0,1-1.77,1.84H51.56a1.84,1.84,0,0,1,0-3.67H92.63a1.77,1.77,0,0,1,1.77,1.77v.06"/><path id="e696babd-447d-4e2b-bc61-f978fd3ed1bc" class="cls-3" d="M94.4,42.84a1.83,1.83,0,0,1-1.77,1.83H51.56a1.83,1.83,0,0,1,0-3.66H92.63a1.77,1.77,0,0,1,1.77,1.77v.06"/><path id="b5d2bd6a-dd0a-43be-bfa5-16266f75812c" class="cls-3" d="M94.4,26.35a1.76,1.76,0,0,1-1.7,1.83H23.82a1.83,1.83,0,0,1,0-3.66H92.63a1.76,1.76,0,0,1,1.77,1.76v.07"/><path id="aad840c2-43d5-415e-a865-328ca9d53f36" class="cls-4" d="M32.41,75.38a15.91,15.91,0,0,1-21.29,0L9.79,101.86a2.09,2.09,0,0,0,3.61,1.58l8.21-8.34,8.28,8.4a2.09,2.09,0,0,0,3.6-1.52Z"/><ellipse id="beae3214-3e24-4a7c-af86-a4353a2d1797" class="cls-5" cx="21.99" cy="61.8" rx="19.02" ry="19.08"/><circle id="f1e213df-20de-4eb9-9bf3-0c6690c16a0a" class="cls-6" cx="21.99" cy="61.8" r="14.47"/><path d="M119.56,78.05l-2.1,2.11L108,70.42v29.74h-2.64V70.42l-9.47,9.74-2.1-2.11,12.89-12.63Zm-1-20v2.63H94.83V58.05Z"/></g></g></svg>