<svg xmlns="http://www.w3.org/2000/svg" xmlns:xlink="http://www.w3.org/1999/xlink" viewBox="0 0 350 286.76"><defs><style>.cls-1{fill:url(#linear-gradient);}.cls-2{fill:#fff;}.cls-3{fill:#d15900;}.cls-4{fill:#b31b1b;}.cls-5{fill:#e62323;}.cls-6{fill:#ffb34d;}</style><linearGradient id="linear-gradient" x1="156.57" y1="263.71" x2="156.57" y2="485.52" gradientTransform="matrix(1, 0, 0, -1, 0, 485.52)" gradientUnits="userSpaceOnUse"><stop offset="0" stop-color="#f78d1e"/><stop offset="0.44" stop-color="#f8911e"/><stop offset="0.85" stop-color="#f99c1d"/><stop offset="1" stop-color="#faa21d"/></linearGradient></defs><title>Asset 3</title><g id="Layer_2" data-name="Layer 2"><g id="Layer_1-2" data-name="Layer 1"><rect class="cls-1" width="313.14" height="221.8" rx="10.44"/><rect class="cls-2" x="18.27" y="19.48" width="276.6" height="182.66" rx="5.22"/><path id="bcc3d4fb-2f67-48ef-b6e7-f3c11ba0061b" class="cls-3" d="M259.9,149.26a5.05,5.05,0,0,1-4.87,5.05H142a5,5,0,0,1,0-10.09H255a4.87,4.87,0,0,1,4.88,4.86c0,.06,0,.12,0,.18"/><path id="e696babd-447d-4e2b-bc61-f978fd3ed1bc" class="cls-3" d="M259.9,118a5,5,0,0,1-4.87,5H142a5,5,0,0,1,0-10.09H255a4.88,4.88,0,0,1,4.88,4.87c0,.06,0,.12,0,.18"/><path id="b5d2bd6a-dd0a-43be-bfa5-16266f75812c" class="cls-3" d="M259.9,72.54a4.86,4.86,0,0,1-4.69,5H65.58a5,5,0,0,1,0-10.09H255a4.88,4.88,0,0,1,4.88,4.87c0,.06,0,.11,0,.17"/><path id="aad840c2-43d5-415e-a865-328ca9d53f36" class="cls-4" d="M89.24,207.54a43.83,43.83,0,0,1-58.62,0L27,280.43a5.74,5.74,0,0,0,9.92,4.35l22.62-23L82.29,285a5.74,5.74,0,0,0,9.91-4.17Z"/><ellipse id="beae3214-3e24-4a7c-af86-a4353a2d1797" class="cls-5" cx="60.54" cy="170.14" rx="52.36" ry="52.54"/><circle id="f1e213df-20de-4eb9-9bf3-0c6690c16a0a" class="cls-6" cx="60.54" cy="170.14" r="39.84"/><path d="M350,140h-9.19V245.73a12,12,0,0,1-.92,5.51l-2.76,4.6-4.6,2.76H248l-4.6-2.76-2.76-4.6a12,12,0,0,1-.92-5.51V140H230.5v-9.2h36.77v-9.19a5.49,5.49,0,0,1,.92-3.67L270,115.2l2.75-1.84h34.94l2.75,1.84,1.84,2.76a5.49,5.49,0,0,1,.92,3.67v9.19H350Zm-18.38,0H248.88V245.73a5.58,5.58,0,0,0,.92,3.68h80.9a5.58,5.58,0,0,0,.92-3.68Zm-55.16,91.92h-9.19V158.4h9.19Zm0-101.12H304v-9.19H276.46Zm18.39,101.12h-9.2V158.4h9.2Zm18.38,0H304V158.4h9.19Z"/></g></g></svg>