<svg xmlns="http://www.w3.org/2000/svg" class="fxs-portal-svg" id="FxSymbol0-158" role="presentation" viewBox="0 0 50 50" focusable="false" xmlns:xlink="http://www.w3.org/1999/xlink" data-type="251" xmlns:svg="http://www.w3.org/2000/svg"><g><title/><path class="msportalfx-svg-c04" fill="#7a7a7a" d="M 32.4 38.4 H 18.8 c 1.6 5.7 -0.6 6.6 -10.2 6.6 v 3 h 32.6 v -3 c -9.5 0 -10.4 -0.8 -8.8 -6.6"/><path class="msportalfx-svg-c03" fill="#a0a1a2" d="M 47 2 H 2.7 C 1.2 2 0 3.3 0 4.8 v 30.8 c 0 1.5 1.2 2.8 2.7 2.8 H 47 c 1.5 0 3 -1.3 3 -2.8 V 4.8 C 50 3.3 48.5 2 47 2 m -0.8 3.8 v 28.7 H 3.8 V 5.8 l 42.4 -0.1 v 0.1 Z"/><path class="msportalfx-svg-c15" fill="#59b4d9" d="M 46.1 5.8 v 28.8 H 3.8 V 5.8 h 42.4 Z"/><path class="msportalfx-svg-c01" opacity="0.2" fill="#ffffff" d="M 3.8 34.6 V 5.8 l 38.7 -0.1 L 47 2 H 2.7 C 1.2 2 0 3.3 0 4.8 v 30.8 c 0 1.5 1.2 2.8 2.7 2.8 h 1.1 l 4.6 -3.8 H 3.8 Z"/><path class="msportalfx-svg-c15" fill="#59b4d9" d="M 3.8 34.6 V 5.8 h 38.7 H 3.8 Z"/><path class="msportalfx-svg-c03" fill="#a0a1a2" d="M 8.7 45 h 32.7 v 3 H 8.7 Z"/><path class="msportalfx-svg-c13" fill="#b8d432" d="M 25.5 4.1 c 0 0.4 -0.3 0.7 -0.7 0.7 c -0.4 0 -0.7 -0.3 -0.7 -0.7 c 0 -0.4 0.3 -0.7 0.7 -0.7 c 0.4 0 0.7 0.3 0.7 0.7"/><path class="msportalfx-svg-c19" fill="#0072c6" d="M 3.8 20.7 l 8.7 -1.9 l 3.7 6.1 l 5.3 -6.1 l 3.6 3.4 l 6.2 -11.6 L 35 27.1 l 3.6 -8.2 l 7.6 3 v 12.7 H 3.8 Z"/><path class="msportalfx-svg-c13" fill="#b8d432" d="M 38.1 17.4 l -2.8 6.3 l -3.6 -16.2 l -6.8 12.8 l -3.5 -3.2 l -5.1 5.9 l -3.3 -5.6 l -9.2 2 v 2 H 4 l 8 -1.8 l 4 6.7 l 5.6 -6.4 l 3.8 3.6 l 5.5 -10.4 l 3.7 16.8 l 4.5 -9.9 l 6.7 2.6 h 0.3 v -2.1 l -8 -3.1 Z"/></g><defs>
<linearGradient id="a" gradientUnits="userSpaceOnUse" x1="9" y1="16.39" x2="9" y2="-1.94"><stop stop-color="rgb(0, 120, 212)" offset="0"/><stop stop-color="rgb(19, 128, 218)" offset="0.16"/><stop stop-color="rgb(60, 145, 229)" offset="0.53"/><stop stop-color="rgb(85, 156, 236)" offset="0.82"/><stop stop-color="rgb(94, 160, 239)" offset="1"/></linearGradient>
<linearGradient id="b" gradientUnits="userSpaceOnUse" x1="9.88" y1="7.11" x2="9.99" y2="17.27"><stop stop-color="rgb(50, 212, 245)" offset="0"/><stop stop-color="rgb(49, 209, 243)" offset="0.32"/><stop stop-color="rgb(46, 201, 235)" offset="0.53"/><stop stop-color="rgb(41, 186, 222)" offset="0.7"/><stop stop-color="rgb(34, 165, 203)" offset="0.86"/><stop stop-color="rgb(25, 138, 179)" offset="1"/><stop stop-color="rgb(25, 138, 179)" offset="1"/></linearGradient>
<radialGradient id="c" gradientUnits="userSpaceOnUse" cx="9.43" cy="7.03" r="7.27"><stop stop-color="rgb(242, 242, 242)" offset="0"/><stop stop-color="rgb(238, 238, 238)" offset="0.58"/><stop stop-color="rgb(230, 230, 230)" offset="1"/></radialGradient>
</defs>
</svg>