<svg xmlns="http://www.w3.org/2000/svg" viewBox="0 0 250.89 229.76"><defs><style>.cls-1{fill:#b3b3b3;}.cls-2{fill:#f2f2f2;}.cls-3{fill:gray;}.cls-4{fill:#4d4d4d;}.cls-5{fill:#ccc;}</style></defs><title>Asset 4</title><g id="Layer_2" data-name="Layer 2"><g id="Layer_1-2" data-name="Layer 1"><rect class="cls-1" width="250.89" height="177.72" rx="8.36"/><rect class="cls-2" x="14.64" y="15.61" width="221.62" height="146.35" rx="4.18"/><path id="bcc3d4fb-2f67-48ef-b6e7-f3c11ba0061b" class="cls-3" d="M208.24,119.59a4,4,0,0,1-3.9,4h-90.6a4,4,0,0,1,0-8.08h90.6a3.9,3.9,0,0,1,3.9,3.9v.14"/><path id="e696babd-447d-4e2b-bc61-f978fd3ed1bc" class="cls-3" d="M208.24,94.5a4,4,0,0,1-3.9,4h-90.6a4,4,0,0,1,0-8.09h90.6a3.91,3.91,0,0,1,3.9,3.9v.14"/><path id="b5d2bd6a-dd0a-43be-bfa5-16266f75812c" class="cls-3" d="M208.24,58.12a3.9,3.9,0,0,1-3.76,4H52.55a4,4,0,1,1,0-8.09h151.8a3.91,3.91,0,0,1,3.9,3.9v.14"/><path id="aad840c2-43d5-415e-a865-328ca9d53f36" class="cls-4" d="M71.5,166.29a35.12,35.12,0,0,1-47,0l-2.93,58.4a4.6,4.6,0,0,0,8,3.48l18.12-18.4,18.26,18.54A4.59,4.59,0,0,0,73.87,225Z"/><ellipse id="beae3214-3e24-4a7c-af86-a4353a2d1797" class="cls-3" cx="48.51" cy="136.32" rx="41.95" ry="42.09"/><circle id="f1e213df-20de-4eb9-9bf3-0c6690c16a0a" class="cls-5" cx="48.51" cy="136.32" r="31.92"/></g></g></svg>