<svg width="20" height="20" viewBox="0 0 20 20" fill="none" xmlns="http://www.w3.org/2000/svg">
<g clip-path="url(#clip0)">
<path d="M10.3065 0.000471218C8.2094 -0.0651166 6.14517 0.533774 4.40876 1.71158C4.33185 1.76265 4.26638 1.82913 4.2165 1.90682C4.16662 1.98451 4.13343 2.07171 4.11901 2.1629C4.1046 2.25409 4.10928 2.34728 4.13276 2.43656C4.15625 2.52585 4.19802 2.60928 4.25543 2.68158L5.13099 3.78492C6.59836 2.63726 8.42452 2.0459 10.2861 2.11556C12.1477 2.18523 13.9245 2.91142 15.302 4.16553C16.6795 5.41965 17.5688 7.12077 17.8123 8.96766C18.0558 10.8145 17.6379 12.688 16.6326 14.2563C15.6272 15.8246 14.0993 16.9866 12.3194 17.5364C10.5395 18.0862 8.62252 17.9884 6.90782 17.2603C5.19312 16.5323 3.79139 15.2209 2.95086 13.5584C2.11033 11.8959 1.88524 9.98966 2.31543 8.17714C2.3527 8.01258 2.32619 7.84 2.24123 7.69422C2.15628 7.54843 2.0192 7.44028 1.85765 7.39158L1.12765 7.16936C1.04034 7.14203 0.948339 7.13297 0.857372 7.14273C0.766405 7.15249 0.678421 7.18087 0.598897 7.22611C0.519372 7.27134 0.450009 7.33246 0.395125 7.40566C0.340241 7.47886 0.301011 7.56257 0.279876 7.65158C-0.204361 9.65968 -0.0548512 11.7685 0.70786 13.6882C1.47057 15.6078 2.80906 17.2442 4.53939 18.3725C6.26971 19.5007 8.30697 20.0654 10.3712 19.989C12.4355 19.9125 14.4254 19.1987 16.0675 17.9456C17.7097 16.6925 18.9235 14.9617 19.5422 12.9908C20.1609 11.02 20.154 8.90592 19.5226 6.93912C18.8912 4.97233 17.6662 3.24934 16.016 2.00689C14.3657 0.764452 12.3712 0.0635397 10.3065 0.000471218Z" fill="url(#paint0_linear)"/>
<path d="M15.2111 10.1113C16.0929 10.1113 16.8078 9.39645 16.8078 8.51464C16.8078 7.63282 16.0929 6.91797 15.2111 6.91797C14.3293 6.91797 13.6144 7.63282 13.6144 8.51464C13.6144 9.39645 14.3293 10.1113 15.2111 10.1113Z" fill="#F78D1E"/>
<path d="M8.77336 16.9287C9.65518 16.9287 10.37 16.2138 10.37 15.332C10.37 14.4502 9.65518 13.7354 8.77336 13.7354C7.89155 13.7354 7.1767 14.4502 7.1767 15.332C7.1767 16.2138 7.89155 16.9287 8.77336 16.9287Z" fill="#F78D1E"/>
<path d="M6.80558 6.87904L5.5478 5.17682C6.23766 4.53965 7.05636 4.05814 7.94848 3.76487C8.8406 3.47161 9.78532 3.37343 10.7187 3.477C11.652 3.58057 12.5522 3.88345 13.3584 4.36516C14.1645 4.84686 14.8577 5.49614 15.3911 6.26904C15.3311 6.26904 15.2734 6.25126 15.2111 6.25126C14.8622 6.25221 14.5183 6.3342 14.2065 6.49077C13.8947 6.64734 13.6236 6.87421 13.4145 7.15348C13.0189 6.66984 12.5254 6.27542 11.9665 5.99616C11.4076 5.71689 10.7959 5.55911 10.1716 5.53318C9.54734 5.50726 8.92466 5.61378 8.34451 5.84575C7.76436 6.07771 7.23988 6.42986 6.80558 6.87904ZM6.51002 15.3335C6.51136 14.9972 6.58799 14.6654 6.73431 14.3626C6.88063 14.0598 7.09292 13.7935 7.35558 13.5835C6.88195 13.2384 6.48124 12.803 6.17652 12.3025C5.8718 11.8019 5.66908 11.246 5.58002 10.6668C5.50627 10.1732 5.51528 9.67078 5.60669 9.18015C5.63859 9.01897 5.60985 8.85169 5.52598 8.7104C5.44211 8.56911 5.30902 8.46377 5.15224 8.4146L4.41891 8.18682C4.33033 8.15911 4.23693 8.15021 4.14471 8.16068C4.05249 8.17115 3.96347 8.20077 3.88335 8.24762C3.80323 8.29448 3.73378 8.35755 3.67945 8.4328C3.62511 8.50804 3.58708 8.59381 3.5678 8.6846C3.29798 9.99566 3.43766 11.358 3.96791 12.587C4.49816 13.816 5.39336 14.8524 6.53224 15.5557C6.52558 15.4779 6.51002 15.4068 6.51002 15.3335ZM15.2111 10.7779C14.9369 10.7764 14.6654 10.7245 14.41 10.6246C14.2776 11.5465 13.8601 12.4039 13.2159 13.0766C12.5717 13.7493 11.7331 14.2036 10.8178 14.3757C10.981 14.7144 11.055 15.0891 11.0329 15.4644C11.0107 15.8397 10.8931 16.2031 10.6911 16.5202C12.2469 16.3572 13.6932 15.6432 14.7687 14.5072C15.8441 13.3712 16.4779 11.8881 16.5556 10.3257C16.1679 10.6175 15.6963 10.7761 15.2111 10.7779Z" fill="url(#paint1_linear)"/>
<path d="M10.2811 7.88209C9.96993 7.84133 9.65359 7.8694 9.35444 7.96432L4.41444 1.67432L3.75889 2.18876C3.69006 2.24294 3.63258 2.31016 3.58974 2.38657C3.5469 2.46298 3.51954 2.54708 3.50922 2.63407C3.4989 2.72106 3.50583 2.80923 3.5296 2.89354C3.55338 2.97785 3.59353 3.05665 3.64778 3.12543L8.17667 8.88876C7.92167 9.30808 7.81996 9.80286 7.88889 10.2888C7.94257 10.6837 8.10566 11.0558 8.35972 11.3629C8.61378 11.67 8.94868 11.9 9.32657 12.0267C9.70446 12.1535 10.1103 12.172 10.4982 12.0802C10.886 11.9884 11.2405 11.79 11.5215 11.5073C11.8025 11.2246 11.9988 10.8689 12.0882 10.4805C12.1777 10.0921 12.1567 9.68641 12.0277 9.30929C11.8987 8.93217 11.6667 8.59866 11.3581 8.34645C11.0494 8.09424 10.6764 7.9334 10.2811 7.88209Z" fill="url(#paint2_linear)"/>
</g>
<defs>
<linearGradient id="paint0_linear" x1="-0.000123817" y1="10.0005" x2="19.9999" y2="10.0005" gradientUnits="userSpaceOnUse">
<stop stop-color="#5EA0EF"/>
<stop offset="1" stop-color="#0078D4"/>
</linearGradient>
<linearGradient id="paint1_linear" x1="3.43558" y1="9.97793" x2="16.5556" y2="9.97793" gradientUnits="userSpaceOnUse">
<stop stop-color="#50E6FF"/>
<stop offset="1" stop-color="#32BEDD"/>
</linearGradient>
<linearGradient id="paint2_linear" x1="3.50444" y1="6.90543" x2="12.1356" y2="6.90543" gradientUnits="userSpaceOnUse">
<stop stop-color="#5EA0EF"/>
<stop offset="0.432" stop-color="#3890E4"/>
<stop offset="1" stop-color="#0078D4"/>
</linearGradient>
<clipPath id="clip0">
<rect width="20" height="20" fill="white"/>
</clipPath>
</defs>
</svg>
