<?xml version="1.0" encoding="UTF-8"?>
<svg width="48px" height="48px" viewBox="0 0 48 48" version="1.1" xmlns="http://www.w3.org/2000/svg" xmlns:xlink="http://www.w3.org/1999/xlink">
    <!-- Generator: Sketch 52.2 (67145) - http://www.bohemiancoding.com/sketch -->
    <title>Azure-Managed-Service-for-Spring-Cloud_colorful</title>
    <desc>Created with Sketch.</desc>
    <g id="Azure-Managed-Service-for-Spring-Cloud_colorful" stroke="none" stroke-width="1" fill="none" fill-rule="evenodd">
        <g id="artwork">
            <path d="M13,38 C13,39.7 11.7,41 10,41 C8.3,41 7,39.7 7,38 C7,36.3 8.3,35 10,35 C11.7,35 13,36.3 13,38" id="Fill-1" fill="#7FBA00"></path>
            <path d="M3,19 L3,3 L19,3 L19,8.9 C19.9,8.6 20.9,8.3 22,8.1 L22,0 L0,0 L0,22 L9.5,22 C9.5,21 9.5,20 9.7,19 L3,19 Z" id="Fill-3" fill="#0072C6"></path>
            <path d="M19,45 L3,45 L3,29 L10.5,29 C10.3,28 10.1,27 9.9,26 L0,26 L0,48 L22,48 L22,38.1 C21,37.9 19.9,37.7 19,37.5 L19,45 Z" id="Fill-5" fill="#0072C6"></path>
            <path d="M29,7 L29,3 L45,3 L45,19 L41,19 C41,19.2 40.9,19.5 40.9,19.7 C40.8,20.5 40.7,21.2 40.6,22 L48,22 L48,0 L26,0 L26,7.4 C26.5,7.3 27.1,7.2 27.6,7.2 C28.1,7.1 28.5,7 29,7" id="Fill-7" fill="#0072C6"></path>
            <path d="M45,29 L45,45 L29,45 L29,38.3 C28.2,38.4 27.3,38.5 26.4,38.5 L26,38.5 L26,48 L48,48 L48,26 L39.9,26 C39.7,27.1 39.4,28.1 39.1,29 L45,29 Z" id="Fill-9" fill="#0072C6"></path>
            <path d="M33.5,33.2002 C38.7,28.0002 38.6001372,9.5002 38.6001372,9.5002 L38.5,9.5002 C37.1,9.5002 19.8,9.6002 14.9,14.6002 C11.1,18.4002 12.9,26.9002 14.1,31.0002 L29.8,18.3002 L17.1,33.9002 C19.3,34.5992 22.9,35.4002 26.3,35.4002 C29.1,35.5002 31.8,34.9002 33.5,33.2002" id="Fill-11" fill="#7FBA00"></path>
        </g>
    </g>
</svg>