<?xml version="1.0" encoding="UTF-8" standalone="no"?>
<svg width="50px" height="50px" viewBox="0 0 50 50" version="1.1" xmlns="http://www.w3.org/2000/svg" xmlns:xlink="http://www.w3.org/1999/xlink">
    <!-- Generator: Sketch 48.2 (47327) - http://www.bohemiancoding.com/sketch -->
    <title>SignalRServiceblue</title>
    <desc>Created with Sketch.</desc>
    <defs></defs>
    <g id="Page-1" stroke="none" stroke-width="1" fill="none" fill-rule="evenodd">
        <g id="SignalRServiceblue" fill="#59B4D9">
            <path d="M20.4547831,36.363478 L23.2775745,29.5452169 L29.5452169,29.5452169 C32.0508799,29.5452169 34.0913051,27.5065342 34.0913051,25.0008712 C34.0913051,22.4934658 32.0508799,20.4547831 29.5452169,20.4547831 L9.09043387,20.4547831 L20.4547831,9.09043387 L20.4547831,13.636522 L29.5452169,13.636522 C35.8215717,13.636522 40.9095661,18.7245165 40.9095661,25.0008712 C40.9095661,31.1029796 36.0846837,36.0446071 30.0470465,36.314689 L39.2559679,45.5236104 C45.7449033,41.0071441 50,33.5040948 50,25.0008712 C50,11.1935877 38.8064123,0 24.9991288,0 C11.1935877,0 0,11.1935877 0,25.0008712 C0,38.8064123 11.1935877,50 24.9991288,50 C27.7365395,50 30.36069,49.5452169 32.8245339,48.7349712 L20.4547831,36.363478 Z" id="Fill-2"></path>
        </g>
    </g>
</svg>
