<?xml version="1.0" encoding="UTF-8" standalone="no"?>
<svg
   xmlns:dc="http://purl.org/dc/elements/1.1/"
   xmlns:cc="http://creativecommons.org/ns#"
   xmlns:rdf="http://www.w3.org/1999/02/22-rdf-syntax-ns#"
   xmlns:svg="http://www.w3.org/2000/svg"
   xmlns="http://www.w3.org/2000/svg"
   id="svg19"

   viewBox="-6.5 -5 70 60" 
   version="1.0">
  <metadata
     id="metadata23">
    <rdf:RDF>
      <cc:Work
         rdf:about="">
        <dc:format>image/svg+xml</dc:format>
        <dc:type
           rdf:resource="http://purl.org/dc/dcmitype/StillImage" />
      </cc:Work>
    </rdf:RDF>
  </metadata>

  <path
     id="path5"
     d="  M 0.33333333,14.333333   C 0.33333333,44.666667 0.33333333,44.666667 0.33333333,44.666667   C 0.33333333,49 1.6666667,50.333333 6,50.333333   C 52.666667,50.333333 52.666667,50.333333 52.666667,50.333333   C 57,50.333333 58.333333,49 58.333333,44.666667   C 58.333333,14.333333 58.333333,14.333333 58.333333,14.333333   z "
     style="fill:#59b3d8;fill-rule:nonzero;fill-opacity:1;stroke:none;" />
  <path
     id="path7"
     d="  M 58.333333,15.666667   C 58.333333,6 58.333333,6 58.333333,6   C 58.333333,2 57,0.33333333 52.666667,0.33333333   C 6,0.33333333 6,0.33333333 6,0.33333333   C 1.6666667,0.33333333 0.33333333,2 0.33333333,6   C 0.33333333,15.666667 0.33333333,15.666667 0.33333333,15.666667   z "
     style="fill:#9fa0a1;fill-rule:nonzero;fill-opacity:1;stroke:none;" />
  <path
     id="path9"
     d="  M 51,0.33333333   C 6,0.33333333 6,0.33333333 6,0.33333333   C 1.6666667,0.33333333 0.33333333,1.6666667 0.33333333,6   C 0.33333333,15.666667 0.33333333,15.666667 0.33333333,15.666667   C 37,15.666667 37,15.666667 37,15.666667   z "
     style="fill:#b2b3b4;fill-rule:nonzero;fill-opacity:1;stroke:none;" />
  <path
     id="path11"
     d="  M 6,50.333333   C 5,50.333333 5,50.333333 5,50.333333   C 1.6666667,50.333333 0.33333333,48.666667 0.33333333,44.666667   C 0.33333333,15.666667 0.33333333,15.666667 0.33333333,15.666667   C 37,15.666667 37,15.666667 37,15.666667   z "
     style="fill:#7ac2e0;fill-rule:nonzero;fill-opacity:1;stroke:none;" />
  <path
     id="path13"
     d="  M 14.666667,11   L 54.666667,11   L 54.666667,6   L 14.666667,6   L 14.666667,11  z   "
     style="fill:#fbfbfb;fill-rule:nonzero;fill-opacity:1;stroke:none;" />
  <path
     id="path15"
     d="  M 7.6666667,3   C 11,3 13.333333,5.3333333 13.333333,8.6666667   C 13.333333,11.666667 11,14.333333 7.6666667,14.333333   C 4.6666667,14.333333 2,11.666667 2,8.6666667   C 2,5.3333333 4.6666667,3 7.6666667,3   z "
     style="fill:#59b3d8;fill-rule:nonzero;fill-opacity:1;stroke:none;" />
  <path
     id="path17"
     d="  M 13.333333,8   L 7.6666667,8   L 9.6666667,6   L 9.6666667,5.3333333   L 7.6666667,5.3333333   L 4.6666667,8.6666667   L 7.6666667,11.666667   L 9.6666667,11.666667   L 9.6666667,11   L 7.6666667,9.3333333   L 13.333333,9.3333333   L 13.333333,8  z   "
     style="fill:#fbfbfb;fill-rule:nonzero;fill-opacity:1;stroke:none;" />
</svg>
