<?xml version="1.0" standalone="no"?><!DOCTYPE svg PUBLIC "-//W3C//DTD SVG 1.1//EN" "http://www.w3.org/Graphics/SVG/1.1/DTD/svg11.dtd"><svg class="icon" height="512" viewBox="0 0 1024 1024" version="1.1" xmlns="http://www.w3.org/2000/svg"><path d="M511.98236 479.120963l-77.617596-76.978768a15.651285 15.651285 0 0 0-24.91429 0l-2.874726 2.874726a15.331871 15.331871 0 0 0 0 24.594876l77.617596 76.978768-77.617596 76.978768a15.331871 15.331871 0 0 0 0 24.594876l2.874726 2.874726a15.651285 15.651285 0 0 0 24.91429 0L511.98236 535.337822l77.617596 76.978768a15.651285 15.651285 0 0 0 24.91429 0l2.874726-2.874725a15.331871 15.331871 0 0 0 0-24.594876l-77.617596-76.978768 77.617596-76.978768a15.331871 15.331871 0 0 0 0-24.594877l-2.874726-2.874725a15.651285 15.651285 0 0 0-24.91429 0z m420.348792 322.927529A31.941398 31.941398 0 0 1 880.905502 766.59354a447.179565 447.179565 0 1 0-133.195628 127.76559 31.941398 31.941398 0 1 1 31.941397 53.342134 511.06236 511.06236 0 1 1 151.721639-144.055702z m-217.840331-461.872608a46.953854 46.953854 0 0 1 16.609526 16.609526v211.771466c-5.430038 123.613208-205.063772 200.591976-213.368535 203.466702h-11.179489c-8.304763-2.874726-207.938498-79.853494-213.368536-203.466702v-212.09088a15.012457 15.012457 0 0 1 11.179489-16.609526l199.314321-68.674005h11.179489z" fill="#2A323C" /></svg>