<svg xmlns="http://www.w3.org/2000/svg" class="" id="FxSymbol0-04c" role="presentation" viewBox="0 0 18 18" focusable="false" xmlns:xlink="http://www.w3.org/1999/xlink" data-type="154" xmlns:svg="http://www.w3.org/2000/svg" data-islogo="true"><g><path fill="url(#312f5f0e-2665-4dbe-ad9a-f9be3cbceffa)" d="M 10.56 16.93 a 0.56 0.56 0 0 1 -0.57 0.57 H 1.14 a 0.56 0.56 0 0 1 -0.56 -0.57 V 1.07 A 0.56 0.56 0 0 1 1.14 0.5 H 10 a 0.56 0.56 0 0 1 0.57 0.57 Z"/><path fill="#003067" d="M 2 6.46 a 1.08 1.08 0 0 1 1.13 -1.08 h 5 a 1.08 1.08 0 0 1 1.05 1.08 A 1.08 1.08 0 0 1 8.1 7.55 h -5 A 1.09 1.09 0 0 1 2 6.46 Z m 0 -3.22 a 1.09 1.09 0 0 1 1.13 -1.09 h 5 a 1.08 1.08 0 0 1 1.05 1.09 A 1.08 1.08 0 0 1 8.1 4.32 h -5 A 1.08 1.08 0 0 1 2 3.24 Z"/><circle fill="#50e6ff" cx="3.17" cy="3.24" r="0.73"/><circle fill="#50e6ff" cx="3.17" cy="6.46" r="0.73"/><path fill="url(#13c7faaf-c808-4b0a-8b59-d062456c03fa)" d="M 17.42 14.38 a 3.12 3.12 0 0 0 -2.67 -3 a 3.93 3.93 0 0 0 -4 -3.8 a 4 4 0 0 0 -3.83 2.66 a 3.7 3.7 0 0 0 -3.22 3.59 a 3.77 3.77 0 0 0 3.86 3.67 h 6.77 a 3.15 3.15 0 0 0 3.09 -3.12 Z"/></g><defs>
<linearGradient id="a" gradientUnits="userSpaceOnUse" x1="9" y1="16.39" x2="9" y2="-1.94"><stop stop-color="rgb(0, 120, 212)" offset="0"/><stop stop-color="rgb(19, 128, 218)" offset="0.16"/><stop stop-color="rgb(60, 145, 229)" offset="0.53"/><stop stop-color="rgb(85, 156, 236)" offset="0.82"/><stop stop-color="rgb(94, 160, 239)" offset="1"/></linearGradient>
<linearGradient id="b" gradientUnits="userSpaceOnUse" x1="9.88" y1="7.11" x2="9.99" y2="17.27"><stop stop-color="rgb(50, 212, 245)" offset="0"/><stop stop-color="rgb(49, 209, 243)" offset="0.32"/><stop stop-color="rgb(46, 201, 235)" offset="0.53"/><stop stop-color="rgb(41, 186, 222)" offset="0.7"/><stop stop-color="rgb(34, 165, 203)" offset="0.86"/><stop stop-color="rgb(25, 138, 179)" offset="1"/><stop stop-color="rgb(25, 138, 179)" offset="1"/></linearGradient>
<radialGradient id="c" gradientUnits="userSpaceOnUse" cx="9.43" cy="7.03" r="7.27"><stop stop-color="rgb(242, 242, 242)" offset="0"/><stop stop-color="rgb(238, 238, 238)" offset="0.58"/><stop stop-color="rgb(230, 230, 230)" offset="1"/></radialGradient>
<linearGradient id="312f5f0e-2665-4dbe-ad9a-f9be3cbceffa" gradientUnits="userSpaceOnUse" x1="5.57" y1="17.5" x2="5.57" y2="0.5"><stop stop-color="rgb(148, 148, 148)" offset="0.05"/><stop stop-color="rgb(151, 151, 151)" offset="0.36"/><stop stop-color="rgb(159, 159, 159)" offset="0.54"/><stop stop-color="rgb(173, 173, 173)" offset="0.69"/><stop stop-color="rgb(179, 179, 179)" offset="0.73"/></linearGradient>
<linearGradient id="13c7faaf-c808-4b0a-8b59-d062456c03fa" gradientUnits="userSpaceOnUse" x1="10.56" y1="6.02" x2="10.56" y2="19.71"><stop stop-color="rgb(94, 160, 239)" offset="0.18"/><stop stop-color="rgb(0, 120, 212)" offset="1"/></linearGradient>
</defs>
</svg>