<svg xmlns="http://www.w3.org/2000/svg" class="" id="FxSymbol0-026" role="presentation" viewBox="0 0 18 18" focusable="false" xmlns:xlink="http://www.w3.org/1999/xlink" data-type="72" xmlns:svg="http://www.w3.org/2000/svg" data-islogo="true">
  <g>
    <path fill="url(#84d4b995-4159-4d4d-aee0-170d911ffad6)" d="M 14.209 15.717 A 8.5 8.5 0 0 1 3.791 2.283 l 0.086 -0.065 a 8.5 8.5 0 0 1 10.332 13.5"/>
    <path fill="#83b9f9" d="M 2.481 10.645 a 18.877 18.877 0 0 0 -0.836 2.624 a 9.46 9.46 0 0 0 0.622 0.922 a 8.126 8.126 0 0 0 0.555 0.647 a 17.828 17.828 0 0 1 1.083 -3.468 a 2.72 2.72 0 0 1 -1.424 -0.725 Z M 3.46 6.11 a 11.947 11.947 0 0 1 -0.689 -2.945 a 8.4 8.4 0 0 0 -1.1 1.458 a 13.23 13.23 0 0 0 0.568 2.362 A 2.731 2.731 0 0 1 3.46 6.11 Z"/>
    <circle fill="url(#cc4eaa77-f606-4858-82be-b6f017f8e0e6)" cx="4.377" cy="8.681" r="2.732"/>
    <path fill="#83b9f9" d="M 8.36 13.67 a 1.764 1.764 0 0 1 0.54 -1.27 a 11.978 11.978 0 0 1 -2.525 -1.857 a 2.716 2.716 0 0 1 -1.492 0.821 a 11.821 11.821 0 0 0 1.447 1.287 A 12.384 12.384 0 0 0 8.376 13.9 a 1.9 1.9 0 0 1 -0.016 -0.23 Z m 6.298 0.212 a 11.928 11.928 0 0 1 -2.754 -0.321 c 0 0.036 0.006 0.072 0.006 0.109 a 1.767 1.767 0 0 1 -0.506 1.24 a 13.883 13.883 0 0 0 3.412 0.243 a 8.479 8.479 0 0 0 1.151 -1.343 a 12.188 12.188 0 0 1 -1.309 0.072 Z"/>
    <circle fill="url(#21835eba-54d1-4895-bec7-c7debbea7644)" cx="10.135" cy="13.67" r="1.775"/>
    <path fill="#83b9f9" d="M 9.653 5.1 A 13.556 13.556 0 0 1 15.6 3.65 a 8.4 8.4 0 0 0 -1.486 -1.445 A 14.443 14.443 0 0 0 9.42 3.313 c -0.328 0.14 -0.646 0.3 -0.959 0.467 A 16.964 16.964 0 0 1 6.484 0.868 a 8.645 8.645 0 0 0 -1.084 0.419 A 17.744 17.744 0 0 0 7.457 4.38 a 12.382 12.382 0 0 0 -2.114 1.748 a 2.731 2.731 0 0 1 1.346 1.1 a 11.932 11.932 0 0 1 1.926 -1.536 a 27.632 27.632 0 0 0 3.7 3.235 a 1.844 1.844 0 0 1 0.612 -0.988 A 26.781 26.781 0 0 1 9.653 5.1 Z"/>
    <circle fill="#f2f2f2" cx="14.18" cy="9.268" r="1.885"/>
    <path fill="#83b9f9" d="M 17.347 10.539 a 19.22 19.22 0 0 1 -0.321 -0.169 L 17 10.354 l -0.3 -0.16 l -0.055 -0.03 l -0.267 -0.149 l -0.066 -0.036 L 16 9.8 a 1.8 1.8 0 0 1 -0.637 0.925 l 0.374 0.214 l 0.084 0.047 c 0.115 0.065 0.231 0.129 0.348 0.193 l 0.034 0.019 q 0.42 0.23 0.862 0.456 a 8.493 8.493 0 0 0 0.283 -1.114 Z"/>
    <circle fill="#f2f2f2" cx="4.377" cy="8.681" r="2.732"/>
    <circle fill="#f2f2f2" cx="10.135" cy="13.67" r="1.775"/>
  </g>
  <defs>
    <radialGradient id="84d4b995-4159-4d4d-aee0-170d911ffad6" gradientUnits="userSpaceOnUse" gradientTransform="matrix(0.15, 0, 0, 0.15, -2005.33, -518.832)" cx="13428.8" cy="3518.86" r="56.667">
      <stop stop-color="rgb(94, 160, 239)" offset="0.183"/>
      <stop stop-color="rgb(0, 120, 212)" offset="1"/>
    </radialGradient>
    <linearGradient id="cc4eaa77-f606-4858-82be-b6f017f8e0e6" gradientUnits="userSpaceOnUse" x1="4.399" y1="11.484" x2="4.368" y2="7.525">
      <stop stop-color="rgb(204, 204, 204)" offset="0"/>
      <stop stop-color="rgb(215, 215, 215)" offset="0.123"/>
      <stop stop-color="rgb(235, 235, 235)" offset="0.421"/>
      <stop stop-color="rgb(248, 248, 248)" offset="0.716"/>
      <stop stop-color="rgb(252, 252, 252)" offset="1"/>
    </linearGradient>
    <linearGradient id="21835eba-54d1-4895-bec7-c7debbea7644" x1="10.135" y1="15.445" x2="10.135" y2="11.895"/>
    <linearGradient id="a" gradientUnits="userSpaceOnUse" x1="9" y1="16.39" x2="9" y2="-1.94">
      <stop stop-color="rgb(0, 120, 212)" offset="0"/>
      <stop stop-color="rgb(19, 128, 218)" offset="0.16"/>
      <stop stop-color="rgb(60, 145, 229)" offset="0.53"/>
      <stop stop-color="rgb(85, 156, 236)" offset="0.82"/>
      <stop stop-color="rgb(94, 160, 239)" offset="1"/>
    </linearGradient>
    <linearGradient id="b" gradientUnits="userSpaceOnUse" x1="9.88" y1="7.11" x2="9.99" y2="17.27">
      <stop stop-color="rgb(50, 212, 245)" offset="0"/>
      <stop stop-color="rgb(49, 209, 243)" offset="0.32"/>
      <stop stop-color="rgb(46, 201, 235)" offset="0.53"/>
      <stop stop-color="rgb(41, 186, 222)" offset="0.7"/>
      <stop stop-color="rgb(34, 165, 203)" offset="0.86"/>
      <stop stop-color="rgb(25, 138, 179)" offset="1"/>
      <stop stop-color="rgb(25, 138, 179)" offset="1"/>
    </linearGradient>
    <radialGradient id="c" gradientUnits="userSpaceOnUse" cx="9.43" cy="7.03" r="7.27">
      <stop stop-color="rgb(242, 242, 242)" offset="0"/>
      <stop stop-color="rgb(238, 238, 238)" offset="0.58"/>
      <stop stop-color="rgb(230, 230, 230)" offset="1"/>
    </radialGradient>
  </defs>
</svg>