<svg width="22" height="22" viewBox="0 0 22 22" fill="none" xmlns="http://www.w3.org/2000/svg">
<path d="M17.5634 5.0966L17.6612 5.18216C17.6928 5.21136 17.7343 5.22758 17.7773 5.22758C17.8204 5.22758 17.8618 5.21136 17.8934 5.18216L18.7979 4.42438L20.4357 1.72327C20.4585 1.69344 20.4708 1.65693 20.4708 1.61938C20.4708 1.58183 20.4585 1.54533 20.4357 1.51549L20.1546 1.22216C20.1247 1.19936 20.0882 1.18701 20.0507 1.18701C20.0131 1.18701 19.9766 1.19936 19.9468 1.22216L17.3679 2.96994L16.6346 3.91105C16.6087 3.94187 16.5945 3.98081 16.5945 4.02105C16.5945 4.06128 16.6087 4.10023 16.6346 4.13105L16.7323 4.22883L11.4034 9.77772L10.3034 8.55549L9.08122 9.77772C9.13781 10.1051 9.11995 10.4409 9.02896 10.7604C8.93798 11.0799 8.77621 11.3748 8.55566 11.6233C8.34682 11.853 8.08535 12.0286 7.7937 12.135C7.50206 12.2415 7.18894 12.2756 6.88122 12.2344L1.63788 17.5511C1.60572 17.5819 1.58012 17.6189 1.56263 17.6598C1.54515 17.7008 1.53613 17.7448 1.53613 17.7894C1.53613 17.8339 1.54515 17.878 1.56263 17.919C1.58012 17.9599 1.60572 17.9969 1.63788 18.0277L4.18011 20.6677C4.21104 20.7018 4.24877 20.7291 4.29087 20.7477C4.33297 20.7664 4.3785 20.776 4.42455 20.776C4.4706 20.776 4.51613 20.7664 4.55823 20.7477C4.60033 20.7291 4.63806 20.7018 4.669 20.6677L9.77788 15.3388C9.73764 15.0182 9.77184 14.6927 9.87782 14.3874C9.98381 14.0822 10.1587 13.8055 10.389 13.5788C10.5997 13.3516 10.8614 13.1777 11.1525 13.0714C11.4437 12.9651 11.7559 12.9296 12.0634 12.9677L13.2857 11.7455L12.2223 10.5599L17.5634 5.0966Z" fill="url(#paint0_linear)"/>
<path d="M19.6779 17.1964L18.4557 15.8886L10.2912 7.5164L9.8879 7.0764C10.1196 6.30702 10.1432 5.48999 9.95644 4.7085C9.76966 3.927 9.37911 3.20897 8.82456 2.62751C8.34503 2.12762 7.74911 1.75435 7.09006 1.54107C6.43101 1.32779 5.72938 1.28113 5.0479 1.40529C5.018 1.41278 4.99048 1.42769 4.96788 1.44864C4.94527 1.46959 4.92831 1.4959 4.91857 1.52514C4.90882 1.55438 4.9066 1.5856 4.91212 1.61592C4.91763 1.64624 4.9307 1.67469 4.95012 1.69862L7.07679 3.86195C7.0907 3.88832 7.09797 3.91769 7.09797 3.94751C7.09797 3.97732 7.0907 4.00669 7.07679 4.03306L6.56345 6.24529C6.55576 6.27467 6.54039 6.30148 6.51891 6.32296C6.49743 6.34444 6.47062 6.35982 6.44123 6.36751L4.26568 6.9664C4.23966 6.98141 4.21016 6.98932 4.18012 6.98932C4.15008 6.98932 4.12058 6.98141 4.09456 6.9664L2.02901 4.77862C2.00582 4.75484 1.9762 4.73833 1.94378 4.7311C1.91137 4.72387 1.87754 4.72622 1.84644 4.73789C1.81534 4.74955 1.78831 4.77001 1.76864 4.79678C1.74897 4.82354 1.73752 4.85545 1.73568 4.88862C1.61409 5.58699 1.6616 6.30432 1.87425 6.98055C2.0869 7.65677 2.45849 8.2722 2.9579 8.77529C3.47879 9.31693 4.13793 9.70575 4.86395 9.89964C5.58998 10.0935 6.35521 10.0851 7.07679 9.87529L7.15012 9.96084L7.61456 10.4375L16.9157 20.2153C17.2641 20.5854 17.7443 20.8032 18.2523 20.8215C18.7602 20.8398 19.2549 20.6571 19.629 20.3131L19.7268 20.2153C19.9144 20.0207 20.0617 19.7909 20.1602 19.5392C20.2588 19.2875 20.3067 19.0189 20.3012 18.7486C20.2995 18.1706 20.0765 17.6151 19.6779 17.1964Z" fill="url(#paint1_linear)"/>
<defs>
<linearGradient id="paint0_linear" x1="11.0001" y1="1.22216" x2="11.0001" y2="20.7777" gradientUnits="userSpaceOnUse">
<stop stop-color="#198AB3"/>
<stop offset="0.29" stop-color="#1786B1"/>
<stop offset="0.59" stop-color="#1079AD"/>
<stop offset="0.89" stop-color="#0565A5"/>
<stop offset="1" stop-color="#005BA1"/>
</linearGradient>
<linearGradient id="paint1_linear" x1="10.9512" y1="1.34417" x2="10.9512" y2="20.7531" gradientUnits="userSpaceOnUse">
<stop stop-color="#32D4F5"/>
<stop offset="0.23" stop-color="#31D0F1"/>
<stop offset="0.46" stop-color="#2CC3E6"/>
<stop offset="0.7" stop-color="#25AFD4"/>
<stop offset="0.94" stop-color="#1C92BA"/>
<stop offset="1" stop-color="#198AB3"/>
</linearGradient>
</defs>
</svg>
