<svg width="178" height="107" viewBox="0 0 178 107" fill="none" xmlns="http://www.w3.org/2000/svg">
<path d="M136.048 60.864L135.951 95.0931C135.944 97.7379 134.097 98.8017 131.824 97.474L75.9721 64.8251C74.7736 64.0318 73.7782 62.9683 73.0659 61.72C72.3536 60.4717 71.9443 59.0736 71.8711 57.6383L71.9692 23.4092L136.048 60.864Z" fill="white"/>
<path d="M134.746 97.7642L137.293 96.2643C138.034 95.8289 138.489 94.9074 138.496 93.5942L135.949 95.0935C135.942 96.4067 135.483 97.3288 134.746 97.7642Z" fill="#DCDCDC"/>
<path d="M136.043 60.8651L135.945 95.0904L138.493 93.5944L138.59 59.3652L136.043 60.8651Z" fill="#DCDCDC"/>
<path d="M136.051 52.9455L138.598 51.4463L138.575 59.5957L136.031 61.0918L136.051 52.9455Z" fill="#45CAF2"/>
<path d="M131.948 45.7573C133.148 46.55 134.144 47.6135 134.856 48.862C135.568 50.1105 135.977 51.5091 136.049 52.9447L136.028 61.091L71.9453 23.6393L71.9668 15.4937C71.9738 12.8528 73.8237 11.7845 76.0931 13.1122L131.948 45.7573Z" fill="#50E6FF"/>
<path d="M75.7153 11.3201L73.168 12.82C73.916 12.3808 74.9526 12.4403 76.0943 13.1092L78.6391 11.6118C77.4999 10.9397 76.4633 10.8815 75.7153 11.3201Z" fill="#45CAF2"/>
<path d="M134.496 44.2581L78.641 11.6118L76.0938 13.1111L131.946 45.7561C133.145 46.5488 134.141 47.6123 134.853 48.8609C135.566 50.1094 135.975 51.5079 136.047 52.9436L138.594 51.4443C138.522 50.0091 138.114 48.611 137.402 47.3627C136.69 46.1144 135.694 45.051 134.496 44.2581V44.2581Z" fill="#45CAF2"/>
<path d="M97.2505 60.0319L97.1741 87.0029L92.0156 84.0247L92.092 57.0552L97.2505 60.0319Z" fill="#45CAF2"/>
<path d="M97.2483 60.0323L100.354 58.228L100.278 85.1976L97.1719 87.0033L97.2483 60.0323Z" fill="#2195DC"/>
<path d="M92.0898 57.0552L95.1973 55.2495L100.354 58.2277L97.2484 60.0319L92.0898 57.0552Z" fill="#32B0E7"/>
<path d="M104.227 61.0827L104.143 91.0259L98.9844 88.0478L99.0681 58.1045L104.227 61.0827Z" fill="#50E6FF"/>
<path d="M104.224 61.0821L107.332 59.2778L107.247 89.2196L104.141 91.0253L104.224 61.0821Z" fill="#32B0E7"/>
<path d="M99.0664 58.105L102.174 56.3008L107.332 59.2789L104.225 61.0832L99.0664 58.105Z" fill="#45CAF2"/>
<path d="M111.159 78.0548L111.11 95.0467L105.953 92.0685L106 75.0767L111.159 78.0548Z" fill="#84ECFD"/>
<path d="M111.154 78.0552L114.26 76.2495L114.211 93.2414L111.105 95.0471L111.154 78.0552Z" fill="#45CAF2"/>
<path d="M105.996 75.0772L109.104 73.2715L114.261 76.2497L111.155 78.0554L105.996 75.0772Z" fill="#50E6FF"/>
<path d="M118.136 76.8717L118.073 99.0706L112.914 96.0924L112.977 73.8936L118.136 76.8717Z" fill="#ACF3FD"/>
<path d="M118.137 76.8716L121.243 75.0659L121.18 97.2648L118.074 99.0705L118.137 76.8716Z" fill="#50E6FF"/>
<path d="M112.98 73.8926L116.086 72.0869L121.245 75.0651L118.139 76.8708L112.98 73.8926Z" fill="#84ECFD"/>
<path d="M73.9453 86.1522V70.7334H68.6445V86.1522C68.6445 86.5499 68.9171 86.9476 69.4321 87.2535C70.4619 87.8654 72.1582 87.8654 73.188 87.2535C73.703 86.9476 73.9453 86.5499 73.9453 86.1522Z" fill="#156AB3"/>
<path d="M73.1882 69.6317C74.218 70.2436 74.218 71.2226 73.1882 71.8344C72.1583 72.4463 70.4621 72.4463 69.4322 71.8344C68.4024 71.2226 68.3721 70.2436 69.4322 69.6317C70.4621 69.0199 72.128 69.0199 73.1882 69.6317Z" fill="#185A97"/>
<path d="M72.4654 65.2265C71.8293 64.8594 70.7692 64.8594 70.1331 65.2265C69.7999 65.4101 69.6484 65.6548 69.6484 65.8996V70.3967C69.6484 70.6414 69.7999 70.8862 70.1331 71.0697C70.7692 71.4369 71.8293 71.4369 72.4654 71.0697C72.7986 70.8862 72.9501 70.6414 72.9501 70.3967V65.8996C72.9501 65.6548 72.7986 65.4101 72.4654 65.2265Z" fill="#2195DC"/>
<path d="M73.5213 61.2803C68.3418 58.2517 64.1617 50.94 64.1617 44.9132C64.1617 41.9151 65.2219 39.8348 66.8878 38.8252L62.4958 41.4256C60.7996 42.4046 59.7697 44.5155 59.7697 47.5136C59.7394 53.5404 63.9194 60.852 69.099 63.8807C71.7039 65.4104 74.0666 65.5328 75.7628 64.5538L80.1548 61.9534C78.4889 62.963 76.1263 62.81 73.5213 61.2803Z" fill="#0078D4"/>
<path opacity="0.4" d="M70.4027 63.0851C75.5823 66.1138 79.7926 63.697 79.8229 57.6702C79.8532 51.6434 75.6429 44.3317 70.4633 41.303C65.2837 38.2743 61.0734 40.6911 61.0431 46.7179C61.0128 52.7141 65.2231 60.0564 70.4027 63.0851Z" fill="#E1F0F0"/>
<path d="M69.1901 39.5289C75.5812 43.2612 80.7608 52.3167 80.7608 59.7508C80.7305 67.1848 75.5207 70.1829 69.1295 66.4506C62.708 62.7183 57.5284 53.6628 57.5587 46.2287C57.589 38.7947 62.7989 35.7966 69.1901 39.5289ZM69.0992 63.8502C74.2788 66.8789 78.4891 64.4621 78.5194 58.4353C78.5497 52.4085 74.3394 45.0968 69.1598 42.0681C63.9802 39.0394 59.7699 41.4562 59.7396 47.483C59.7093 53.5098 63.9196 60.8521 69.0992 63.8502Z" fill="#32B0E7"/>
<path d="M73.5518 36.9894C70.3108 35.1232 67.403 34.9397 65.2827 36.194L60.8906 38.7638C63.0109 37.54 65.9188 37.693 69.1295 39.5898C75.5207 43.3221 80.7003 52.3776 80.7003 59.8116C80.7003 63.5134 79.3978 66.1138 77.3078 67.3375L81.6998 64.7371C83.7898 63.5134 85.062 60.913 85.0923 57.2113C85.1226 49.8078 79.943 40.7523 73.5518 36.9894Z" fill="#156AB3"/>
<path d="M56.3945 15.558L53.0677 13.6242C52.7022 13.4111 52.1951 13.4408 51.6395 13.7618L54.9664 15.6956C55.522 15.3746 56.0291 15.3463 56.3945 15.558Z" fill="#32B0E7"/>
<path d="M30.3762 44.2583L33.7031 46.1921C33.3417 45.9818 33.1179 45.5367 33.1152 44.907L29.7883 42.9731C29.7896 43.6029 30.0148 44.0479 30.3762 44.2583Z" fill="#32B0E7"/>
<path d="M33.0806 30.6419L29.7538 28.7095L29.7942 42.9731L33.1211 44.9056L33.0806 30.6419Z" fill="#32B0E7"/>
<path d="M54.9609 15.6952L51.6341 13.7627L31.7537 25.2402L35.0806 27.1741L54.9609 15.6952Z" fill="#32B0E7"/>
<path d="M35.0826 27.1748C33.9782 27.8127 33.0773 29.373 33.08 30.6433L33.1205 44.907C33.1245 46.1759 34.0307 46.6938 35.1352 46.0559L47.8521 38.7144L52.431 41.3214C52.8685 41.5705 53.4118 41.2536 53.4104 40.7502L53.396 35.5116L55.0169 34.5757C56.1227 33.9378 57.0236 32.3762 57.0195 31.1072L56.9791 16.8436C56.975 15.5746 56.0688 15.0568 54.963 15.696L35.0826 27.1748Z" fill="url(#paint0_linear)"/>
<path d="M44.9866 34.6681C44.6528 34.8644 44.3975 35.3161 44.3975 35.6892V36.2194C44.3975 36.5925 44.6724 36.7496 44.9866 36.5532L45.4382 36.2783C45.7721 36.0819 46.0273 35.6303 46.0273 35.2572V34.727C46.0273 34.3539 45.7524 34.1968 45.4382 34.3931L44.9866 34.6681Z" fill="white"/>
<path d="M44.337 26.597C44.1406 26.7149 43.9835 26.9898 44.0032 27.2058L44.3174 33.5681C44.337 33.7645 44.4744 33.843 44.6512 33.7449L45.7705 33.0968C45.9472 32.9987 46.1043 32.7434 46.1043 32.5274L46.3203 25.8508C46.3203 25.6348 46.1829 25.5366 45.9865 25.6348L44.337 26.597Z" fill="white"/>
<path d="M35.082 27.1745L31.7552 25.2407C30.6507 25.8786 29.7499 27.4389 29.7526 28.7092L33.0794 30.643C33.0754 29.3727 33.9762 27.8124 35.082 27.1745Z" fill="#32B0E7"/>
<defs>
<linearGradient id="paint0_linear" x1="47.9405" y1="8.89299" x2="45.4102" y2="40.8227" gradientUnits="userSpaceOnUse">
<stop stop-color="#50E6FF"/>
<stop offset="1" stop-color="#45CAF2"/>
</linearGradient>
</defs>
</svg>
