<svg width="46" height="46" viewBox="0 0 46 46" fill="none" xmlns="http://www.w3.org/2000/svg">
<rect width="46" height="46" fill="white"/>
<path d="M42.3408 28.8662C43.2172 29.3685 43.2222 30.1922 42.3408 30.6969L39.6563 32.2564L14.9508 17.9926L17.6353 16.4332C18.1247 16.1844 18.6659 16.0547 19.2149 16.0547C19.7639 16.0547 20.3051 16.1844 20.7945 16.4332L42.3408 28.8662Z" fill="#D0D0D0"/>
<path d="M42.3514 30.6893L39.6639 32.2479V33.3866L42.3514 31.823C42.5302 31.7421 42.6845 31.6153 42.7984 31.4554C42.9123 31.2956 42.9819 31.1084 43 30.9129V29.7742C42.9803 29.9698 42.9102 30.157 42.7965 30.3174C42.6828 30.4778 42.5294 30.6059 42.3514 30.6893Z" fill="#ACACAC"/>
<path d="M39.6574 32.2528L28.387 38.8046C27.8971 39.0534 27.3555 39.1831 26.8061 39.1831C26.2568 39.1831 25.7151 39.0534 25.2253 38.8046L3.69149 26.3715C2.81759 25.8692 2.81256 25.0456 3.69149 24.5383L14.9619 17.989L39.6574 32.2528Z" fill="white"/>
<path d="M3.69134 26.3716C3.50276 26.2868 3.34145 26.1513 3.2254 25.9802C3.10935 25.8091 3.04313 25.6091 3.03414 25.4026L3 26.586C3 26.9175 3.21871 27.2515 3.66116 27.5077L4.05585 27.7362L25.2186 39.9407C25.709 40.1896 26.2512 40.3192 26.8012 40.3192C27.3511 40.3192 27.8933 40.1896 28.3837 39.9407L39.664 33.3915V32.2539L28.3837 38.8057C27.8929 39.0547 27.3503 39.1845 26.8 39.1845C26.2496 39.1845 25.707 39.0547 25.2162 38.8057L25.078 38.7253L3.69134 26.3716Z" fill="#DCDCDC"/>
<path d="M20.9484 3.87616L17.7199 5.75232L14.4703 3.87616L17.6989 2L20.9484 3.87616Z" fill="#45CAF2"/>
<path fill-rule="evenodd" clip-rule="evenodd" d="M21.0074 30.7657L20.959 3.87622L17.7095 5.75238V32.6253L21.0074 30.7657ZM17.7095 32.6253V5.75244L14.4599 3.87628L14.4113 30.7658L17.7095 32.6253Z" fill="url(#paint0_linear)"/>
<path fill-rule="evenodd" clip-rule="evenodd" d="M26.9387 29.5309V12.1894L23.9818 10.4824L23.9376 27.8388L26.9387 29.5309ZM29.9395 27.8388L29.8956 10.4824L26.9387 12.1894V29.5309L29.9395 27.8388Z" fill="url(#paint1_linear)"/>
<path d="M25.8956 16.7072L22.667 18.5834L19.4175 16.7072L22.6458 14.8311L25.8956 16.7072Z" fill="#50E6FF"/>
<path fill-rule="evenodd" clip-rule="evenodd" d="M25.9544 33.7986L25.9061 16.7073L22.6565 18.5834V18.5835L19.4068 16.7074L19.3584 33.7988L22.6566 35.6583V35.6581L25.9544 33.7986Z" fill="url(#paint2_linear)"/>
<path d="M29.886 10.4824L26.9482 12.1894L23.9913 10.4824L26.9291 8.77515L29.886 10.4824Z" fill="white"/>
<path d="M15.4036 27.3259C15.4057 27.3052 15.408 27.2846 15.4101 27.2639C15.408 27.2846 15.4056 27.3052 15.4036 27.3259Z" fill="#0078D4"/>
<path d="M3.88 36.7854L3.88808 36.7837L3.88009 36.7855L3.88 36.7854Z" fill="#0078D4"/>
<path d="M10.2882 32.9835L11.2796 32.4072L11.3258 32.447L10.3344 33.0233L10.2882 32.9835Z" fill="#0078D4"/>
<defs>
<linearGradient id="paint0_linear" x1="14.3835" y1="19.1264" x2="21.8052" y2="19.1855" gradientUnits="userSpaceOnUse">
<stop offset="0.151986" stop-color="#45CAF2"/>
<stop offset="1" stop-color="#32B0E7"/>
</linearGradient>
<linearGradient id="paint1_linear" x1="24.1609" y1="18.9633" x2="30.0143" y2="18.9633" gradientUnits="userSpaceOnUse">
<stop stop-color="white"/>
<stop offset="1" stop-color="#DCDCDC"/>
</linearGradient>
<linearGradient id="paint2_linear" x1="19.2949" y1="24.5215" x2="25.8623" y2="24.5215" gradientUnits="userSpaceOnUse">
<stop stop-color="#50E6FF"/>
<stop offset="1" stop-color="#45CAF2"/>
</linearGradient>
</defs>
</svg>
