<svg width="46" height="46" viewBox="0 0 46 46" fill="none" xmlns="http://www.w3.org/2000/svg">
<path d="M42.3408 28.8662C43.2172 29.3685 43.2222 30.1922 42.3408 30.6969L39.6563 32.2564L14.9508 17.9926L17.6353 16.4332C18.1247 16.1844 18.6659 16.0547 19.2149 16.0547C19.7639 16.0547 20.3051 16.1844 20.7945 16.4332L42.3408 28.8662Z" fill="#D0D0D0"/>
<path d="M42.3514 30.6895L39.6639 32.2481V33.3869L42.3514 31.8232C42.5302 31.7423 42.6845 31.6155 42.7984 31.4557C42.9123 31.2958 42.9819 31.1086 43 30.9132V29.7744C42.9803 29.97 42.9102 30.1572 42.7965 30.3176C42.6828 30.478 42.5294 30.6062 42.3514 30.6895Z" fill="#ACACAC"/>
<path d="M39.6574 32.253L28.387 38.8048C27.8971 39.0536 27.3555 39.1833 26.8061 39.1833C26.2568 39.1833 25.7151 39.0536 25.2253 38.8048L3.69149 26.3717C2.81759 25.8695 2.81256 25.0458 3.69149 24.5385L14.9619 17.9893L39.6574 32.253Z" fill="white"/>
<path d="M3.69134 26.3718C3.50276 26.2871 3.34145 26.1516 3.2254 25.9805C3.10935 25.8094 3.04313 25.6094 3.03414 25.4028L3 26.5863C3 26.9177 3.21871 27.2517 3.66116 27.5079L4.05585 27.7364L25.2186 39.941C25.709 40.1898 26.2512 40.3195 26.8012 40.3195C27.3511 40.3195 27.8933 40.1898 28.3837 39.941L39.664 33.3917V32.2541L28.3837 38.8059C27.8929 39.0549 27.3503 39.1847 26.8 39.1847C26.2496 39.1847 25.707 39.0549 25.2162 38.8059L25.078 38.7256L3.69134 26.3718Z" fill="#DCDCDC"/>
<path d="M20.9484 3.87616L17.7199 5.75232L14.4703 3.87616L17.6989 2L20.9484 3.87616Z" fill="#45CAF2"/>
<path fill-rule="evenodd" clip-rule="evenodd" d="M21.0074 30.766L20.959 3.87646L17.7095 5.75262V32.6255L21.0074 30.766ZM17.7095 32.6256V5.75268L14.4599 3.87652L14.4113 30.766L17.7095 32.6256Z" fill="url(#paint0_linear)"/>
<path fill-rule="evenodd" clip-rule="evenodd" d="M26.9387 29.5309V12.1894L23.9818 10.4824L23.9376 27.8388L26.9387 29.5309ZM29.9395 27.8388L29.8956 10.4824L26.9387 12.1894V29.5309L29.9395 27.8388Z" fill="url(#paint1_linear)"/>
<path d="M25.8956 16.7072L22.667 18.5834L19.4175 16.7072L22.6458 14.8311L25.8956 16.7072Z" fill="#50E6FF"/>
<path fill-rule="evenodd" clip-rule="evenodd" d="M25.9544 33.7984L25.9061 16.707L22.6565 18.5832V18.5833L19.4068 16.7072L19.3584 33.7985L22.6566 35.6581V35.6579L25.9544 33.7984Z" fill="url(#paint2_linear)"/>
<path d="M29.8946 11.7073L26.9569 13.4143L24 11.7073L26.9378 10L29.8946 11.7073Z" fill="white"/>
<path d="M15.4036 27.3256C15.4057 27.3049 15.408 27.2844 15.4101 27.2637C15.408 27.2844 15.4056 27.3049 15.4036 27.3256Z" fill="#0078D4"/>
<path d="M3.88 36.7854L3.88808 36.7837L3.88009 36.7855L3.88 36.7854Z" fill="#0078D4"/>
<path d="M10.2882 32.9835L11.2796 32.4072L11.3258 32.447L10.3344 33.0233L10.2882 32.9835Z" fill="#0078D4"/>
<defs>
<linearGradient id="paint0_linear" x1="14.3835" y1="19.1267" x2="21.8052" y2="19.1858" gradientUnits="userSpaceOnUse">
<stop offset="0.151986" stop-color="#45CAF2"/>
<stop offset="1" stop-color="#32B0E7"/>
</linearGradient>
<linearGradient id="paint1_linear" x1="24.1609" y1="18.9633" x2="30.0143" y2="18.9633" gradientUnits="userSpaceOnUse">
<stop stop-color="white"/>
<stop offset="1" stop-color="#DCDCDC"/>
</linearGradient>
<linearGradient id="paint2_linear" x1="19.2949" y1="24.5212" x2="25.8623" y2="24.5212" gradientUnits="userSpaceOnUse">
<stop stop-color="#50E6FF"/>
<stop offset="1" stop-color="#45CAF2"/>
</linearGradient>
</defs>
</svg>
