<svg width="47" height="47" viewBox="0 0 47 47" fill="none" xmlns="http://www.w3.org/2000/svg">
<path d="M38.1875 20.5625C39.3962 20.5625 40.536 20.792 41.6069 21.251C42.6779 21.71 43.6112 22.3372 44.4067 23.1328C45.2023 23.9284 45.8296 24.8693 46.2886 25.9556C46.7476 27.0418 46.9771 28.1816 46.9771 29.375C46.9771 30.599 46.7476 31.7388 46.2886 32.7944C45.8296 33.8501 45.2023 34.7834 44.4067 35.5942C43.6112 36.4051 42.6779 37.04 41.6069 37.499C40.536 37.958 39.3962 38.1875 38.1875 38.1875C37.2695 38.1875 36.3822 38.0498 35.5254 37.7744C34.6686 37.499 33.8577 37.0859 33.0928 36.5352L23.064 46.564C22.7733 46.8547 22.429 47 22.0312 47C21.6335 47 21.2892 46.8547 20.9985 46.564C20.7078 46.2733 20.5625 45.929 20.5625 45.5312C20.5625 45.1335 20.7078 44.7892 20.9985 44.4985L31.0273 34.4697C30.4919 33.7201 30.0864 32.9168 29.811 32.0601C29.5356 31.2033 29.3903 30.3083 29.375 29.375C29.375 28.1663 29.6045 27.0265 30.0635 25.9556C30.5225 24.8846 31.1497 23.9513 31.9453 23.1558C32.7409 22.3602 33.6742 21.7253 34.7451 21.251C35.8161 20.7767 36.9635 20.5472 38.1875 20.5625ZM38.1875 35.25C38.9984 35.25 39.7557 35.097 40.4595 34.791C41.1632 34.485 41.7905 34.0643 42.3413 33.5288C42.8921 32.9933 43.3128 32.3737 43.6035 31.6699C43.8942 30.9661 44.0472 30.2012 44.0625 29.375C44.0625 28.5641 43.9095 27.8068 43.6035 27.103C43.2975 26.3993 42.8768 25.772 42.3413 25.2212C41.8058 24.6704 41.1862 24.2497 40.4824 23.959C39.7786 23.6683 39.0137 23.5153 38.1875 23.5C37.3766 23.5 36.6193 23.653 35.9155 23.959C35.2118 24.265 34.5845 24.6857 34.0337 25.2212C33.4829 25.7567 33.0622 26.3763 32.7715 27.0801C32.4808 27.7839 32.3278 28.5488 32.3125 29.375C32.3125 30.1859 32.4655 30.9432 32.7715 31.647C33.0775 32.3507 33.4982 32.978 34.0337 33.5288C34.5692 34.0796 35.1888 34.5003 35.8926 34.791C36.5964 35.0817 37.3613 35.2347 38.1875 35.25ZM26.4375 35.25H11.75C10.1283 35.25 8.60595 34.944 7.1831 34.332C5.76025 33.7201 4.52099 32.8786 3.46533 31.8076C2.40967 30.7367 1.56819 29.4897 0.940915 28.0669C0.313636 26.644 0.00764683 25.1217 0.0229463 23.5C0.0229463 21.8783 0.328936 20.356 0.940915 18.9331C1.55289 17.5103 2.38672 16.271 3.44238 15.2153C4.49804 14.1597 5.74495 13.3182 7.1831 12.6909C8.62125 12.0636 10.1436 11.75 11.75 11.75C12.4538 11.75 13.1652 11.8188 13.8843 11.9565C14.4963 11.0233 15.2077 10.1818 16.0186 9.43213C16.8294 8.68245 17.7091 8.04753 18.6577 7.52734C19.6063 7.00716 20.616 6.60173 21.687 6.31104C22.758 6.02035 23.8519 5.875 24.9687 5.875C26.6517 5.875 28.2428 6.17334 29.7422 6.77002C31.2415 7.3667 32.5879 8.19287 33.7812 9.24854C34.9746 10.3042 35.9461 11.5435 36.6958 12.9663C37.4455 14.3892 37.9198 15.9421 38.1187 17.625C37.6138 17.625 37.1165 17.6632 36.627 17.7397C36.1374 17.8162 35.6401 17.931 35.1353 18.084C35.0129 16.7682 34.661 15.5443 34.0796 14.4121C33.4982 13.2799 32.7562 12.3008 31.8535 11.4746C30.9508 10.6484 29.9028 9.99821 28.7095 9.52393C27.5161 9.04964 26.2692 8.8125 24.9687 8.8125C23.8978 8.8125 22.8651 8.97314 21.8706 9.29443C20.8761 9.61572 19.9658 10.0671 19.1396 10.6484C18.3135 11.2298 17.5715 11.9259 16.9136 12.7368C16.2557 13.5477 15.7432 14.4657 15.376 15.4907C14.2285 14.9552 13.0199 14.6875 11.75 14.6875C10.526 14.6875 9.38623 14.917 8.33056 15.376C7.2749 15.835 6.34163 16.4622 5.53076 17.2578C4.71989 18.0534 4.08496 18.9943 3.62597 20.0806C3.16699 21.1668 2.9375 22.3066 2.9375 23.5C2.9375 24.724 3.16699 25.8638 3.62597 26.9194C4.08496 27.9751 4.71224 28.9084 5.50781 29.7192C6.30338 30.5301 7.23665 31.165 8.30761 31.624C9.37858 32.083 10.526 32.3125 11.75 32.3125H26.4375V35.25Z" fill="url(#paint0_linear_505:2028)"/>
<defs>
<linearGradient id="paint0_linear_505:2028" x1="23.4126" y1="5.88929" x2="23.4126" y2="46.8529" gradientUnits="userSpaceOnUse">
<stop stop-color="#32D4F5"/>
<stop offset="0.177083" stop-color="#31D0F1"/>
<stop offset="0.333333" stop-color="#2CC3E6"/>
<stop offset="0.494792" stop-color="#25AFD4"/>
<stop offset="0.8125" stop-color="#1C92BA"/>
<stop offset="1" stop-color="#198AB3"/>
</linearGradient>
</defs>
</svg>
