<svg width="47" height="41" viewBox="0 0 47 41" fill="none" xmlns="http://www.w3.org/2000/svg">
<path d="M38.202 14.6429C39.4118 14.6429 40.5527 14.8717 41.6247 15.3292C42.6967 15.7868 43.6309 16.4122 44.4272 17.2054C45.2235 17.9985 45.8514 18.9366 46.3109 20.0195C46.7703 21.1025 47 22.2388 47 23.4286C47 24.6488 46.7703 25.7852 46.3109 26.8376C45.8514 27.8901 45.2235 28.8205 44.4272 29.6289C43.6309 30.4373 42.6967 31.0703 41.6247 31.5279C40.5527 31.9855 39.4118 32.2143 38.202 32.2143C37.2831 32.2143 36.3949 32.077 35.5373 31.8025C34.6797 31.5279 33.868 31.1161 33.1023 30.567L23.0638 40.5653C22.7728 40.8551 22.4283 41 22.0301 41C21.6319 41 21.2874 40.8551 20.9964 40.5653C20.7054 40.2755 20.5599 39.9323 20.5599 39.5357C20.5599 39.1391 20.7054 38.7959 20.9964 38.5061L31.0349 28.5078C30.4989 27.7604 30.0931 26.9596 29.8174 26.1055C29.5417 25.2513 29.3963 24.359 29.3809 23.4286C29.3809 22.2236 29.6107 21.0872 30.0701 20.0195C30.5295 18.9518 31.1574 18.0214 31.9537 17.2282C32.7501 16.4351 33.6843 15.8021 34.7563 15.3292C35.8282 14.8564 36.9768 14.6276 38.202 14.6429ZM38.202 29.2857C39.0136 29.2857 39.7717 29.1332 40.4761 28.8281C41.1806 28.5231 41.8085 28.1036 42.3598 27.5698C42.9111 27.0359 43.3322 26.4182 43.6232 25.7165C43.9142 25.0149 44.0673 24.2522 44.0826 23.4286C44.0826 22.6202 43.9295 21.8651 43.6232 21.1635C43.3169 20.4619 42.8958 19.8365 42.3598 19.2874C41.8238 18.7383 41.2036 18.3188 40.4991 18.029C39.7946 17.7392 39.0289 17.5867 38.202 17.5714C37.3903 17.5714 36.6322 17.724 35.9278 18.029C35.2233 18.3341 34.5955 18.7535 34.0441 19.2874C33.4928 19.8212 33.0717 20.439 32.7807 21.1406C32.4897 21.8423 32.3366 22.6049 32.3213 23.4286C32.3213 24.237 32.4744 24.992 32.7807 25.6936C33.087 26.3953 33.5081 27.0206 34.0441 27.5698C34.5801 28.1189 35.2004 28.5383 35.9048 28.8281C36.6093 29.1179 37.375 29.2705 38.202 29.2857ZM26.4406 29.2857H11.7389C10.1156 29.2857 8.59184 28.9807 7.16762 28.3705C5.74339 27.7604 4.50294 26.9215 3.44625 25.8538C2.38957 24.7861 1.54729 23.543 0.919402 22.1244C0.291518 20.7059 -0.0147673 19.1882 0.000546938 17.5714C0.000546938 15.9546 0.306832 14.4369 0.919402 13.0184C1.53197 11.5999 2.3666 10.3644 3.42328 9.31194C4.47997 8.25949 5.72808 7.42057 7.16762 6.7952C8.60716 6.16983 10.1309 5.85714 11.7389 5.85714C12.4434 5.85714 13.1555 5.92578 13.8753 6.06306C14.4878 5.13263 15.1999 4.29371 16.0116 3.54632C16.8233 2.79892 17.7038 2.16592 18.6533 1.64732C19.6028 1.12872 20.6135 0.724516 21.6855 0.43471C22.7575 0.144903 23.8525 0 24.9704 0C26.655 0 28.2477 0.297433 29.7485 0.892299C31.2493 1.48717 32.5969 2.31083 33.7915 3.36328C34.986 4.41574 35.9584 5.65123 36.7088 7.06975C37.4592 8.48828 37.934 10.0365 38.133 11.7143C37.6277 11.7143 37.13 11.7524 36.6399 11.8287C36.1498 11.9049 35.6521 12.0193 35.1468 12.1719C35.0243 10.8601 34.672 9.63988 34.0901 8.51116C33.5081 7.38244 32.7654 6.40625 31.8619 5.58259C30.9583 4.75893 29.9093 4.11068 28.7148 3.63783C27.5203 3.16499 26.2722 2.92857 24.9704 2.92857C23.8984 2.92857 22.8647 3.08873 21.8693 3.40904C20.8739 3.72935 19.9627 4.17932 19.1357 4.75893C18.3087 5.33854 17.566 6.03255 16.9075 6.84096C16.249 7.64937 15.7359 8.56455 15.3684 9.5865C14.2198 9.05264 13.01 8.78571 11.7389 8.78571C10.5138 8.78571 9.37287 9.01451 8.31619 9.4721C7.2595 9.92969 6.32533 10.5551 5.51368 11.3482C4.70202 12.1414 4.06648 13.0794 3.60705 14.1624C3.14763 15.2453 2.91791 16.3817 2.91791 17.5714C2.91791 18.7917 3.14763 19.928 3.60705 20.9805C4.06648 22.0329 4.69437 22.9634 5.49071 23.7718C6.28705 24.5802 7.22122 25.2132 8.29322 25.6708C9.36521 26.1283 10.5138 26.3571 11.7389 26.3571H26.4406V29.2857Z" fill="url(#paint0_linear_501:2029)"/>
<defs>
<linearGradient id="paint0_linear_501:2029" x1="23.4128" y1="0.0142495" x2="23.4128" y2="40.8533" gradientUnits="userSpaceOnUse">
<stop stop-color="#32D4F5"/>
<stop offset="0.177083" stop-color="#31D0F1"/>
<stop offset="0.333333" stop-color="#2CC3E6"/>
<stop offset="0.494792" stop-color="#25AFD4"/>
<stop offset="0.8125" stop-color="#1C92BA"/>
<stop offset="1" stop-color="#198AB3"/>
</linearGradient>
</defs>
</svg>
