<svg width="34" height="30" viewBox="0 0 34 30" fill="none" xmlns="http://www.w3.org/2000/svg">
<path d="M27.6355 10.7143C28.5107 10.7143 29.336 10.8817 30.1115 11.2165C30.887 11.5513 31.5628 12.0089 32.1388 12.5893C32.7149 13.1696 33.1691 13.856 33.5015 14.6484C33.8338 15.4408 34 16.2723 34 17.1429C34 18.0357 33.8338 18.8672 33.5015 19.6373C33.1691 20.4074 32.7149 21.0882 32.1388 21.6797C31.5628 22.2712 30.887 22.7344 30.1115 23.0692C29.336 23.404 28.5107 23.5714 27.6355 23.5714C26.9708 23.5714 26.3282 23.471 25.7078 23.2701C25.0874 23.0692 24.5003 22.7679 23.9464 22.3661L16.6845 29.6819C16.474 29.894 16.2247 30 15.9367 30C15.6486 30 15.3994 29.894 15.1889 29.6819C14.9784 29.4699 14.8731 29.2187 14.8731 28.9286C14.8731 28.6384 14.9784 28.3873 15.1889 28.1752L22.4508 20.8594C22.063 20.3125 21.7694 19.7266 21.57 19.1016C21.3706 18.4766 21.2654 17.8237 21.2543 17.1429C21.2543 16.2612 21.4205 15.4297 21.7528 14.6484C22.0852 13.8672 22.5394 13.1864 23.1155 12.606C23.6916 12.0257 24.3673 11.5625 25.1428 11.2165C25.9183 10.8705 26.7492 10.7031 27.6355 10.7143ZM27.6355 21.4286C28.2226 21.4286 28.771 21.317 29.2806 21.0937C29.7902 20.8705 30.2444 20.5636 30.6432 20.173C31.0421 19.7824 31.3467 19.3304 31.5572 18.817C31.7677 18.3036 31.8785 17.7455 31.8896 17.1429C31.8896 16.5513 31.7788 15.9989 31.5572 15.4855C31.3356 14.9721 31.031 14.5145 30.6432 14.1127C30.2555 13.7109 29.8068 13.404 29.2972 13.192C28.7876 12.9799 28.2337 12.8683 27.6355 12.8571C27.0483 12.8571 26.4999 12.9687 25.9903 13.192C25.4807 13.4152 25.0265 13.7221 24.6277 14.1127C24.2289 14.5033 23.9242 14.9554 23.7137 15.4687C23.5032 15.9821 23.3924 16.5402 23.3814 17.1429C23.3814 17.7344 23.4921 18.2868 23.7137 18.8002C23.9353 19.3136 24.2399 19.7712 24.6277 20.173C25.0154 20.5748 25.4641 20.8817 25.9737 21.0937C26.4833 21.3058 27.0372 21.4174 27.6355 21.4286ZM19.1273 21.4286H8.49199C7.31768 21.4286 6.21538 21.2054 5.18509 20.7589C4.1548 20.3125 3.25744 19.6987 2.49304 18.9174C1.72863 18.1362 1.11931 17.2266 0.6651 16.1886C0.210885 15.1507 -0.0106827 14.0402 0.000395657 12.8571C0.000395657 11.6741 0.221964 10.5636 0.6651 9.52567C1.10824 8.48772 1.71201 7.58371 2.47642 6.81362C3.24083 6.04353 4.14372 5.42969 5.18509 4.9721C6.22646 4.51451 7.32876 4.28571 8.49199 4.28571C9.00159 4.28571 9.51674 4.33594 10.0374 4.43638C10.4806 3.75558 10.9957 3.14174 11.5829 2.59487C12.17 2.04799 12.807 1.58482 13.4939 1.20536C14.1807 0.825893 14.9119 0.530134 15.6874 0.31808C16.4629 0.106027 17.255 0 18.0637 0C19.2823 0 20.4345 0.217634 21.5202 0.652902C22.6059 1.08817 23.5808 1.69085 24.4449 2.46094C25.309 3.23103 26.0125 4.13504 26.5553 5.17299C27.0982 6.21094 27.4416 7.34375 27.5856 8.57143C27.22 8.57143 26.86 8.59933 26.5055 8.65513C26.151 8.71094 25.7909 8.79464 25.4253 8.90625C25.3367 7.94643 25.0819 7.05357 24.6609 6.22768C24.2399 5.40179 23.7026 4.6875 23.049 4.08482C22.3954 3.48214 21.6365 3.00781 20.7724 2.66183C19.9083 2.31585 19.0054 2.14286 18.0637 2.14286C17.2882 2.14286 16.5404 2.26004 15.8203 2.49442C15.1003 2.72879 14.4411 3.05804 13.8429 3.48214C13.2446 3.90625 12.7073 4.41406 12.2309 5.00558C11.7546 5.5971 11.3835 6.26674 11.1176 7.01451C10.2867 6.62388 9.4115 6.42857 8.49199 6.42857C7.60572 6.42857 6.78038 6.59598 6.01597 6.9308C5.25156 7.26562 4.57577 7.72321 3.98862 8.30357C3.40146 8.88393 2.94171 9.57031 2.60936 10.3627C2.27701 11.1551 2.11083 11.9866 2.11083 12.8571C2.11083 13.75 2.27701 14.5815 2.60936 15.3516C2.94171 16.1217 3.39592 16.8025 3.972 17.394C4.54808 17.9855 5.22386 18.4487 5.99935 18.7835C6.77484 19.1183 7.60572 19.2857 8.49199 19.2857H19.1273V21.4286Z" fill="url(#paint0_linear_501:2029)"/>
<defs>
<linearGradient id="paint0_linear_501:2029" x1="16.9369" y1="0.0104265" x2="16.9369" y2="29.8927" gradientUnits="userSpaceOnUse">
<stop stop-color="#32D4F5"/>
<stop offset="0.177083" stop-color="#31D0F1"/>
<stop offset="0.333333" stop-color="#2CC3E6"/>
<stop offset="0.494792" stop-color="#25AFD4"/>
<stop offset="0.8125" stop-color="#1C92BA"/>
<stop offset="1" stop-color="#198AB3"/>
</linearGradient>
</defs>
</svg>
