<svg width="46" height="46" viewBox="0 0 46 46" fill="none" xmlns="http://www.w3.org/2000/svg">
<path d="M34.8111 20.1819L37.8364 18.417L37.7943 41.2353L34.7268 43.0002L34.8111 20.1819Z" fill="#45CAF2"/>
<path d="M34.76 42.939L9 28.0632L9.04214 7.72363L34.8022 22.6L34.76 42.939Z" fill="#50E6FF"/>
<path d="M9.05103 4.71729L34.8111 19.5937L34.8011 22.6175L9.05103 7.78476V4.71729ZM13.0431 9.38172C13.4205 9.59179 13.7155 9.42386 13.7155 9.00434C13.7029 8.7754 13.6353 8.55289 13.5182 8.35576C13.4011 8.15863 13.2381 7.99272 13.0431 7.87219C12.6657 7.66212 12.3707 7.83005 12.3707 8.24957C12.4006 8.4739 12.4755 8.68986 12.5911 8.88443C12.7066 9.07901 12.8604 9.24817 13.0431 9.38172ZM11.026 8.20555C11.4034 8.41562 11.6984 8.24706 11.6984 7.82816C11.6858 7.59923 11.6182 7.37672 11.5011 7.17959C11.384 6.98245 11.221 6.81655 11.026 6.69602C10.6486 6.48594 10.3536 6.65451 10.3536 7.0734C10.366 7.30236 10.4337 7.52492 10.5507 7.72206C10.6678 7.91921 10.8309 8.08509 11.026 8.20555ZM15.1438 10.6007C15.5212 10.8107 15.8162 10.6428 15.8162 10.2233C15.8039 9.99429 15.7363 9.7717 15.6192 9.57453C15.5021 9.37737 15.339 9.2115 15.1438 9.09113C14.7665 8.88106 14.4715 9.04899 14.4715 9.46851C14.484 9.69745 14.5517 9.91996 14.6687 10.1171C14.7858 10.3142 14.9488 10.4801 15.1438 10.6007ZM34.8111 19.5949L37.8364 17.83V20.8975L34.8011 22.6175L34.8111 19.5949Z" fill="#ACF3FD"/>
<path d="M9.05103 4.76489L12.0764 3L37.8364 17.8342L34.8111 19.5991L9.05103 4.76489Z" fill="#84ECFD"/>
<path d="M11.0261 6.69193C11.2212 6.81246 11.3842 6.97836 11.5012 7.17549C11.6183 7.37263 11.686 7.59514 11.6985 7.82407C11.6985 8.24422 11.4041 8.41279 11.0261 8.20146C10.8311 8.08092 10.6681 7.91502 10.551 7.71789C10.4339 7.52076 10.3663 7.29825 10.3538 7.06931C10.3538 6.65042 10.6481 6.48185 11.0261 6.69193ZM13.0432 7.86873C13.2383 7.98926 13.4013 8.15517 13.5183 8.3523C13.6354 8.54943 13.7031 8.77194 13.7156 9.00087C13.7156 9.42103 13.4212 9.58896 13.0432 9.37826C12.8482 9.25772 12.6852 9.09182 12.5681 8.89469C12.451 8.69756 12.3834 8.47505 12.3709 8.24611C12.413 7.82659 12.7067 7.65866 13.0432 7.86873ZM15.1446 9.08767C15.3397 9.20817 15.5027 9.37406 15.6198 9.5712C15.7369 9.76834 15.8045 9.99087 15.817 10.2198C15.817 10.64 15.5226 10.8079 15.1446 10.5972C14.9495 10.4767 14.7864 10.3109 14.6694 10.1137C14.5523 9.91657 14.4846 9.69401 14.4722 9.46505C14.4722 9.04553 14.766 8.8776 15.1446 9.08767ZM17.7095 18.2486L18.6763 19.9292L15.5245 21.7362L18.6341 27.1573L17.6674 27.7039L13.5477 20.6016L17.7095 18.2486ZM25.988 23.0388L30.0644 30.099L25.9459 32.4941L24.9779 30.8154L28.1297 29.0084L25.0194 23.5873L25.988 23.0388Z" fill="#0078D4"/>
<path d="M22.7839 19.9346L23.589 20.5258L23.7902 20.9202L20.5699 30.383H20.1674L19.5636 29.5943L19.3623 29.3974L22.5826 19.9346H22.7839Z" fill="#D5F9FD"/>
</svg>
