<svg width="46" height="46" viewBox="0 0 46 46" fill="none" xmlns="http://www.w3.org/2000/svg">
<rect width="46" height="46" fill="white"/>
<path d="M34.8111 20.1816L37.8364 18.4167L37.7943 41.2351L34.7268 43L34.8111 20.1816Z" fill="#45CAF2"/>
<path d="M34.76 42.9392L9 28.0635L9.04214 7.72388L34.8022 22.6002L34.76 42.9392Z" fill="#50E6FF"/>
<path d="M9.05103 4.71729L34.8111 19.5937L34.8011 22.6175L9.05103 7.78476V4.71729ZM13.0431 9.38172C13.4205 9.59179 13.7155 9.42386 13.7155 9.00434C13.7029 8.7754 13.6353 8.55289 13.5182 8.35576C13.4011 8.15863 13.2381 7.99272 13.0431 7.87219C12.6657 7.66212 12.3707 7.83005 12.3707 8.24957C12.4006 8.4739 12.4755 8.68986 12.5911 8.88443C12.7066 9.07901 12.8604 9.24817 13.0431 9.38172ZM11.026 8.20555C11.4034 8.41562 11.6984 8.24706 11.6984 7.82816C11.6858 7.59923 11.6182 7.37672 11.5011 7.17959C11.384 6.98245 11.221 6.81655 11.026 6.69602C10.6486 6.48594 10.3536 6.65451 10.3536 7.0734C10.366 7.30236 10.4337 7.52492 10.5507 7.72206C10.6678 7.91921 10.8309 8.08509 11.026 8.20555ZM15.1438 10.6007C15.5212 10.8107 15.8162 10.6428 15.8162 10.2233C15.8039 9.99429 15.7363 9.7717 15.6192 9.57453C15.5021 9.37737 15.339 9.2115 15.1438 9.09113C14.7665 8.88106 14.4715 9.04899 14.4715 9.46851C14.484 9.69745 14.5517 9.91996 14.6687 10.1171C14.7858 10.3142 14.9488 10.4801 15.1438 10.6007ZM34.8111 19.5949L37.8364 17.83V20.8975L34.8011 22.6175L34.8111 19.5949Z" fill="#ACF3FD"/>
<path d="M9.05103 4.76489L12.0764 3L37.8364 17.8342L34.8111 19.5991L9.05103 4.76489Z" fill="#84ECFD"/>
<path d="M11.0261 6.69217C11.2212 6.81271 11.3842 6.97861 11.5012 7.17574C11.6183 7.37287 11.686 7.59538 11.6985 7.82432C11.6985 8.24447 11.4041 8.41303 11.0261 8.2017C10.8311 8.08117 10.6681 7.91527 10.551 7.71814C10.4339 7.521 10.3663 7.29849 10.3538 7.06956C10.3538 6.65066 10.6481 6.4821 11.0261 6.69217ZM13.0432 7.86898C13.2383 7.98951 13.4013 8.15541 13.5183 8.35254C13.6354 8.54967 13.7031 8.77219 13.7156 9.00112C13.7156 9.42127 13.4212 9.5892 13.0432 9.3785C12.8482 9.25797 12.6852 9.09207 12.5681 8.89493C12.451 8.6978 12.3834 8.47529 12.3709 8.24636C12.413 7.82683 12.7067 7.6589 13.0432 7.86898ZM15.1446 9.08792C15.3397 9.20841 15.5027 9.3743 15.6198 9.57144C15.7369 9.76858 15.8045 9.99111 15.817 10.2201C15.817 10.6402 15.5226 10.8081 15.1446 10.5974C14.9495 10.477 14.7864 10.3111 14.6694 10.114C14.5523 9.91681 14.4846 9.69426 14.4722 9.4653C14.4722 9.04578 14.766 8.87784 15.1446 9.08792ZM17.7095 18.2488L18.6763 19.9294L15.5245 21.7365L18.6341 27.1576L17.6674 27.7041L13.5477 20.6018L17.7095 18.2488ZM25.988 23.0391L30.0644 30.0992L25.9459 32.4944L24.9779 30.8156L28.1297 29.0086L25.0194 23.5875L25.988 23.0391Z" fill="#0078D4"/>
<path d="M22.7839 19.9343L23.589 20.5256L23.7902 20.9199L20.5699 30.3828H20.1674L19.5636 29.594L19.3623 29.3972L22.5826 19.9343H22.7839Z" fill="#D5F9FD"/>
</svg>
