<svg xmlns="http://www.w3.org/2000/svg" class="fxs-portal-svg" id="FxSymbol0-067" role="presentation" viewBox="0 0 50 50" focusable="false" xmlns:xlink="http://www.w3.org/1999/xlink" data-type="14" xmlns:svg="http://www.w3.org/2000/svg"><g><title/><path class="msportalfx-svg-c02" fill="#e5e5e5" d="M 4 0 h 10.003 v 50 H 4 Z"/><path class="msportalfx-svg-c15" fill="#59b4d9" d="M 6 2 h 5.941 v 46 H 6 Z"/><path class="msportalfx-svg-c01" opacity="0.6" fill="#ffffff" d="M 6 20 h 6.003 v 28 H 6 Z"/><path class="msportalfx-svg-c04" fill="#7a7a7a" d="M 4 18 h 9.999 v 4 H 4 Z"/><path class="msportalfx-svg-c01" opacity="0.7" fill="#ffffff" d="M 4.001 18 h 10 v 2 h -10 Z"/><path class="msportalfx-svg-c02" fill="#e5e5e5" d="M 20 0 h 10.003 v 50 H 20 Z"/><path class="msportalfx-svg-c15" fill="#59b4d9" d="M 22 2 h 5.941 v 46 H 22 Z"/><path class="msportalfx-svg-c01" opacity="0.6" fill="#ffffff" d="M 22.005 36 h 6.003 v 12 h -6.003 Z"/><path class="msportalfx-svg-c04" fill="#7a7a7a" d="M 20 34 h 9.999 v 4 H 20 Z"/><path class="msportalfx-svg-c01" opacity="0.7" fill="#ffffff" d="M 20.001 34 h 10 v 2 h -10 Z"/><path class="msportalfx-svg-c02" fill="#e5e5e5" d="M 36 0 h 10.003 v 50 H 36 Z"/><path class="msportalfx-svg-c15" fill="#59b4d9" d="M 38 2 h 5.941 v 46 H 38 Z"/><path class="msportalfx-svg-c01" opacity="0.6" fill="#ffffff" d="M 38 20 h 6.003 v 28 H 38 Z"/><path class="msportalfx-svg-c04" fill="#7a7a7a" d="M 36 18 h 9.999 v 4 H 36 Z"/><path class="msportalfx-svg-c01" opacity="0.7" fill="#ffffff" d="M 36.001 18 h 10 v 2 h -10 Z"/><path class="msportalfx-svg-c06" opacity="0.2" fill="#1e1e1e" d="M 4.001 22 h 10 v 2 h -10 Z m 31.969 0 h 10 v 2 h -10 Z M 20.007 38 h 10 v 2 h -10 Z"/></g><defs>
<linearGradient id="a" gradientUnits="userSpaceOnUse" gradientTransform="matrix(-1, 0, 0, 1, -1256.13, 0)" x1="-1267.23" y1="3.07" x2="-1267.52" y2="14.64"><stop stop-color="rgb(50, 212, 245)" offset="0"/><stop stop-color="rgb(49, 208, 241)" offset="0.23"/><stop stop-color="rgb(44, 195, 230)" offset="0.46"/><stop stop-color="rgb(37, 175, 212)" offset="0.7"/><stop stop-color="rgb(28, 146, 186)" offset="0.94"/><stop stop-color="rgb(25, 138, 179)" offset="1"/></linearGradient>
<linearGradient id="b" gradientUnits="userSpaceOnUse" x1="6.05" y1="11.51" x2="6.05" y2="3"><stop stop-color="rgb(0, 120, 212)" offset="0"/><stop stop-color="rgb(94, 160, 239)" offset="0.82"/></linearGradient>
<linearGradient id="c" gradientUnits="userSpaceOnUse" x1="10.51" y1="6.82" x2="7.93" y2="10.5"><stop stop-color="rgb(0, 91, 161)" offset="0"/><stop stop-color="rgb(3, 93, 163)" stop-opacity="0.97" offset="0.14"/><stop stop-color="rgb(11, 99, 170)" stop-opacity="0.88" offset="0.3"/><stop stop-color="rgb(25, 110, 182)" stop-opacity="0.73" offset="0.47"/><stop stop-color="rgb(45, 124, 198)" stop-opacity="0.52" offset="0.65"/><stop stop-color="rgb(70, 142, 219)" stop-opacity="0.26" offset="0.84"/><stop stop-color="rgb(94, 160, 239)" stop-opacity="0" offset="1"/></linearGradient>
</defs>
</svg>