<svg width="48" height="24" viewBox="0 0 48 24" fill="none" xmlns="http://www.w3.org/2000/svg">
<path d="M14.2006 2.19067L4.42553 12L14.2006 21.8093L12.0122 24L0 12L12.0122 0L14.2006 2.19067ZM35.9878 0L48 12L35.9878 24L33.7994 21.8093L43.5745 12L33.7994 2.19067L35.9878 0ZM14.6626 8.88438C15.1003 8.88438 15.5056 8.96552 15.8784 9.12779C16.2513 9.29006 16.5755 9.50913 16.8511 9.78499C17.1266 10.0609 17.3536 10.3935 17.5319 10.783C17.7102 11.1724 17.7913 11.5781 17.7751 12C17.7751 12.4381 17.694 12.8438 17.5319 13.217C17.3698 13.5903 17.151 13.9148 16.8754 14.1907C16.5998 14.4665 16.2675 14.6937 15.8784 14.8722C15.4894 15.0507 15.0841 15.1318 14.6626 15.1156C14.2249 15.1156 13.8197 15.0345 13.4468 14.8722C13.074 14.7099 12.7497 14.4909 12.4742 14.215C12.1986 13.9391 11.9716 13.6065 11.7933 13.217C11.615 12.8276 11.5339 12.4219 11.5502 12C11.5502 11.5619 11.6312 11.1562 11.7933 10.783C11.9554 10.4097 12.1743 10.0852 12.4498 9.80933C12.7254 9.53347 13.0578 9.30629 13.4468 9.12779C13.8359 8.94929 14.2411 8.86815 14.6626 8.88438ZM24 8.88438C24.4377 8.88438 24.843 8.96552 25.2158 9.12779C25.5887 9.29006 25.9129 9.50913 26.1885 9.78499C26.464 10.0609 26.691 10.3935 26.8693 10.783C27.0476 11.1724 27.1287 11.5781 27.1125 12C27.1125 12.4381 27.0314 12.8438 26.8693 13.217C26.7072 13.5903 26.4883 13.9148 26.2128 14.1907C25.9372 14.4665 25.6049 14.6937 25.2158 14.8722C24.8267 15.0507 24.4215 15.1318 24 15.1156C23.5623 15.1156 23.157 15.0345 22.7842 14.8722C22.4113 14.7099 22.0871 14.4909 21.8116 14.215C21.536 13.9391 21.309 13.6065 21.1307 13.217C20.9524 12.8276 20.8713 12.4219 20.8875 12C20.8875 11.5619 20.9686 11.1562 21.1307 10.783C21.2928 10.4097 21.5117 10.0852 21.7872 9.80933C22.0628 9.53347 22.3951 9.30629 22.7842 9.12779C23.1733 8.94929 23.5785 8.86815 24 8.88438ZM36.4498 12C36.4498 12.4381 36.3688 12.8438 36.2067 13.217C36.0446 13.5903 35.8257 13.9148 35.5502 14.1907C35.2746 14.4665 34.9422 14.6937 34.5532 14.8722C34.1641 15.0507 33.7589 15.1318 33.3374 15.1156C32.8997 15.1156 32.4944 15.0345 32.1216 14.8722C31.7487 14.7099 31.4245 14.4909 31.1489 14.215C30.8734 13.9391 30.6464 13.6065 30.4681 13.217C30.2898 12.8276 30.2087 12.4219 30.2249 12C30.2249 11.5619 30.306 11.1562 30.4681 10.783C30.6302 10.4097 30.849 10.0852 31.1246 9.80933C31.4002 9.53347 31.7325 9.30629 32.1216 9.12779C32.5106 8.94929 32.9159 8.86815 33.3374 8.88438C33.7751 8.88438 34.1803 8.96552 34.5532 9.12779C34.926 9.29006 35.2503 9.50913 35.5258 9.78499C35.8014 10.0609 36.0284 10.3935 36.2067 10.783C36.385 11.1724 36.4661 11.5781 36.4498 12Z" fill="url(#paint0_linear)"/>
<defs>
<linearGradient id="paint0_linear" x1="23.911" y1="0.00834117" x2="23.911" y2="23.9141" gradientUnits="userSpaceOnUse">
<stop stop-color="#32D4F5"/>
<stop offset="0.177083" stop-color="#31D0F1"/>
<stop offset="0.333333" stop-color="#2CC3E6"/>
<stop offset="0.494792" stop-color="#25AFD4"/>
<stop offset="0.8125" stop-color="#1C92BA"/>
<stop offset="1" stop-color="#198AB3"/>
</linearGradient>
</defs>
</svg>
