<svg width="36" height="36" viewBox="0 0 36 36" fill="none" xmlns="http://www.w3.org/2000/svg">
<path d="M36 34.2178L34.2178 36L29.5644 31.3663C27.9934 32.7261 26.231 33.7954 24.2772 34.5743C22.3234 35.3531 20.231 35.7426 18 35.7426C16.429 35.7426 14.9043 35.5446 13.4257 35.1485C11.9472 34.7525 10.5479 34.1782 9.22772 33.4257C7.90759 32.6733 6.70627 31.7756 5.62376 30.7327C4.54125 29.6898 3.59736 28.495 2.79208 27.1485V33.2079H0.257426V23.0693H10.396V25.604H4.83168C5.50495 26.7789 6.31023 27.835 7.24752 28.7723C8.18482 29.7096 9.22772 30.5016 10.3762 31.1485C11.5248 31.7954 12.7327 32.3036 14 32.6733C15.2673 33.0429 16.6007 33.2211 18 33.2079C19.8614 33.2079 21.6172 32.8911 23.2673 32.2574C24.9175 31.6238 26.4224 30.7261 27.7822 29.5644L6.41584 8.21782C5.58416 9.18152 4.88449 10.2376 4.31683 11.3861C3.74917 12.5347 3.33333 13.769 3.06931 15.0891L0.574257 14.5941C0.877888 13.0231 1.37954 11.5578 2.07921 10.198C2.77888 8.83828 3.63036 7.58416 4.63366 6.43564L0 1.78218L1.78218 0L36 34.2178ZM18 2.79208C16.7195 2.79208 15.4851 2.95049 14.297 3.26733C13.1089 3.58416 11.9802 4.0264 10.9109 4.59406L9.04951 2.71287C10.3828 1.92079 11.7954 1.31353 13.2871 0.891089C14.7789 0.468647 16.3498 0.257426 18 0.257426C19.5578 0.257426 21.0759 0.455446 22.5545 0.851485C24.033 1.24752 25.4257 1.82178 26.7327 2.57426C28.0396 3.32673 29.2475 4.23102 30.3564 5.28713C31.4653 6.34323 32.4158 7.53135 33.2079 8.85149V2.79208H35.7426V12.9307H25.604V10.396H31.1683C30.495 9.23432 29.6898 8.18482 28.7525 7.24752C27.8152 6.31023 26.7723 5.51155 25.6238 4.85149C24.4752 4.19142 23.2607 3.68317 21.9802 3.32673C20.6997 2.9703 19.3729 2.79208 18 2.79208ZM33.3069 26.9703L31.4059 25.0693C31.7492 24.4224 32.0528 23.7624 32.3168 23.0891C32.5809 22.4158 32.7855 21.6964 32.9307 20.9307L35.4059 21.4059C35.2211 22.4224 34.9505 23.3861 34.5941 24.297C34.2376 25.2079 33.8086 26.099 33.3069 26.9703Z" fill="url(#paint0_linear_522:2029)"/>
<defs>
<linearGradient id="paint0_linear_522:2029" x1="17.9332" y1="0.0125118" x2="17.9332" y2="35.8712" gradientUnits="userSpaceOnUse">
<stop stop-color="#32D4F5"/>
<stop offset="0.177083" stop-color="#31D0F1"/>
<stop offset="0.333333" stop-color="#2CC3E6"/>
<stop offset="0.494792" stop-color="#25AFD4"/>
<stop offset="0.8125" stop-color="#1C92BA"/>
<stop offset="1" stop-color="#198AB3"/>
</linearGradient>
</defs>
</svg>
