<svg width="40" height="40" viewBox="0 0 40 40" fill="none" xmlns="http://www.w3.org/2000/svg">
<path d="M40 2.5V35H0V2.5H40ZM2.5 5V7.5H37.5V5H2.5ZM37.5 32.5V10H2.5V32.5H37.5ZM27.1875 15L32.207 27.5H30.4297L25.4102 15H27.1875ZM14.375 16.4844C13.6849 16.4844 13.0599 16.5885 12.5 16.7969C11.9401 17.0052 11.4583 17.3177 11.0547 17.7344C10.651 18.151 10.3385 18.6589 10.1172 19.2578C9.89583 19.8568 9.78516 20.5469 9.78516 21.3281C9.78516 22.0443 9.88281 22.6953 10.0781 23.2812C10.2734 23.8672 10.5664 24.362 10.957 24.7656C11.3477 25.1693 11.8229 25.4883 12.3828 25.7227C12.9427 25.957 13.5807 26.0677 14.2969 26.0547C14.7526 26.0547 15.2018 26.0091 15.6445 25.918C16.0872 25.8268 16.4648 25.7096 16.7773 25.5664L17.0898 26.7773C16.8034 26.9206 16.3932 27.0443 15.8594 27.1484C15.3255 27.2526 14.7005 27.3112 13.9844 27.3242C13.1641 27.3242 12.4023 27.194 11.6992 26.9336C10.9961 26.6732 10.3776 26.2956 9.84375 25.8008C9.3099 25.306 8.90625 24.6875 8.63281 23.9453C8.35938 23.2031 8.20964 22.3503 8.18359 21.3867C8.18359 20.4753 8.33333 19.6419 8.63281 18.8867C8.93229 18.1315 9.34896 17.4805 9.88281 16.9336C10.4167 16.3867 11.0612 15.9635 11.8164 15.6641C12.5716 15.3646 13.4049 15.2148 14.3164 15.2148C15.0586 15.2148 15.6576 15.2734 16.1133 15.3906C16.569 15.5078 16.901 15.625 17.1094 15.7422L16.7383 16.9727C16.4518 16.8294 16.1133 16.7122 15.7227 16.6211C15.332 16.5299 14.8828 16.4844 14.375 16.4844ZM20 17.5H22.5V20H20V17.5ZM20 22.5H22.5V25H20V22.5Z" fill="url(#paint0_linear)"/>
<defs>
<linearGradient id="paint0_linear" x1="19.9258" y1="2.5113" x2="19.9258" y2="34.8837" gradientUnits="userSpaceOnUse">
<stop stop-color="#32D4F5"/>
<stop offset="0.177083" stop-color="#31D0F1"/>
<stop offset="0.333333" stop-color="#2CC3E6"/>
<stop offset="0.494792" stop-color="#25AFD4"/>
<stop offset="0.8125" stop-color="#1C92BA"/>
<stop offset="1" stop-color="#198AB3"/>
</linearGradient>
</defs>
</svg>
