<svg width="46" height="47" viewBox="0 0 46 47" fill="none" xmlns="http://www.w3.org/2000/svg">
<path d="M24.7148 17.9289C20.3249 15.3344 13.2325 15.3344 8.87523 17.9289C6.71084 19.2199 5.61438 20.9078 5.61438 22.5957V18.1754C5.61438 16.4834 6.70269 14.7955 8.87523 13.5045C13.2325 10.91 20.3249 10.91 24.7148 13.5045C26.9199 14.8122 28.0246 16.5293 28.0205 18.2423V22.6626C28.0246 20.9496 26.924 19.2366 24.7148 17.9289Z" fill="#32B0E7"/>
<path opacity="0.4" d="M24.6862 14.8121C20.2963 12.2176 13.2081 12.2176 8.84668 14.8121C4.4853 17.4066 4.51383 21.6222 8.89967 24.2167C13.2855 26.8112 20.3819 26.8154 24.7392 24.2167C29.0965 21.618 29.068 17.4108 24.6862 14.8121Z" fill="#ACF3FD"/>
<path d="M7.01655 12.4096C12.4092 9.19679 21.1727 9.19679 26.5816 12.4096C31.9906 15.6225 32.0354 20.8241 26.6469 24.0327C21.2583 27.2414 12.4907 27.2456 7.08177 24.0327C1.67284 20.8199 1.628 15.6183 7.01655 12.4096ZM24.7189 13.5084C20.329 10.9139 13.2407 10.9139 8.87931 13.5084C4.51793 16.103 4.54238 20.3185 8.9323 22.913C13.3222 25.5075 20.4146 25.5117 24.7719 22.913C29.1292 20.3143 29.1047 16.1071 24.7189 13.5084Z" fill="#45CAF2"/>
<path d="M7.09437 28.3903C4.36341 26.7734 3.01831 24.6552 3.01831 22.5412V18.1167C3.01831 20.2349 4.37564 22.3532 7.09437 23.9658C12.5196 27.1745 21.2872 27.1745 26.6595 23.9658C29.3333 22.3699 30.6784 20.2851 30.6825 18.1961V22.6164C30.6825 24.7053 29.3333 26.7943 26.6595 28.3903C21.2831 31.599 12.5196 31.599 7.09437 28.3903Z" fill="#2195DC"/>
<path d="M31.4526 27.4376C31.4347 27.7868 31.3364 28.1268 31.1656 28.4296C30.9949 28.7325 30.7566 28.9895 30.4702 29.1798C30.3701 29.2529 30.2529 29.2976 30.1305 29.3094C30.0081 29.3211 29.8848 29.2995 29.7732 29.2466L26.5124 27.308C26.4129 27.234 26.3341 27.1344 26.284 27.0192C26.2339 26.9041 26.2143 26.7775 26.227 26.6521C26.2449 26.3028 26.3432 25.9628 26.514 25.66C26.6847 25.3572 26.923 25.1001 27.2094 24.9099C27.3079 24.835 27.4246 24.7892 27.5467 24.7774C27.6689 24.7657 27.7918 24.7883 27.9023 24.843L31.1632 26.7816C31.2637 26.8549 31.3435 26.9543 31.3943 27.0695C31.4452 27.1847 31.4653 27.3117 31.4526 27.4376Z" fill="#156AB3"/>
<path d="M31.3384 26.1259L42.519 32.7522L40.2731 36.7421L29.0762 30.1159C28.9143 29.9968 28.786 29.8358 28.7043 29.6495C28.6227 29.4631 28.5907 29.2579 28.6115 29.0547C28.6407 28.4894 28.8 27.9392 29.0763 27.4491C29.3526 26.959 29.738 26.5428 30.2012 26.2345C30.3633 26.1124 30.5548 26.0377 30.7551 26.0186C30.9554 25.9994 31.1571 26.0365 31.3384 26.1259Z" fill="#2195DC"/>
<path d="M43 33.8134C43 32.7731 42.2867 32.3427 41.4103 32.8608C40.9476 33.1696 40.5625 33.5859 40.2863 34.0759C40.0101 34.5659 39.8505 35.1158 39.8207 35.6809C39.8207 36.7254 40.534 37.1516 41.4103 36.6335C41.8731 36.3248 42.2582 35.9084 42.5344 35.4184C42.8106 34.9284 42.9701 34.3785 43 33.8134Z" fill="#156AB3"/>
</svg>
