<svg width="47" height="47" viewBox="0 0 47 47" fill="none" xmlns="http://www.w3.org/2000/svg">
<g id="ede4-16 1">
<path id="Vector" d="M38.1874 20.5625C39.3961 20.5625 40.5359 20.792 41.6069 21.251C42.6778 21.71 43.6111 22.3372 44.4067 23.1328C45.2023 23.9284 45.8295 24.8693 46.2885 25.9556C46.7475 27.0418 46.977 28.1816 46.977 29.375C46.977 30.599 46.7475 31.7388 46.2885 32.7944C45.8295 33.8501 45.2023 34.7834 44.4067 35.5942C43.6111 36.4051 42.6778 37.04 41.6069 37.499C40.5359 37.958 39.3961 38.1875 38.1874 38.1875C37.2695 38.1875 36.3821 38.0498 35.5253 37.7744C34.6686 37.499 33.8577 37.0859 33.0927 36.5352L23.0639 46.564C22.7732 46.8547 22.429 47 22.0312 47C21.6334 47 21.2892 46.8547 20.9985 46.564C20.7078 46.2733 20.5624 45.929 20.5624 45.5312C20.5624 45.1335 20.7078 44.7892 20.9985 44.4985L31.0273 34.4697C30.4918 33.7201 30.0864 32.9168 29.811 32.0601C29.5356 31.2033 29.3902 30.3083 29.3749 29.375C29.3749 28.1663 29.6044 27.0265 30.0634 25.9556C30.5224 24.8846 31.1497 23.9513 31.9453 23.1558C32.7408 22.3602 33.6741 21.7253 34.7451 21.251C35.816 20.7767 36.9635 20.5472 38.1874 20.5625ZM38.1874 35.25C38.9983 35.25 39.7556 35.097 40.4594 34.791C41.1632 34.485 41.7905 34.0643 42.3412 33.5288C42.892 32.9933 43.3128 32.3737 43.6035 31.6699C43.8941 30.9661 44.0471 30.2012 44.0624 29.375C44.0624 28.5641 43.9094 27.8068 43.6035 27.103C43.2975 26.3993 42.8767 25.772 42.3412 25.2212C41.8058 24.6704 41.1861 24.2497 40.4824 23.959C39.7786 23.6683 39.0136 23.5153 38.1874 23.5C37.3766 23.5 36.6192 23.653 35.9155 23.959C35.2117 24.265 34.5844 24.6857 34.0336 25.2212C33.4828 25.7567 33.0621 26.3763 32.7714 27.0801C32.4807 27.7839 32.3277 28.5488 32.3124 29.375C32.3124 30.1859 32.4654 30.9432 32.7714 31.647C33.0774 32.3507 33.4981 32.978 34.0336 33.5288C34.5691 34.0796 35.1887 34.5003 35.8925 34.791C36.5963 35.0817 37.3613 35.2347 38.1874 35.25ZM26.4374 35.25H11.7499C10.1282 35.25 8.60589 34.944 7.18304 34.332C5.76019 33.7201 4.52093 32.8786 3.46527 31.8076C2.4096 30.7367 1.56813 29.4897 0.940854 28.0669C0.313575 26.644 0.0075858 25.1217 0.0228853 23.5C0.0228853 21.8783 0.328875 20.356 0.940854 18.9331C1.55283 17.5103 2.38665 16.271 3.44232 15.2153C4.49798 14.1597 5.74489 13.3182 7.18304 12.6909C8.62119 12.0636 10.1435 11.75 11.7499 11.75C12.4537 11.75 13.1651 11.8188 13.8842 11.9565C14.4962 11.0233 15.2076 10.1818 16.0185 9.43213C16.8294 8.68245 17.7091 8.04753 18.6577 7.52734C19.6062 7.00716 20.616 6.60173 21.6869 6.31104C22.7579 6.02035 23.8518 5.875 24.9687 5.875C26.6516 5.875 28.2428 6.17334 29.7421 6.77002C31.2415 7.3667 32.5878 8.19287 33.7812 9.24854C34.9745 10.3042 35.9461 11.5435 36.6957 12.9663C37.4454 14.3892 37.9197 15.9421 38.1186 17.625C37.6137 17.625 37.1165 17.6632 36.6269 17.7397C36.1373 17.8162 35.6401 17.931 35.1352 18.084C35.0128 16.7682 34.6609 15.5443 34.0795 14.4121C33.4981 13.2799 32.7561 12.3008 31.8535 11.4746C30.9508 10.6484 29.9028 9.99821 28.7094 9.52393C27.5161 9.04964 26.2691 8.8125 24.9687 8.8125C23.8977 8.8125 22.865 8.97314 21.8705 9.29443C20.8761 9.61572 19.9658 10.0671 19.1396 10.6484C18.3134 11.2298 17.5714 11.9259 16.9135 12.7368C16.2556 13.5477 15.7431 14.4657 15.3759 15.4907C14.2285 14.9552 13.0198 14.6875 11.7499 14.6875C10.526 14.6875 9.38617 14.917 8.3305 15.376C7.27484 15.835 6.34157 16.4622 5.5307 17.2578C4.71983 18.0534 4.0849 18.9943 3.62591 20.0806C3.16693 21.1668 2.93744 22.3066 2.93744 23.5C2.93744 24.724 3.16693 25.8638 3.62591 26.9194C4.0849 27.9751 4.71218 28.9084 5.50775 29.7192C6.30332 30.5301 7.23659 31.165 8.30755 31.624C9.37852 32.083 10.526 32.3125 11.7499 32.3125H26.4374V35.25Z" fill="url(#paint0_linear_505:2028)"/>
</g>
<defs>
<linearGradient id="paint0_linear_505:2028" x1="23.4126" y1="5.88929" x2="23.4126" y2="46.8529" gradientUnits="userSpaceOnUse">
<stop stop-color="#32D4F5"/>
<stop offset="0.177083" stop-color="#31D0F1"/>
<stop offset="0.333333" stop-color="#2CC3E6"/>
<stop offset="0.494792" stop-color="#25AFD4"/>
<stop offset="0.8125" stop-color="#1C92BA"/>
<stop offset="1" stop-color="#198AB3"/>
</linearGradient>
</defs>
</svg>
