<svg width="40" height="34" viewBox="0 0 40 34" fill="none" xmlns="http://www.w3.org/2000/svg">
<path d="M32.5291 12.1429C33.5284 12.1429 34.4707 12.3326 35.3561 12.7121C36.2415 13.0915 37.0131 13.6101 37.6708 14.2679C38.3286 14.9256 38.8472 15.7035 39.2267 16.6016C39.6061 17.4996 39.7958 18.442 39.7958 19.4286C39.7958 20.4405 39.6061 21.3828 39.2267 22.2556C38.8472 23.1283 38.3286 23.8999 37.6708 24.5703C37.0131 25.2407 36.2415 25.7656 35.3561 26.1451C34.4707 26.5246 33.5284 26.7143 32.5291 26.7143C31.7702 26.7143 31.0365 26.6004 30.3282 26.3728C29.6199 26.1451 28.9495 25.8036 28.3171 25.3482L20.0258 33.6395C19.7854 33.8798 19.5008 34 19.172 34C18.8431 34 18.5585 33.8798 18.3182 33.6395C18.0778 33.3992 17.9577 33.1146 17.9577 32.7857C17.9577 32.4568 18.0778 32.1722 18.3182 31.9319L26.6095 23.6406C26.1668 23.0208 25.8316 22.3568 25.6039 21.6484C25.3762 20.9401 25.256 20.2001 25.2434 19.4286C25.2434 18.4293 25.4331 17.487 25.8126 16.6016C26.1921 15.7161 26.7107 14.9446 27.3684 14.2868C28.0261 13.6291 28.7977 13.1042 29.6831 12.7121C30.5685 12.3199 31.5172 12.1302 32.5291 12.1429ZM32.5291 24.2857C33.1995 24.2857 33.8256 24.1592 34.4075 23.9062C34.9893 23.6533 35.5079 23.3054 35.9633 22.8627C36.4186 22.42 36.7665 21.9077 37.0068 21.3259C37.2471 20.744 37.3736 20.1116 37.3862 19.4286C37.3862 18.7582 37.2598 18.1321 37.0068 17.5502C36.7538 16.9684 36.406 16.4498 35.9633 15.9944C35.5205 15.5391 35.0083 15.1912 34.4264 14.9509C33.8446 14.7106 33.2121 14.5841 32.5291 14.5714C31.8587 14.5714 31.2326 14.6979 30.6508 14.9509C30.0689 15.2039 29.5503 15.5517 29.095 15.9944C28.6396 16.4371 28.2918 16.9494 28.0514 17.5312C27.8111 18.1131 27.6846 18.7455 27.672 19.4286C27.672 20.099 27.7984 20.7251 28.0514 21.3069C28.3044 21.8888 28.6522 22.4074 29.095 22.8627C29.5377 23.3181 30.0499 23.6659 30.6318 23.9062C31.2136 24.1466 31.8461 24.2731 32.5291 24.2857ZM22.8148 24.2857H10.672C9.33119 24.2857 8.07263 24.0327 6.89629 23.5268C5.71995 23.0208 4.6954 22.3251 3.82263 21.4397C2.94986 20.5543 2.25418 19.5234 1.73558 18.3471C1.21698 17.1708 0.963999 15.9122 0.976648 14.5714C0.976648 13.2307 1.22962 11.9721 1.73558 10.7958C2.24153 9.61942 2.93089 8.59487 3.80366 7.7221C4.67642 6.84933 5.7073 6.15365 6.89629 5.63504C8.08528 5.11644 9.34384 4.85714 10.672 4.85714C11.2538 4.85714 11.842 4.91406 12.4365 5.0279C12.9424 4.25632 13.5306 3.56064 14.201 2.94085C14.8714 2.32106 15.5987 1.79613 16.3829 1.36607C17.1671 0.936012 18.0019 0.600818 18.8874 0.360491C19.7728 0.120164 20.6772 0 21.6005 0C22.9919 0 24.3074 0.246652 25.547 0.739955C26.7865 1.23326 27.8996 1.91629 28.8862 2.78906C29.8729 3.66183 30.6761 4.68638 31.2958 5.86272C31.9156 7.03906 32.3077 8.32292 32.4722 9.71429C32.0548 9.71429 31.6437 9.74591 31.2389 9.80915C30.8342 9.8724 30.4231 9.96726 30.0057 10.0938C29.9045 9.00595 29.6136 7.99405 29.1329 7.05804C28.6522 6.12202 28.0388 5.3125 27.2925 4.62946C26.5462 3.94643 25.6798 3.40885 24.6932 3.01674C23.7066 2.62463 22.6757 2.42857 21.6005 2.42857C20.7151 2.42857 19.8613 2.56138 19.0391 2.82701C18.217 3.09263 17.4644 3.46577 16.7813 3.94643C16.0983 4.42708 15.4848 5.0026 14.9409 5.67299C14.397 6.34338 13.9733 7.10231 13.6697 7.94978C12.7211 7.50707 11.7218 7.28571 10.672 7.28571C9.66006 7.28571 8.71772 7.47545 7.84495 7.85491C6.97218 8.23438 6.20061 8.75298 5.53022 9.41071C4.85983 10.0685 4.33491 10.8464 3.95544 11.7444C3.57598 12.6425 3.38625 13.5848 3.38625 14.5714C3.38625 15.5833 3.57598 16.5257 3.95544 17.3984C4.33491 18.2712 4.85351 19.0428 5.51125 19.7132C6.16898 20.3836 6.94056 20.9085 7.82598 21.2879C8.71139 21.6674 9.66006 21.8571 10.672 21.8571H22.8148V24.2857Z" fill="url(#paint0_linear_510:2045)"/>
<defs>
<linearGradient id="paint0_linear_510:2045" x1="20.314" y1="0.0118167" x2="20.314" y2="33.8784" gradientUnits="userSpaceOnUse">
<stop stop-color="#32D4F5"/>
<stop offset="0.177083" stop-color="#31D0F1"/>
<stop offset="0.333333" stop-color="#2CC3E6"/>
<stop offset="0.494792" stop-color="#25AFD4"/>
<stop offset="0.8125" stop-color="#1C92BA"/>
<stop offset="1" stop-color="#198AB3"/>
</linearGradient>
</defs>
</svg>
