<svg xmlns="http://www.w3.org/2000/svg" viewBox="0 0 2048 2048">
  <path d="M1408 256h640v1664H0V256h640V0h768v256zM768 128v128h512V128H768zm1152 1664V768h-384v128h-128V768H640v128H512V768H128v1024h1792zm0-1152V384H128v256h384V512h128v128h768V512h128v128h384zm-448 384q66 0 124 25t101 69 69 102 26 124q0 66-25 124t-69 101-102 69-124 26q-75 0-142-34t-113-94H448q-40 0-75-15t-61-41-41-61-15-75q0-40 15-75t41-61 61-41 75-15h769q45-60 112-94t143-34zm0 128q-35 0-62 9t-48 27-40 40-34 52H448q-26 0-45 19t-19 45q0 26 19 45t45 19h840q16 28 34 51t39 41 49 26 62 10q62 0 110-35t70-93h-180l-64-64 64-64h180q-21-57-69-92t-111-36z" />
</svg>