<svg width="40" height="37" viewBox="0 0 40 37" fill="none" xmlns="http://www.w3.org/2000/svg">
<path d="M27.5 4.93333H40V37H0V4.93333H12.5V0H27.5V4.93333ZM15 2.46667V4.93333H25V2.46667H15ZM37.5 34.5333V14.8H30V17.2667H27.5V14.8H12.5V17.2667H10V14.8H2.5V34.5333H37.5ZM37.5 12.3333V7.4H2.5V12.3333H10V9.86667H12.5V12.3333H27.5V9.86667H30V12.3333H37.5ZM28.75 19.7333C29.6094 19.7333 30.4167 19.8939 31.1719 20.2151C31.9271 20.5363 32.5846 20.9795 33.1445 21.5448C33.7044 22.1101 34.1536 22.7653 34.4922 23.5104C34.8307 24.2556 35 25.0521 35 25.9C35 26.7479 34.8372 27.5444 34.5117 28.2896C34.1862 29.0347 33.737 29.6835 33.1641 30.2359C32.5911 30.7884 31.9271 31.2316 31.1719 31.5656C30.4167 31.8997 29.6094 32.0667 28.75 32.0667C27.7734 32.0667 26.849 31.8483 25.9766 31.4115C25.1042 30.9747 24.3685 30.3708 23.7695 29.6H8.75C8.22917 29.6 7.74089 29.5036 7.28516 29.3109C6.82943 29.1182 6.43229 28.8549 6.09375 28.5208C5.75521 28.1868 5.48828 27.795 5.29297 27.3453C5.09766 26.8957 5 26.4139 5 25.9C5 25.3861 5.09766 24.9043 5.29297 24.4547C5.48828 24.005 5.75521 23.6132 6.09375 23.2792C6.43229 22.9451 6.82943 22.6818 7.28516 22.4891C7.74089 22.2964 8.22917 22.2 8.75 22.2H23.7695C24.3555 21.4292 25.0846 20.8253 25.957 20.3885C26.8294 19.9517 27.7604 19.7333 28.75 19.7333ZM28.75 22.2C28.2943 22.2 27.8906 22.2578 27.5391 22.3734C27.1875 22.4891 26.875 22.6625 26.6016 22.8938C26.3281 23.125 26.0677 23.3819 25.8203 23.6646C25.5729 23.9472 25.3516 24.2813 25.1562 24.6667H8.75C8.41146 24.6667 8.11849 24.7887 7.87109 25.0328C7.6237 25.2769 7.5 25.566 7.5 25.9C7.5 26.234 7.6237 26.5231 7.87109 26.7672C8.11849 27.0113 8.41146 27.1333 8.75 27.1333H25.1562C25.3646 27.4931 25.5859 27.8207 25.8203 28.1161C26.0547 28.4116 26.3086 28.675 26.582 28.9063C26.8555 29.1375 27.1745 29.3045 27.5391 29.4073C27.9036 29.5101 28.3073 29.5743 28.75 29.6C29.5573 29.6 30.2734 29.3752 30.8984 28.9255C31.5234 28.4759 31.9792 27.8785 32.2656 27.1333H28.75L27.5 25.9L28.75 24.6667H32.2656C31.9922 23.9344 31.543 23.3434 30.918 22.8938C30.293 22.4441 29.5703 22.2128 28.75 22.2Z" fill="url(#paint0_linear)"/>
<defs>
<linearGradient id="paint0_linear" x1="19.9258" y1="0.0128593" x2="19.9258" y2="36.8676" gradientUnits="userSpaceOnUse">
<stop stop-color="#32D4F5"/>
<stop offset="0.177083" stop-color="#31D0F1"/>
<stop offset="0.333333" stop-color="#2CC3E6"/>
<stop offset="0.494792" stop-color="#25AFD4"/>
<stop offset="0.8125" stop-color="#1C92BA"/>
<stop offset="1" stop-color="#198AB3"/>
</linearGradient>
</defs>
</svg>
