<svg width="39" height="39" viewBox="0 0 39 39" fill="none" xmlns="http://www.w3.org/2000/svg">
<path d="M19.5 0C21.29 0 23.0166 0.228516 24.6797 0.685547C26.3428 1.14258 27.8979 1.79639 29.3452 2.64697C30.7925 3.49756 32.1064 4.51318 33.2871 5.69385C34.4678 6.87451 35.4834 8.19482 36.334 9.65479C37.1846 11.1147 37.8384 12.6699 38.2954 14.3203C38.7524 15.9707 38.9873 17.6973 39 19.5C39 21.29 38.7715 23.0166 38.3145 24.6797C37.8574 26.3428 37.2036 27.8979 36.353 29.3452C35.5024 30.7925 34.4868 32.1064 33.3062 33.2871C32.1255 34.4678 30.8052 35.4834 29.3452 36.334C27.8853 37.1846 26.3301 37.8384 24.6797 38.2954C23.0293 38.7524 21.3027 38.9873 19.5 39C17.71 39 15.9834 38.7715 14.3203 38.3145C12.6572 37.8574 11.1021 37.2036 9.65479 36.353C8.20752 35.5024 6.89355 34.4868 5.71289 33.3062C4.53223 32.1255 3.5166 30.8052 2.66602 29.3452C1.81543 27.8853 1.16162 26.3364 0.70459 24.6987C0.247559 23.061 0.0126953 21.3281 0 19.5C0 17.71 0.228516 15.9834 0.685547 14.3203C1.14258 12.6572 1.79639 11.1021 2.64697 9.65479C3.49756 8.20752 4.51318 6.89355 5.69385 5.71289C6.87451 4.53223 8.19482 3.5166 9.65479 2.66602C11.1147 1.81543 12.6636 1.16162 14.3013 0.70459C15.939 0.247559 17.6719 0.0126953 19.5 0ZM34.9058 12.1875C34.4233 11.1592 33.8394 10.1943 33.1538 9.29297C32.4683 8.3916 31.7065 7.56006 30.8687 6.79834C30.0308 6.03662 29.123 5.37012 28.1455 4.79883C27.168 4.22754 26.146 3.75146 25.0796 3.37061C25.5366 4.00537 25.9492 4.67822 26.3174 5.38916C26.6855 6.1001 27.0093 6.83008 27.2886 7.5791C27.5679 8.32812 27.8154 9.09619 28.0312 9.8833C28.2471 10.6704 28.4248 11.4385 28.5645 12.1875H34.9058ZM36.5625 19.5C36.5625 17.8115 36.3276 16.1865 35.8579 14.625H28.9453C29.0469 15.4375 29.123 16.2437 29.1738 17.0435C29.2246 17.8433 29.25 18.6621 29.25 19.5C29.25 20.3252 29.2246 21.1377 29.1738 21.9375C29.123 22.7373 29.0469 23.5498 28.9453 24.375H35.8579C36.3276 22.8135 36.5625 21.1885 36.5625 19.5ZM19.5 36.5625C20.1221 36.5625 20.6997 36.3911 21.2329 36.0483C21.7661 35.7056 22.2676 35.2549 22.7373 34.6963C23.207 34.1377 23.6133 33.5093 23.9561 32.811C24.2988 32.1128 24.6226 31.3955 24.9272 30.6592C25.2319 29.9229 25.4668 29.2246 25.6318 28.5645C25.7969 27.9043 25.9429 27.3203 26.0698 26.8125H12.9302C13.0317 27.3076 13.1777 27.8916 13.3682 28.5645C13.5586 29.2373 13.7935 29.9355 14.0728 30.6592C14.3521 31.3828 14.6694 32.0937 15.0249 32.792C15.3804 33.4902 15.793 34.125 16.2627 34.6963C16.7324 35.2676 17.2275 35.7183 17.748 36.0483C18.2686 36.3784 18.8525 36.5498 19.5 36.5625ZM26.4888 24.375C26.5903 23.5625 26.6665 22.7563 26.7173 21.9565C26.7681 21.1567 26.7998 20.3379 26.8125 19.5C26.8125 18.6748 26.7871 17.8623 26.7363 17.0625C26.6855 16.2627 26.603 15.4502 26.4888 14.625H12.5112C12.4097 15.4375 12.3335 16.2437 12.2827 17.0435C12.2319 17.8433 12.2002 18.6621 12.1875 19.5C12.1875 20.3252 12.2129 21.1377 12.2637 21.9375C12.3145 22.7373 12.397 23.5498 12.5112 24.375H26.4888ZM2.4375 19.5C2.4375 21.1885 2.67236 22.8135 3.14209 24.375H10.0547C9.95312 23.5625 9.87695 22.7563 9.82617 21.9565C9.77539 21.1567 9.75 20.3379 9.75 19.5C9.75 18.6748 9.77539 17.8623 9.82617 17.0625C9.87695 16.2627 9.95312 15.4502 10.0547 14.625H3.14209C2.67236 16.1865 2.4375 17.8115 2.4375 19.5ZM19.5 2.4375C18.8779 2.4375 18.3003 2.60889 17.7671 2.95166C17.2339 3.29443 16.7324 3.74512 16.2627 4.30371C15.793 4.8623 15.3867 5.49072 15.0439 6.18896C14.7012 6.88721 14.3774 7.60449 14.0728 8.34082C13.7681 9.07715 13.5332 9.77539 13.3682 10.4355C13.2031 11.0957 13.0571 11.6797 12.9302 12.1875H26.0698C25.9683 11.6924 25.8223 11.1084 25.6318 10.4355C25.4414 9.7627 25.2065 9.06445 24.9272 8.34082C24.6479 7.61719 24.3306 6.90625 23.9751 6.20801C23.6196 5.50977 23.207 4.875 22.7373 4.30371C22.2676 3.73242 21.7725 3.28174 21.252 2.95166C20.7314 2.62158 20.1475 2.4502 19.5 2.4375ZM13.9204 3.37061C12.854 3.73877 11.832 4.21484 10.8545 4.79883C9.87695 5.38281 8.96924 6.04932 8.13135 6.79834C7.29346 7.54736 6.53174 8.37256 5.84619 9.27393C5.16064 10.1753 4.57666 11.1465 4.09424 12.1875H10.4355C10.5879 11.4258 10.7656 10.6577 10.9688 9.8833C11.1719 9.10889 11.4131 8.34717 11.6924 7.59814C11.9717 6.84912 12.3018 6.11279 12.6826 5.38916C13.0635 4.66553 13.4761 3.99268 13.9204 3.37061ZM4.09424 26.8125C4.57666 27.8408 5.16064 28.8057 5.84619 29.707C6.53174 30.6084 7.29346 31.4399 8.13135 32.2017C8.96924 32.9634 9.87695 33.6299 10.8545 34.2012C11.832 34.7725 12.854 35.2485 13.9204 35.6294C13.4634 34.9946 13.0508 34.3218 12.6826 33.6108C12.3145 32.8999 11.9907 32.1699 11.7114 31.4209C11.4321 30.6719 11.1846 29.9038 10.9688 29.1167C10.7529 28.3296 10.5752 27.5615 10.4355 26.8125H4.09424ZM25.0796 35.6294C26.146 35.2612 27.168 34.7852 28.1455 34.2012C29.123 33.6172 30.0308 32.9507 30.8687 32.2017C31.7065 31.4526 32.4683 30.6274 33.1538 29.7261C33.8394 28.8247 34.4233 27.8535 34.9058 26.8125H28.5645C28.4121 27.5742 28.2344 28.3423 28.0312 29.1167C27.8281 29.8911 27.5869 30.6528 27.3076 31.4019C27.0283 32.1509 26.6982 32.8872 26.3174 33.6108C25.9365 34.3345 25.5239 35.0073 25.0796 35.6294Z" fill="url(#paint0_linear)"/>
<defs>
<linearGradient id="paint0_linear" x1="19.4277" y1="0.0135544" x2="19.4277" y2="38.8605" gradientUnits="userSpaceOnUse">
<stop stop-color="#32D4F5"/>
<stop offset="0.177083" stop-color="#31D0F1"/>
<stop offset="0.333333" stop-color="#2CC3E6"/>
<stop offset="0.494792" stop-color="#25AFD4"/>
<stop offset="0.8125" stop-color="#1C92BA"/>
<stop offset="1" stop-color="#198AB3"/>
</linearGradient>
</defs>
</svg>
