<svg width="46" height="47" viewBox="0 0 46 47" fill="none" xmlns="http://www.w3.org/2000/svg">
<path d="M34.7681 20.2507L37.787 18.4717L37.7331 41.221L34.7142 43L34.7681 20.2507Z" fill="#185A97"/>
<path d="M34.7143 42.9998L9 28.175L9.05391 7.85156L34.7682 22.6763L34.7143 42.9998Z" fill="#137AD1"/>
<path d="M22.9261 29.2589L23.3709 29.1431L25.0255 32.658L24.58 32.7739L22.9261 29.2589Z" fill="white"/>
<path d="M25.0583 21.6054L23.3895 23.2908L22.9432 22.6727L24.6114 20.9873L25.0583 21.6054Z" fill="white"/>
<path d="M17.2296 28.2188L18.8548 26.6372L19.2982 27.2595L17.6723 28.8404L17.2296 28.2188Z" fill="white"/>
<path d="M17.7762 22.6831L17.7619 23.2997L16.0156 22.2592L16.03 21.6426L17.7762 22.6831Z" fill="white"/>
<path d="M19.266 20.5858L18.8083 20.6741L17.2548 17.1542L17.7124 17.0659L19.266 20.5858Z" fill="white"/>
<path d="M24.5032 27.1381L24.4924 26.5073L26.258 27.4666L26.2688 28.0974L24.5032 27.1381Z" fill="white"/>
<path d="M24.6643 26.726C24.6672 26.791 24.6686 26.8546 24.6693 26.9181C24.6715 27.3448 24.6163 27.7361 24.506 28.0787C24.4724 28.184 24.433 28.285 24.3886 28.3804C24.3442 28.4757 24.2947 28.5668 24.2403 28.6516C24.2267 28.6728 24.2124 28.694 24.198 28.7145C24.1694 28.7554 24.1393 28.795 24.1085 28.8338C24.0927 28.8529 24.077 28.872 24.0605 28.8904C23.8499 29.1291 23.5856 29.3057 23.2698 29.4032C22.6122 29.6059 21.8344 29.442 21.0623 29.0027C20.7729 28.8381 20.4842 28.6339 20.2035 28.3966C20.1125 28.3196 20.023 28.2398 19.9334 28.1557C19.9256 28.148 19.9177 28.1409 19.9098 28.1331C19.8862 28.1105 19.8625 28.0879 19.8389 28.0646C19.8303 28.0561 19.8217 28.0484 19.8138 28.0399C19.7386 27.9657 19.6648 27.8901 19.5918 27.8117C19.5373 27.7538 19.4843 27.6937 19.4306 27.6337C19.3418 27.532 19.2544 27.4267 19.1685 27.3187C19.1355 27.277 19.1026 27.2346 19.0703 27.1915C19.061 27.1788 19.0517 27.1661 19.0417 27.1541C19.0224 27.1279 19.003 27.1018 18.983 27.075C18.8103 26.8383 18.6463 26.5883 18.4945 26.3255C18.3956 26.1553 18.3018 25.9794 18.2137 25.7992C18.2094 25.7901 18.2044 25.7802 18.2001 25.771C18.1722 25.7145 18.1457 25.6573 18.1199 25.6007C18.054 25.4573 17.9938 25.3147 17.9379 25.1727C17.9215 25.1303 17.905 25.0879 17.8892 25.0455C17.8756 25.0095 17.8627 24.9728 17.8498 24.9367C17.8362 24.8993 17.8233 24.8619 17.8112 24.8244C17.7711 24.7058 17.7345 24.5878 17.7016 24.4705C17.6937 24.443 17.6858 24.4147 17.6787 24.3872C17.655 24.3003 17.6342 24.2141 17.6142 24.1286C17.6092 24.1075 17.6049 24.0863 17.5999 24.0651C17.5719 23.9365 17.5483 23.8094 17.5297 23.6843C17.5275 23.6716 17.5261 23.6596 17.5239 23.6469C17.5153 23.5861 17.5075 23.5254 17.5003 23.4654C17.4803 23.2859 17.4688 23.1115 17.4666 22.9412C17.4545 21.9177 17.7739 21.0863 18.3992 20.6582C18.4193 20.6441 18.44 20.6306 18.4608 20.6179C18.5024 20.5918 18.5453 20.5678 18.5897 20.5452C18.6778 20.5 18.7717 20.4625 18.8698 20.4322C18.882 20.4286 18.8941 20.4244 18.9063 20.4216C18.9292 20.4152 18.9522 20.4088 18.9751 20.4032C18.9822 20.4011 18.9901 20.3997 18.9973 20.3982C19.013 20.3947 19.0295 20.3912 19.0453 20.3876C19.0539 20.3862 19.0625 20.3841 19.0711 20.3827C19.0868 20.3799 19.1026 20.3771 19.1176 20.3742C19.1262 20.3728 19.1341 20.3714 19.1427 20.37C19.1606 20.3672 19.1785 20.365 19.1971 20.3622C19.2387 20.3573 19.263 20.3544 19.2867 20.353C19.3232 20.3502 19.3418 20.3495 19.3604 20.3488C19.369 20.3481 19.3769 20.3481 19.3855 20.3481C19.402 20.3474 19.4184 20.3474 19.4349 20.3467C19.4435 20.3467 19.4528 20.3467 19.4614 20.3467C19.4786 20.3467 19.4958 20.3467 19.513 20.3474C19.5209 20.3474 19.5288 20.3474 19.5366 20.3481C19.5868 20.3495 19.6369 20.353 19.6878 20.358C19.6956 20.3587 19.7035 20.3594 19.7114 20.3601C19.7286 20.3622 19.7465 20.3636 19.7644 20.3665C19.7737 20.3679 19.783 20.3686 19.7923 20.37C19.8088 20.3721 19.826 20.3749 19.8425 20.3771C19.8518 20.3785 19.8604 20.3799 19.8697 20.3813C19.889 20.3848 19.9091 20.3884 19.9284 20.3919C19.9728 20.4004 19.9986 20.406 20.0244 20.4117C20.0631 20.4208 20.0824 20.4251 20.1025 20.43C20.1111 20.4322 20.1204 20.435 20.129 20.4371C20.1462 20.4413 20.1641 20.4463 20.1813 20.4512C20.1906 20.454 20.1999 20.4569 20.2099 20.459C20.2278 20.4639 20.2464 20.4696 20.2643 20.4752C20.2722 20.4781 20.2808 20.4802 20.2887 20.483C20.3152 20.4915 20.341 20.5 20.3675 20.5091C20.394 20.5183 20.4205 20.5275 20.447 20.5374C20.4556 20.5402 20.4635 20.5438 20.4721 20.5466C20.4907 20.5536 20.5086 20.5607 20.5272 20.5678C20.5365 20.5713 20.5466 20.5755 20.5559 20.5791C20.5738 20.5861 20.591 20.5939 20.6089 20.601C20.6182 20.6045 20.6268 20.6087 20.6361 20.6123C20.6561 20.6208 20.6762 20.6299 20.697 20.6391C20.7428 20.6596 20.7693 20.6723 20.7958 20.685C20.8352 20.7041 20.8553 20.714 20.876 20.7246C20.8853 20.7295 20.8947 20.7345 20.904 20.7394C20.9219 20.7486 20.9391 20.7578 20.957 20.767C20.967 20.7719 20.9763 20.7776 20.9863 20.7825C21.0042 20.7924 21.0221 20.8023 21.0408 20.8122C21.0494 20.8171 21.0587 20.8221 21.0673 20.827C21.0916 20.8404 21.116 20.8546 21.1403 20.8694C21.1812 20.8934 21.2062 20.909 21.232 20.9245C21.2628 20.9436 21.2872 20.9591 21.3115 20.9747C21.3488 20.9987 21.3738 21.0149 21.3989 21.0319C21.4397 21.0594 21.4641 21.0764 21.4891 21.094C21.5228 21.118 21.5464 21.135 21.5701 21.152C21.6059 21.1781 21.6303 21.1965 21.6553 21.2148C21.6954 21.2452 21.7198 21.2643 21.7449 21.2833C21.7807 21.3116 21.805 21.3307 21.8287 21.3497C21.8602 21.3752 21.8852 21.3957 21.9096 21.4161C21.949 21.4493 21.9733 21.4698 21.997 21.4903C22.0357 21.5242 22.06 21.5454 22.0851 21.568C22.1109 21.5913 22.1352 21.6139 22.1603 21.6365C22.1982 21.6719 22.2219 21.6937 22.2448 21.7164C22.2842 21.7538 22.3078 21.7771 22.3315 21.8004C22.3608 21.8294 22.383 21.852 22.4052 21.8746C22.4411 21.9113 22.464 21.9353 22.4869 21.9593C22.5249 21.9996 22.5478 22.0243 22.5707 22.0491C22.6022 22.0837 22.6237 22.1077 22.6452 22.131C22.6781 22.1677 22.7003 22.1932 22.7225 22.2193C22.7591 22.2617 22.7813 22.2878 22.8035 22.314C22.8364 22.3535 22.8579 22.3789 22.8787 22.4051C22.9073 22.4404 22.9295 22.4679 22.951 22.4948C22.9861 22.5393 23.0076 22.5668 23.0284 22.5944C23.0628 22.6389 23.0843 22.6678 23.1057 22.6961C23.1294 22.7272 23.1509 22.7569 23.1716 22.7865C23.2039 22.8317 23.2246 22.86 23.2447 22.8889C23.2776 22.9363 23.2984 22.9666 23.3192 22.9963C23.3435 23.0323 23.3636 23.062 23.3829 23.091C23.413 23.1369 23.4324 23.1666 23.4517 23.1969C23.4832 23.2464 23.5025 23.2775 23.5219 23.3085C23.5484 23.3516 23.5663 23.3813 23.5842 23.411C23.6107 23.4555 23.6293 23.4873 23.6472 23.5183C23.6773 23.5706 23.6952 23.6024 23.7131 23.6342C23.7396 23.6815 23.7568 23.7133 23.7733 23.7444C23.7962 23.7868 23.8134 23.8192 23.8306 23.8524C23.8578 23.9054 23.875 23.9379 23.8915 23.9711C23.918 24.0241 23.9352 24.0587 23.9516 24.0933C23.9832 24.159 24.0132 24.224 24.0426 24.289C24.0534 24.3137 24.0648 24.3384 24.0756 24.3625C24.1615 24.5588 24.2381 24.7545 24.3055 24.9488C24.3191 24.9883 24.332 25.0272 24.3449 25.0667C24.4631 25.4284 24.549 25.783 24.602 26.1242C24.6178 26.2238 24.6307 26.322 24.6407 26.4187C24.6521 26.5205 24.66 26.6243 24.6643 26.726ZM20.8374 25.0469L19.4543 24.2593C19.46 24.4486 19.4729 24.6379 19.4922 24.8265C19.5015 24.9163 19.5123 25.006 19.5237 25.095C19.5288 25.1303 19.5338 25.1663 19.5388 25.2016C19.5467 25.2574 19.556 25.3125 19.5653 25.3676C19.5724 25.4121 19.5803 25.4566 19.5889 25.5011C19.5975 25.5471 19.6061 25.593 19.6154 25.6389C19.6233 25.677 19.6305 25.7152 19.6391 25.7526L20.8345 26.4336L20.8374 25.0469ZM20.8431 23.1362L19.6476 22.4552C19.5424 22.8176 19.4743 23.2499 19.4557 23.7345L20.8388 24.5221L20.8431 23.1362ZM21.3001 25.3104L21.2958 26.6963L22.4912 27.3773C22.5965 27.0149 22.6645 26.5826 22.6832 26.098L21.3001 25.3104ZM21.3058 23.3997L21.3015 24.7856L22.6846 25.5732C22.6817 25.4757 22.6767 25.3782 22.6695 25.2808C22.666 25.2235 22.6609 25.167 22.6559 25.1098C22.6552 25.1027 22.6545 25.0957 22.6538 25.0886C22.6488 25.0335 22.643 24.9784 22.6373 24.924C22.6294 24.8513 22.6201 24.7792 22.6101 24.7072C22.5807 24.4945 22.5442 24.2848 22.4998 24.0792L21.3058 23.3997ZM18.2803 24.9791L19.1534 25.4764C19.0603 24.9961 19.0037 24.496 18.9894 23.9944L17.9358 23.3947C17.9415 23.4873 17.9494 23.5812 17.9609 23.6766C17.9644 23.7083 17.9687 23.7401 17.973 23.7726C17.9788 23.8115 17.9845 23.851 17.9909 23.8906C18.0003 23.9485 18.011 24.0071 18.0225 24.0658C18.0354 24.1315 18.0497 24.1979 18.0654 24.265C18.0812 24.3321 18.0984 24.3992 18.1163 24.4663C18.1256 24.5002 18.1349 24.5341 18.1449 24.568C18.1858 24.7036 18.2302 24.8407 18.2803 24.9791ZM18.2903 21.6824C18.0905 22.0017 17.9716 22.4079 17.9387 22.8706L18.9916 23.4703C19.0087 22.9864 19.0682 22.5527 19.1635 22.1797L18.2903 21.6824ZM23.1487 25.8374L24.1995 26.4357C24.198 26.4074 24.1959 26.3792 24.1937 26.3502C24.193 26.3446 24.193 26.3389 24.1923 26.3333C24.188 26.2775 24.1823 26.2217 24.1758 26.1651C24.1672 26.0924 24.1572 26.0189 24.145 25.9448C24.1357 25.8854 24.125 25.8261 24.1135 25.766C24.1071 25.7328 24.1006 25.7003 24.0935 25.6671C24.0791 25.6007 24.0641 25.5343 24.0469 25.4672C23.9961 25.2659 23.9337 25.0611 23.8585 24.8534L22.9847 24.3561C23.0248 24.5617 23.0578 24.7707 23.0843 24.982C23.0857 24.9911 23.0864 25.001 23.0878 25.0102C23.1057 25.1571 23.1201 25.3055 23.1301 25.4545C23.1308 25.4602 23.1308 25.4651 23.1315 25.4708C23.1394 25.5916 23.1451 25.7145 23.1487 25.8374ZM24.1966 26.9591L23.1473 26.3615C23.1301 26.8454 23.0706 27.2791 22.9754 27.6521L23.8464 28.148C24.0455 27.8287 24.1637 27.4225 24.1966 26.9591ZM21.2907 28.5541C21.7062 28.6537 22.0772 28.3676 22.3322 27.8117L21.2943 27.2212L21.2907 28.5541ZM21.3108 21.5419L21.3072 22.8755L22.3451 23.4661C22.204 22.9907 22.0256 22.5591 21.8229 22.2066C21.6646 21.9318 21.492 21.7051 21.3108 21.5419ZM20.8316 26.9577L19.7938 26.3672C19.8253 26.4731 19.8582 26.5763 19.8933 26.6773C19.9019 26.7027 19.9112 26.7274 19.9198 26.7521C19.9377 26.8023 19.9556 26.851 19.975 26.8998C19.9879 26.9337 20.0015 26.9669 20.0144 27.0001C20.0531 27.0954 20.0932 27.188 20.1354 27.277C20.1634 27.337 20.1927 27.3964 20.2221 27.4536C20.2522 27.5122 20.283 27.5687 20.3145 27.6238C20.4742 27.9014 20.6461 28.1289 20.828 28.2921L20.8316 26.9577ZM20.8445 22.6113L20.8481 21.2777C20.4327 21.1781 20.0616 21.4642 19.8067 22.0201L20.8445 22.6113ZM19.152 21.0057C18.935 21.0728 18.7466 21.1816 18.5862 21.3257L19.306 21.7354C19.4414 21.3893 19.6154 21.118 19.8188 20.9372C19.5975 20.921 19.3841 20.9393 19.1835 20.9966C19.1735 21.0001 19.1627 21.0029 19.152 21.0057ZM23.1809 28.7512C23.3178 28.6876 23.441 28.605 23.5505 28.5054L22.8321 28.0964C22.7727 28.2483 22.7061 28.3853 22.633 28.5068C22.6223 28.5245 22.6122 28.5414 22.6015 28.5577C22.537 28.658 22.4683 28.747 22.3945 28.8233C22.3823 28.836 22.3701 28.8487 22.3573 28.8607C22.3451 28.8727 22.3322 28.8847 22.3193 28.896C22.5521 28.913 22.7763 28.8918 22.9861 28.8261C23.0406 28.8098 23.0929 28.7901 23.143 28.7682C23.1566 28.7625 23.1688 28.7569 23.1809 28.7512ZM19.1785 26.6956C19.3726 26.9718 19.5818 27.2275 19.8002 27.4599C19.7909 27.4402 19.7816 27.4211 19.7716 27.4013C19.7651 27.3879 19.7587 27.3738 19.7522 27.3603C19.735 27.3236 19.7178 27.2862 19.7014 27.248C19.6813 27.2028 19.6613 27.1569 19.6419 27.1103C19.6276 27.0764 19.614 27.0432 19.6004 27.0086C19.5796 26.9563 19.5588 26.904 19.5388 26.8503C19.5273 26.82 19.5159 26.7896 19.5051 26.7585C19.4843 26.6999 19.4636 26.6412 19.4435 26.5819C19.4342 26.5544 19.4256 26.5268 19.4163 26.4993C19.3726 26.3629 19.3311 26.2238 19.2938 26.0825L18.5747 25.6728L18.5804 25.6855C18.622 25.7703 18.6649 25.8536 18.7086 25.9356C18.791 26.0889 18.8784 26.2379 18.9694 26.3827C19.0195 26.4618 19.0703 26.5395 19.1226 26.6158C19.1413 26.6419 19.1599 26.6688 19.1785 26.6956ZM22.5134 22.5675C22.4561 22.5018 22.3988 22.4376 22.3401 22.3754C22.378 22.4524 22.4146 22.5315 22.4504 22.6128C22.5757 22.8981 22.6874 23.2061 22.7827 23.5289C22.8042 23.6024 22.8257 23.6766 22.845 23.7514L23.5641 24.1604C23.5348 24.1004 23.5047 24.0403 23.4739 23.9817C23.4603 23.9556 23.446 23.9287 23.4324 23.9026C23.3894 23.8221 23.345 23.743 23.2991 23.6653C23.2755 23.625 23.2519 23.5854 23.2282 23.5459C23.2146 23.524 23.2017 23.5028 23.1881 23.4809C23.1652 23.4442 23.1416 23.4074 23.1179 23.3707C23.0986 23.341 23.0792 23.3114 23.0592 23.2817C23.0227 23.2273 22.9861 23.1736 22.9482 23.1206C22.9066 23.062 22.8644 23.0048 22.8221 22.9476C22.8035 22.9229 22.7841 22.8974 22.7655 22.8734C22.7519 22.8557 22.7383 22.8381 22.7247 22.8211C22.6975 22.7865 22.6695 22.7519 22.6416 22.718C22.628 22.701 22.6137 22.6841 22.5993 22.6671C22.57 22.6332 22.542 22.6 22.5134 22.5675Z" fill="white"/>
<path d="M24.6643 26.726C24.6672 26.791 24.6686 26.8546 24.6693 26.9181C24.6715 27.3448 24.6163 27.7361 24.506 28.0787C24.4724 28.184 24.433 28.285 24.3886 28.3804C24.3442 28.4757 24.2947 28.5668 24.2403 28.6516C24.2267 28.6728 24.2124 28.694 24.198 28.7145C24.1694 28.7554 24.1393 28.795 24.1085 28.8338C24.0927 28.8529 24.077 28.872 24.0605 28.8904C23.8499 29.1291 23.5856 29.3057 23.2698 29.4032C22.6122 29.6059 21.8344 29.442 21.0623 29.0027C20.7729 28.8381 20.4842 28.6339 20.2035 28.3966C20.1125 28.3196 20.023 28.2398 19.9334 28.1557C19.9256 28.148 19.9177 28.1409 19.9098 28.1331C19.8862 28.1105 19.8625 28.0879 19.8389 28.0646C19.8303 28.0561 19.8217 28.0484 19.8138 28.0399C19.7386 27.9657 19.6648 27.8901 19.5918 27.8117C19.5373 27.7538 19.4843 27.6937 19.4306 27.6337C19.3418 27.532 19.2544 27.4267 19.1685 27.3187C19.1355 27.277 19.1026 27.2346 19.0703 27.1915C19.061 27.1788 19.0517 27.1661 19.0417 27.1541C19.0224 27.1279 19.003 27.1018 18.983 27.075C18.8103 26.8383 18.6463 26.5883 18.4945 26.3255C18.3956 26.1553 18.3018 25.9794 18.2137 25.7992C18.2094 25.7901 18.2044 25.7802 18.2001 25.771C18.1722 25.7145 18.1457 25.6573 18.1199 25.6007C18.054 25.4573 17.9938 25.3147 17.9379 25.1727C17.9215 25.1303 17.905 25.0879 17.8892 25.0455C17.8756 25.0095 17.8627 24.9728 17.8498 24.9367C17.8362 24.8993 17.8233 24.8619 17.8112 24.8244C17.7711 24.7058 17.7345 24.5878 17.7016 24.4705C17.6937 24.443 17.6858 24.4147 17.6787 24.3872C17.655 24.3003 17.6342 24.2141 17.6142 24.1286C17.6092 24.1075 17.6049 24.0863 17.5999 24.0651C17.5719 23.9365 17.5483 23.8094 17.5297 23.6843C17.5275 23.6716 17.5261 23.6596 17.5239 23.6469C17.5153 23.5861 17.5075 23.5254 17.5003 23.4654C17.4803 23.2859 17.4688 23.1115 17.4666 22.9412C17.4545 21.9177 17.7739 21.0863 18.3992 20.6582C18.4193 20.6441 18.44 20.6306 18.4608 20.6179C18.5024 20.5918 18.5453 20.5678 18.5897 20.5452C18.6778 20.5 18.7717 20.4625 18.8698 20.4322C18.882 20.4286 18.8941 20.4244 18.9063 20.4216C18.9292 20.4152 18.9522 20.4088 18.9751 20.4032C18.9822 20.4011 18.9901 20.3997 18.9973 20.3982C19.013 20.3947 19.0295 20.3912 19.0453 20.3876C19.0539 20.3862 19.0625 20.3841 19.0711 20.3827C19.0868 20.3799 19.1026 20.3771 19.1176 20.3742C19.1262 20.3728 19.1341 20.3714 19.1427 20.37C19.1606 20.3672 19.1785 20.365 19.1971 20.3622C19.2387 20.3573 19.263 20.3544 19.2867 20.353C19.3232 20.3502 19.3418 20.3495 19.3604 20.3488C19.369 20.3481 19.3769 20.3481 19.3855 20.3481C19.402 20.3474 19.4184 20.3474 19.4349 20.3467C19.4435 20.3467 19.4528 20.3467 19.4614 20.3467C19.4786 20.3467 19.4958 20.3467 19.513 20.3474C19.5209 20.3474 19.5288 20.3474 19.5366 20.3481C19.5868 20.3495 19.6369 20.353 19.6878 20.358C19.6956 20.3587 19.7035 20.3594 19.7114 20.3601C19.7286 20.3622 19.7465 20.3636 19.7644 20.3665C19.7737 20.3679 19.783 20.3686 19.7923 20.37C19.8088 20.3721 19.826 20.3749 19.8425 20.3771C19.8518 20.3785 19.8604 20.3799 19.8697 20.3813C19.889 20.3848 19.9091 20.3884 19.9284 20.3919C19.9728 20.4004 19.9986 20.406 20.0244 20.4117C20.0631 20.4208 20.0824 20.4251 20.1025 20.43C20.1111 20.4322 20.1204 20.435 20.129 20.4371C20.1462 20.4413 20.1641 20.4463 20.1813 20.4512C20.1906 20.454 20.1999 20.4569 20.2099 20.459C20.2278 20.4639 20.2464 20.4696 20.2643 20.4752C20.2722 20.4781 20.2808 20.4802 20.2887 20.483C20.3152 20.4915 20.341 20.5 20.3675 20.5091C20.394 20.5183 20.4205 20.5275 20.447 20.5374C20.4556 20.5402 20.4635 20.5438 20.4721 20.5466C20.4907 20.5536 20.5086 20.5607 20.5272 20.5678C20.5365 20.5713 20.5466 20.5755 20.5559 20.5791C20.5738 20.5861 20.591 20.5939 20.6089 20.601C20.6182 20.6045 20.6268 20.6087 20.6361 20.6123C20.6561 20.6208 20.6762 20.6299 20.697 20.6391C20.7428 20.6596 20.7693 20.6723 20.7958 20.685C20.8352 20.7041 20.8553 20.714 20.876 20.7246C20.8853 20.7295 20.8947 20.7345 20.904 20.7394C20.9219 20.7486 20.9391 20.7578 20.957 20.767C20.967 20.7719 20.9763 20.7776 20.9863 20.7825C21.0042 20.7924 21.0221 20.8023 21.0408 20.8122C21.0494 20.8171 21.0587 20.8221 21.0673 20.827C21.0916 20.8404 21.116 20.8546 21.1403 20.8694C21.1812 20.8934 21.2062 20.909 21.232 20.9245C21.2628 20.9436 21.2872 20.9591 21.3115 20.9747C21.3488 20.9987 21.3738 21.0149 21.3989 21.0319C21.4397 21.0594 21.4641 21.0764 21.4891 21.094C21.5228 21.118 21.5464 21.135 21.5701 21.152C21.6059 21.1781 21.6303 21.1965 21.6553 21.2148C21.6954 21.2452 21.7198 21.2643 21.7449 21.2833C21.7807 21.3116 21.805 21.3307 21.8287 21.3497C21.8602 21.3752 21.8852 21.3957 21.9096 21.4161C21.949 21.4493 21.9733 21.4698 21.997 21.4903C22.0357 21.5242 22.06 21.5454 22.0851 21.568C22.1109 21.5913 22.1352 21.6139 22.1603 21.6365C22.1982 21.6719 22.2219 21.6937 22.2448 21.7164C22.2842 21.7538 22.3078 21.7771 22.3315 21.8004C22.3608 21.8294 22.383 21.852 22.4052 21.8746C22.4411 21.9113 22.464 21.9353 22.4869 21.9593C22.5249 21.9996 22.5478 22.0243 22.5707 22.0491C22.6022 22.0837 22.6237 22.1077 22.6452 22.131C22.6781 22.1677 22.7003 22.1932 22.7225 22.2193C22.7591 22.2617 22.7813 22.2878 22.8035 22.314C22.8364 22.3535 22.8579 22.3789 22.8787 22.4051C22.9073 22.4404 22.9295 22.4679 22.951 22.4948C22.9861 22.5393 23.0076 22.5668 23.0284 22.5944C23.0628 22.6389 23.0843 22.6678 23.1057 22.6961C23.1294 22.7272 23.1509 22.7569 23.1716 22.7865C23.2039 22.8317 23.2246 22.86 23.2447 22.8889C23.2776 22.9363 23.2984 22.9666 23.3192 22.9963C23.3435 23.0323 23.3636 23.062 23.3829 23.091C23.413 23.1369 23.4324 23.1666 23.4517 23.1969C23.4832 23.2464 23.5025 23.2775 23.5219 23.3085C23.5484 23.3516 23.5663 23.3813 23.5842 23.411C23.6107 23.4555 23.6293 23.4873 23.6472 23.5183C23.6773 23.5706 23.6952 23.6024 23.7131 23.6342C23.7396 23.6815 23.7568 23.7133 23.7733 23.7444C23.7962 23.7868 23.8134 23.8192 23.8306 23.8524C23.8578 23.9054 23.875 23.9379 23.8915 23.9711C23.918 24.0241 23.9352 24.0587 23.9516 24.0933C23.9832 24.159 24.0132 24.224 24.0426 24.289C24.0534 24.3137 24.0648 24.3384 24.0756 24.3625C24.1615 24.5588 24.2381 24.7545 24.3055 24.9488C24.3191 24.9883 24.332 25.0272 24.3449 25.0667C24.4631 25.4284 24.549 25.783 24.602 26.1242C24.6178 26.2238 24.6307 26.322 24.6407 26.4187C24.6521 26.5205 24.66 26.6243 24.6643 26.726ZM20.8374 25.0469L19.4543 24.2593C19.46 24.4486 19.4729 24.6379 19.4922 24.8265C19.5015 24.9163 19.5123 25.006 19.5237 25.095C19.5288 25.1303 19.5338 25.1663 19.5388 25.2016C19.5467 25.2574 19.556 25.3125 19.5653 25.3676C19.5724 25.4121 19.5803 25.4566 19.5889 25.5011C19.5975 25.5471 19.6061 25.593 19.6154 25.6389C19.6233 25.677 19.6305 25.7152 19.6391 25.7526L20.8345 26.4336L20.8374 25.0469ZM20.8431 23.1362L19.6476 22.4552C19.5424 22.8176 19.4743 23.2499 19.4557 23.7345L20.8388 24.5221L20.8431 23.1362ZM21.3001 25.3104L21.2958 26.6963L22.4912 27.3773C22.5965 27.0149 22.6645 26.5826 22.6832 26.098L21.3001 25.3104ZM21.3058 23.3997L21.3015 24.7856L22.6846 25.5732C22.6817 25.4757 22.6767 25.3782 22.6695 25.2808C22.666 25.2235 22.6609 25.167 22.6559 25.1098C22.6552 25.1027 22.6545 25.0957 22.6538 25.0886C22.6488 25.0335 22.643 24.9784 22.6373 24.924C22.6294 24.8513 22.6201 24.7792 22.6101 24.7072C22.5807 24.4945 22.5442 24.2848 22.4998 24.0792L21.3058 23.3997ZM18.2803 24.9791L19.1534 25.4764C19.0603 24.9961 19.0037 24.496 18.9894 23.9944L17.9358 23.3947C17.9415 23.4873 17.9494 23.5812 17.9609 23.6766C17.9644 23.7083 17.9687 23.7401 17.973 23.7726C17.9788 23.8115 17.9845 23.851 17.9909 23.8906C18.0003 23.9485 18.011 24.0071 18.0225 24.0658C18.0354 24.1315 18.0497 24.1979 18.0654 24.265C18.0812 24.3321 18.0984 24.3992 18.1163 24.4663C18.1256 24.5002 18.1349 24.5341 18.1449 24.568C18.1858 24.7036 18.2302 24.8407 18.2803 24.9791ZM18.2903 21.6824C18.0905 22.0017 17.9716 22.4079 17.9387 22.8706L18.9916 23.4703C19.0087 22.9864 19.0682 22.5527 19.1635 22.1797L18.2903 21.6824ZM23.1487 25.8374L24.1995 26.4357C24.198 26.4074 24.1959 26.3792 24.1937 26.3502C24.193 26.3446 24.193 26.3389 24.1923 26.3333C24.188 26.2775 24.1823 26.2217 24.1758 26.1651C24.1672 26.0924 24.1572 26.0189 24.145 25.9448C24.1357 25.8854 24.125 25.8261 24.1135 25.766C24.1071 25.7328 24.1006 25.7003 24.0935 25.6671C24.0791 25.6007 24.0641 25.5343 24.0469 25.4672C23.9961 25.2659 23.9337 25.0611 23.8585 24.8534L22.9847 24.3561C23.0248 24.5617 23.0578 24.7707 23.0843 24.982C23.0857 24.9911 23.0864 25.001 23.0878 25.0102C23.1057 25.1571 23.1201 25.3055 23.1301 25.4545C23.1308 25.4602 23.1308 25.4651 23.1315 25.4708C23.1394 25.5916 23.1451 25.7145 23.1487 25.8374ZM24.1966 26.9591L23.1473 26.3615C23.1301 26.8454 23.0706 27.2791 22.9754 27.6521L23.8464 28.148C24.0455 27.8287 24.1637 27.4225 24.1966 26.9591ZM21.2907 28.5541C21.7062 28.6537 22.0772 28.3676 22.3322 27.8117L21.2943 27.2212L21.2907 28.5541ZM21.3108 21.5419L21.3072 22.8755L22.3451 23.4661C22.204 22.9907 22.0256 22.5591 21.8229 22.2066C21.6646 21.9318 21.492 21.7051 21.3108 21.5419ZM20.8316 26.9577L19.7938 26.3672C19.8253 26.4731 19.8582 26.5763 19.8933 26.6773C19.9019 26.7027 19.9112 26.7274 19.9198 26.7521C19.9377 26.8023 19.9556 26.851 19.975 26.8998C19.9879 26.9337 20.0015 26.9669 20.0144 27.0001C20.0531 27.0954 20.0932 27.188 20.1354 27.277C20.1634 27.337 20.1927 27.3964 20.2221 27.4536C20.2522 27.5122 20.283 27.5687 20.3145 27.6238C20.4742 27.9014 20.6461 28.1289 20.828 28.2921L20.8316 26.9577ZM20.8445 22.6113L20.8481 21.2777C20.4327 21.1781 20.0616 21.4642 19.8067 22.0201L20.8445 22.6113ZM19.152 21.0057C18.935 21.0728 18.7466 21.1816 18.5862 21.3257L19.306 21.7354C19.4414 21.3893 19.6154 21.118 19.8188 20.9372C19.5975 20.921 19.3841 20.9393 19.1835 20.9966C19.1735 21.0001 19.1627 21.0029 19.152 21.0057ZM23.1809 28.7512C23.3178 28.6876 23.441 28.605 23.5505 28.5054L22.8321 28.0964C22.7727 28.2483 22.7061 28.3853 22.633 28.5068C22.6223 28.5245 22.6122 28.5414 22.6015 28.5577C22.537 28.658 22.4683 28.747 22.3945 28.8233C22.3823 28.836 22.3701 28.8487 22.3573 28.8607C22.3451 28.8727 22.3322 28.8847 22.3193 28.896C22.5521 28.913 22.7763 28.8918 22.9861 28.8261C23.0406 28.8098 23.0929 28.7901 23.143 28.7682C23.1566 28.7625 23.1688 28.7569 23.1809 28.7512ZM19.1785 26.6956C19.3726 26.9718 19.5818 27.2275 19.8002 27.4599C19.7909 27.4402 19.7816 27.4211 19.7716 27.4013C19.7651 27.3879 19.7587 27.3738 19.7522 27.3603C19.735 27.3236 19.7178 27.2862 19.7014 27.248C19.6813 27.2028 19.6613 27.1569 19.6419 27.1103C19.6276 27.0764 19.614 27.0432 19.6004 27.0086C19.5796 26.9563 19.5588 26.904 19.5388 26.8503C19.5273 26.82 19.5159 26.7896 19.5051 26.7585C19.4843 26.6999 19.4636 26.6412 19.4435 26.5819C19.4342 26.5544 19.4256 26.5268 19.4163 26.4993C19.3726 26.3629 19.3311 26.2238 19.2938 26.0825L18.5747 25.6728L18.5804 25.6855C18.622 25.7703 18.6649 25.8536 18.7086 25.9356C18.791 26.0889 18.8784 26.2379 18.9694 26.3827C19.0195 26.4618 19.0703 26.5395 19.1226 26.6158C19.1413 26.6419 19.1599 26.6688 19.1785 26.6956ZM22.5134 22.5675C22.4561 22.5018 22.3988 22.4376 22.3401 22.3754C22.378 22.4524 22.4146 22.5315 22.4504 22.6128C22.5757 22.8981 22.6874 23.2061 22.7827 23.5289C22.8042 23.6024 22.8257 23.6766 22.845 23.7514L23.5641 24.1604C23.5348 24.1004 23.5047 24.0403 23.4739 23.9817C23.4603 23.9556 23.446 23.9287 23.4324 23.9026C23.3894 23.8221 23.345 23.743 23.2991 23.6653C23.2755 23.625 23.2519 23.5854 23.2282 23.5459C23.2146 23.524 23.2017 23.5028 23.1881 23.4809C23.1652 23.4442 23.1416 23.4074 23.1179 23.3707C23.0986 23.341 23.0792 23.3114 23.0592 23.2817C23.0227 23.2273 22.9861 23.1736 22.9482 23.1206C22.9066 23.062 22.8644 23.0048 22.8221 22.9476C22.8035 22.9229 22.7841 22.8974 22.7655 22.8734C22.7519 22.8557 22.7383 22.8381 22.7247 22.8211C22.6975 22.7865 22.6695 22.7519 22.6416 22.718C22.628 22.701 22.6137 22.6841 22.5993 22.6671C22.57 22.6332 22.542 22.6 22.5134 22.5675Z" fill="white"/>
<path d="M26.0475 26.8125C26.5138 27.0781 26.8913 27.7223 26.8891 28.2507C26.8877 28.779 26.5081 28.9924 26.0418 28.7268C25.5755 28.4612 25.1988 27.8176 25.2002 27.2893C25.2016 26.7602 25.5812 26.5469 26.0475 26.8125Z" fill="#50E6FF"/>
<path d="M24.6414 31.6767C25.1077 31.9423 25.4852 32.5866 25.483 33.1149C25.4816 33.6433 25.102 33.8566 24.6357 33.591C24.1694 33.3254 23.7926 32.6819 23.7941 32.1528C23.7962 31.6245 24.1758 31.4111 24.6414 31.6767Z" fill="#50E6FF"/>
<path d="M17.4488 16.1977C17.9158 16.4633 18.2925 17.1068 18.2911 17.6359C18.2897 18.1643 17.91 18.3776 17.4438 18.112C16.9775 17.8464 16.6 17.2022 16.6014 16.6738C16.6029 16.1455 16.9825 15.9321 17.4488 16.1977Z" fill="#50E6FF"/>
<path d="M18.0126 29.5345C18.3419 29.3457 18.3411 28.7382 18.0108 28.1776C17.6804 27.617 17.1456 27.3156 16.8162 27.5044C16.4868 27.6932 16.4877 28.3006 16.818 28.8612C17.1484 29.4218 17.6832 29.7232 18.0126 29.5345Z" fill="#50E6FF"/>
<path d="M15.9877 21.0854C16.454 21.351 16.8315 21.9953 16.8293 22.5236C16.8279 23.052 16.4483 23.2653 15.982 22.9997C15.5164 22.7341 15.1397 22.0899 15.1411 21.5615C15.1425 21.0332 15.5222 20.8198 15.9877 21.0854Z" fill="#50E6FF"/>
<path d="M24.731 22.2614C24.2647 21.9958 23.8873 21.3516 23.8894 20.8233C23.8916 20.2949 24.2705 20.0816 24.7367 20.3471C25.203 20.6127 25.5805 21.257 25.5784 21.7853C25.5769 22.3137 25.1973 22.527 24.731 22.2614Z" fill="#50E6FF"/>
<path d="M9.05396 4.7793L34.7682 19.6041V20.251V22.7308L9.05396 7.85207V5.37229V4.7793ZM13.0432 9.41541C13.4205 9.63104 13.6901 9.46932 13.6901 9.03805C13.6901 8.60679 13.4205 8.12161 13.0432 7.90598C12.6658 7.74425 12.3963 7.90598 12.3963 8.28334C12.3963 8.7146 12.6658 9.25369 13.0432 9.41541ZM10.9947 8.28334C11.372 8.49897 11.6416 8.33725 11.6416 7.90598C11.6416 7.47471 11.372 6.98954 10.9947 6.7739C10.6712 6.55827 10.3478 6.72 10.3478 7.15126C10.3478 7.52862 10.6712 8.0677 10.9947 8.28334ZM15.1456 10.6553C15.523 10.8709 15.7925 10.7092 15.7925 10.2779C15.7925 9.84668 15.523 9.3615 15.1456 9.14587C14.7682 8.93024 14.4987 9.09196 14.4987 9.52323C14.4448 9.90059 14.7682 10.4397 15.1456 10.6553Z" fill="#45CAF2"/>
<path d="M11.0483 6.77365C11.4257 6.98928 11.6952 7.47446 11.6952 7.90573C11.6952 8.33699 11.4257 8.49872 11.0483 8.28308C10.671 8.06745 10.3475 7.52837 10.3475 7.15101C10.3475 6.77365 10.671 6.55802 11.0483 6.77365Z" fill="#0078D4"/>
<path d="M13.0431 7.95986C13.4205 8.1755 13.69 8.66067 13.69 9.09194C13.69 9.5232 13.4205 9.63102 13.0431 9.41539C12.6658 9.19975 12.3962 8.71458 12.3962 8.28331C12.3962 7.90596 12.6658 7.74423 13.0431 7.95986Z" fill="#0078D4"/>
<path d="M15.1457 9.14539C15.523 9.36102 15.7926 9.8462 15.7926 10.2775C15.7926 10.7087 15.523 10.8705 15.1457 10.6548C14.7683 10.4392 14.4988 9.95401 14.4988 9.52275C14.4988 9.09148 14.7683 8.92976 15.1457 9.14539Z" fill="#0078D4"/>
<path d="M34.7681 19.604L37.7869 17.8789V20.9517L34.7681 22.6767V19.604Z" fill="#32B0E7"/>
<path d="M9.05347 4.77897L12.0723 3L37.7866 17.8248L34.7677 19.6038L9.05347 4.77897Z" fill="#50E6FF"/>
</svg>
