<svg xmlns="http://www.w3.org/2000/svg" viewBox="0 0 2048 2048">
  <path d="M1408 1664h384v128h-384v128H512v-128H128v-128h384v-128h256v-128h128v-129q-38-2-90-8t-110-19-113-33-100-50-71-68-28-90V256q0-54 32-93t83-68 116-47 128-29T864 4t96-4q38 0 95 4t122 14 128 29 115 47 84 68 32 94v755q0 51-27 90t-72 68-100 49-113 33-109 19-91 9v129h128v128h256v128zM512 256q0 11 14 23t32 23 36 19 26 11q37 15 80 25t87 16 89 8 84 3q40 0 84-2t88-9 87-16 81-25q7-3 25-11t36-18 33-23 14-24q0-11-14-23t-32-23-37-19-25-11q-38-15-80-25t-87-16-89-8-84-3q-40 0-84 2t-88 9-88 16-80 25q-8 3-25 11t-36 18-33 23-14 24zm0 755q0 14 13 27t32 24 36 21 29 13q37 16 79 26t87 17 87 10 85 3q40 0 84-3t88-9 86-17 80-27q10-4 28-13t37-20 31-25 14-27V423q-44 25-100 42t-117 27-121 15-110 5q-50 0-110-4t-120-15-118-28-100-42v588zm768 781v-128h-256v-128H896v128H640v128h640z" />
</svg>