<svg width="36" height="41" viewBox="0 0 36 41" fill="none" xmlns="http://www.w3.org/2000/svg">
<path d="M27.6923 35.5333H36V38.2667H27.6923V41H8.30769V38.2667H0V35.5333H8.30769V32.8H13.8462V30.0667H16.6154V27.312C16.0673 27.2835 15.4183 27.2266 14.6683 27.1411C13.9183 27.0557 13.125 26.9205 12.2885 26.7354C11.4519 26.5503 10.637 26.3155 9.84375 26.0307C9.05048 25.746 8.32933 25.3901 7.68029 24.963C7.03125 24.5359 6.51923 24.0519 6.14423 23.5109C5.76923 22.97 5.56731 22.3293 5.53846 21.5891V5.46667C5.53846 4.69792 5.76923 4.03594 6.23077 3.48073C6.69231 2.92552 7.29087 2.44149 8.02644 2.02865C8.76202 1.6158 9.59856 1.28125 10.5361 1.025C11.4736 0.76875 12.3966 0.562326 13.3053 0.405729C14.2139 0.249132 15.0865 0.142361 15.9231 0.0854167C16.7596 0.0284722 17.4519 0 18 0C18.5481 0 19.2332 0.0284722 20.0553 0.0854167C20.8774 0.142361 21.7572 0.242014 22.6947 0.384375C23.6322 0.526736 24.5553 0.73316 25.4639 1.00365C26.3726 1.27413 27.2019 1.60868 27.9519 2.00729C28.7019 2.4059 29.3077 2.88993 29.7692 3.45938C30.2308 4.02882 30.4615 4.69792 30.4615 5.46667V21.5891C30.4615 22.3151 30.2668 22.9557 29.8774 23.5109C29.488 24.0661 28.9688 24.5502 28.3197 24.963C27.6707 25.3759 26.9495 25.7247 26.1563 26.0094C25.363 26.2941 24.5481 26.529 23.7115 26.7141C22.875 26.8991 22.0889 27.0344 21.3534 27.1198C20.6178 27.2052 19.9615 27.2693 19.3846 27.312V30.0667H22.1538V32.8H27.6923V35.5333ZM8.30769 5.46667C8.30769 5.62326 8.40865 5.78698 8.61058 5.95781C8.8125 6.12865 9.04327 6.29236 9.30288 6.44896C9.5625 6.60556 9.82212 6.7408 10.0817 6.85469C10.3413 6.96858 10.5288 7.04688 10.6442 7.08958C11.1779 7.30313 11.7548 7.48108 12.375 7.62344C12.9952 7.7658 13.6226 7.87969 14.2572 7.9651C14.8918 8.05052 15.5337 8.10747 16.1827 8.13594C16.8317 8.16441 17.4375 8.18576 18 8.2C18.5769 8.2 19.1827 8.18576 19.8173 8.15729C20.4519 8.12882 21.0865 8.06476 21.7212 7.9651C22.3558 7.86545 22.9832 7.75156 23.6034 7.62344C24.2236 7.49531 24.8077 7.31736 25.3558 7.08958C25.4567 7.04688 25.637 6.96858 25.8966 6.85469C26.1563 6.7408 26.4159 6.61267 26.6755 6.47031C26.9351 6.32795 27.1731 6.16424 27.3894 5.97917C27.6058 5.7941 27.7067 5.62326 27.6923 5.46667C27.6923 5.31007 27.5913 5.14635 27.3894 4.97552C27.1875 4.80469 26.9567 4.64097 26.6971 4.48438C26.4375 4.32778 26.1707 4.19253 25.8966 4.07865C25.6226 3.96476 25.4423 3.88646 25.3558 3.84375C24.8077 3.63021 24.2308 3.45226 23.625 3.3099C23.0192 3.16753 22.3918 3.05365 21.7428 2.96823C21.0938 2.88281 20.4519 2.82587 19.8173 2.7974C19.1827 2.76892 18.5769 2.74757 18 2.73333C17.4231 2.73333 16.8173 2.74757 16.1827 2.77604C15.5481 2.80451 14.9135 2.86858 14.2788 2.96823C13.6442 3.06788 13.0096 3.18177 12.375 3.3099C11.7404 3.43802 11.1635 3.61597 10.6442 3.84375C10.5288 3.88646 10.3486 3.96476 10.1034 4.07865C9.85817 4.19253 9.59856 4.32066 9.32452 4.46302C9.05048 4.60538 8.8125 4.7691 8.61058 4.95417C8.40865 5.13924 8.30769 5.31007 8.30769 5.46667ZM8.30769 21.5891C8.30769 21.7884 8.40144 21.9806 8.58894 22.1656C8.77644 22.3507 9.00721 22.5215 9.28125 22.6781C9.55529 22.8347 9.8149 22.9842 10.0601 23.1266C10.3053 23.2689 10.5144 23.3615 10.6875 23.4042C11.2212 23.6319 11.7909 23.817 12.3966 23.9594C13.0024 24.1017 13.6298 24.2227 14.2788 24.3224C14.9279 24.422 15.5553 24.4932 16.1611 24.5359C16.7668 24.5786 17.3798 24.6 18 24.6C18.5769 24.6 19.1827 24.5786 19.8173 24.5359C20.4519 24.4932 21.0865 24.4292 21.7212 24.3438C22.3558 24.2583 22.976 24.1373 23.5817 23.9807C24.1875 23.8241 24.7644 23.6319 25.3125 23.4042C25.4567 23.3472 25.6587 23.2547 25.9183 23.1266C26.1779 22.9984 26.4447 22.8561 26.7188 22.6995C26.9928 22.5429 27.2163 22.3649 27.3894 22.1656C27.5625 21.9663 27.6635 21.7741 27.6923 21.5891V9.03281C27.0577 9.38872 26.3365 9.68767 25.5288 9.92969C24.7212 10.1717 23.8774 10.3639 22.9976 10.5063C22.1178 10.6486 21.2452 10.7554 20.3798 10.8266C19.5144 10.8977 18.7212 10.9333 18 10.9333C17.2788 10.9333 16.4856 10.9049 15.6202 10.8479C14.7548 10.791 13.8894 10.6842 13.024 10.5276C12.1587 10.371 11.3077 10.1717 10.4712 9.92969C9.63462 9.68767 8.91346 9.38872 8.30769 9.03281V21.5891ZM24.9231 38.2667V35.5333H19.3846V32.8H16.6154V35.5333H11.0769V38.2667H24.9231Z" fill="url(#paint0_linear)"/>
<defs>
<linearGradient id="paint0_linear" x1="17.9332" y1="0.0142495" x2="17.9332" y2="40.8533" gradientUnits="userSpaceOnUse">
<stop stop-color="#32D4F5"/>
<stop offset="0.177083" stop-color="#31D0F1"/>
<stop offset="0.333333" stop-color="#2CC3E6"/>
<stop offset="0.494792" stop-color="#25AFD4"/>
<stop offset="0.8125" stop-color="#1C92BA"/>
<stop offset="1" stop-color="#198AB3"/>
</linearGradient>
</defs>
</svg>
