<svg width="32" height="32" viewBox="0 0 32 32" fill="none" xmlns="http://www.w3.org/2000/svg">
<path d="M0 20V10H10V20H0ZM2 12V18H8V12H2ZM22 20V18H24V20H22ZM26 20V18H28V20H26ZM30 20V18H32V20H30ZM22 24V22H24V24H22ZM22 28V26H24V28H22ZM26 28V26H28V28H26ZM30 28V26H32V28H30ZM30 24V22H32V24H30ZM22 4V2H24V4H22ZM26 4V2H28V4H26ZM30 2H32V4H30V2ZM22 8V6H24V8H22ZM22 12V10H24V12H22ZM26 12V10H28V12H26ZM30 12V10H32V12H30ZM30 8V6H32V8H30ZM12 12.125V9.875L20 5.875V8.125L12 12.125ZM12 20.125V17.875L20 21.875V24.125L12 20.125Z" fill="url(#paint0_linear)"/>
<defs>
<linearGradient id="paint0_linear" x1="15.9996" y1="-1.18248" x2="15.9996" y2="34.4255" gradientUnits="userSpaceOnUse">
<stop offset="0.1" stop-color="#54AEF0"/>
<stop offset="1" stop-color="#1988D9"/>
</linearGradient>
</defs>
</svg>
