<svg width="32" height="29" viewBox="0 0 32 29" fill="none" xmlns="http://www.w3.org/2000/svg">
<path d="M4.00195 18.9624L6.00293 16.9614V24.0117H4.00195V18.9624ZM0 22.9643L2.00098 20.9634V24.0117H0V22.9643ZM16.0078 21.0572V12.9595L18.0088 14.7259V19.0562L16.0078 21.0572ZM14.0068 24.0117H12.0059V10.9585L13.0064 9.95799L14.0068 10.9585V24.0117ZM8.00391 14.9604L10.0049 12.9595V24.0117H8.00391V14.9604ZM13.0064 6.40938L0 19.4314V16.5862L13.0064 3.59551L18.0088 8.58232L24.5901 2.00098H20.0098V0H28.0137V8.00391H26.0127V3.42355L18.0088 11.4275L13.0064 6.40938ZM26.0127 10.0049C26.836 10.0049 27.6124 10.1612 28.342 10.4739C29.0715 10.7865 29.7072 11.2138 30.2491 11.7557C30.7911 12.2977 31.2184 12.9386 31.531 13.6786C31.8437 14.4185 32 15.1949 32 16.0078C32 16.8416 31.8437 17.618 31.531 18.3371C31.2184 19.0562 30.7911 19.6919 30.2491 20.2443C29.7072 20.7966 29.0715 21.2291 28.342 21.5418C27.6124 21.8544 26.836 22.0107 26.0127 22.0107C25.3874 22.0107 24.7777 21.917 24.1837 21.7294C23.5896 21.5418 23.0425 21.2656 22.5423 20.9008L15.7108 27.7167C15.5128 27.9147 15.2783 28.0137 15.0073 28.0137C14.7364 28.0137 14.5019 27.9147 14.3039 27.7167C14.1058 27.5186 14.0068 27.2842 14.0068 27.0132C14.0068 26.7422 14.1058 26.5077 14.3039 26.3097L21.1197 19.4783C20.7549 18.978 20.4787 18.4309 20.2912 17.8368C20.1036 17.2428 20.0098 16.6331 20.0098 16.0078C20.0098 15.1845 20.1661 14.4081 20.4787 13.6786C20.7914 12.949 21.2187 12.3133 21.7606 11.7714C22.3026 11.2294 22.9383 10.7969 23.6678 10.4739C24.3973 10.1508 25.179 9.99446 26.0127 10.0049ZM26.0127 20.0098C26.5651 20.0098 27.0809 19.9056 27.5603 19.6971C28.0397 19.4887 28.467 19.2021 28.8422 18.8373C29.2174 18.4726 29.504 18.0505 29.702 17.5711C29.9 17.0917 30.0042 16.5706 30.0147 16.0078C30.0147 15.4555 29.9104 14.9396 29.702 14.4602C29.4936 13.9808 29.207 13.5535 28.8422 13.1783C28.4774 12.8031 28.0554 12.5165 27.576 12.3185C27.0966 12.1205 26.5755 12.0163 26.0127 12.0059C25.4603 12.0059 24.9445 12.1101 24.4651 12.3185C23.9857 12.527 23.5584 12.8135 23.1832 13.1783C22.808 13.5431 22.5214 13.9652 22.3234 14.4446C22.1254 14.924 22.0212 15.445 22.0107 16.0078C22.0107 16.5602 22.115 17.076 22.3234 17.5554C22.5318 18.0348 22.8184 18.4621 23.1832 18.8373C23.548 19.2125 23.97 19.4991 24.4494 19.6971C24.9288 19.8951 25.4499 19.9993 26.0127 20.0098Z" fill="url(#paint0_linear)"/>
<defs>
<linearGradient id="paint0_linear" x1="15.9406" y1="0.00973612" x2="15.9406" y2="27.9135" gradientUnits="userSpaceOnUse">
<stop stop-color="#32D4F5"/>
<stop offset="0.177083" stop-color="#31D0F1"/>
<stop offset="0.333333" stop-color="#2CC3E6"/>
<stop offset="0.494792" stop-color="#25AFD4"/>
<stop offset="0.8125" stop-color="#1C92BA"/>
<stop offset="1" stop-color="#198AB3"/>
</linearGradient>
</defs>
</svg>
