<svg width="40" height="40" viewBox="0 0 40 40" fill="none" xmlns="http://www.w3.org/2000/svg">
<path d="M15 22.5H12.5V12.5H15V22.5ZM12.5 25H15V27.5H12.5V25ZM40 40H17.5L28.75 17.5L40 40ZM21.0352 37.8125H36.4648L28.75 22.3828L21.0352 37.8125ZM30 27.5V33.75H27.5V27.5H30ZM27.5 35H30V37.5H27.5V35ZM2.5 37.5H15.957C15.7487 37.9167 15.5469 38.3333 15.3516 38.75C15.1562 39.1667 14.9414 39.5833 14.707 40H0V0H30C30.3516 0 30.6771 0.0651042 30.9766 0.195312C31.276 0.325521 31.5365 0.501302 31.7578 0.722656C31.9792 0.94401 32.1615 1.21094 32.3047 1.52344C32.4479 1.83594 32.513 2.16146 32.5 2.5V11.875C32.5 12.6953 32.3503 13.4375 32.0508 14.1016C31.7513 14.7656 31.3346 15.4036 30.8008 16.0156L29.5312 13.4766C29.6745 13.2292 29.7852 12.9753 29.8633 12.7148C29.9414 12.4544 29.987 12.1745 30 11.875V2.5H27.5V11.875C27.5 12.1615 27.5391 12.4349 27.6172 12.6953C27.6953 12.9557 27.8125 13.2161 27.9688 13.4766L26.6992 16.0156C26.1654 15.4167 25.7487 14.7852 25.4492 14.1211C25.1497 13.457 25 12.7083 25 11.875V2.5H2.5V37.5Z" fill="url(#paint0_linear)"/>
<defs>
<linearGradient id="paint0_linear" x1="19.9258" y1="0.013902" x2="19.9258" y2="39.8569" gradientUnits="userSpaceOnUse">
<stop stop-color="#32D4F5"/>
<stop offset="0.177083" stop-color="#31D0F1"/>
<stop offset="0.333333" stop-color="#2CC3E6"/>
<stop offset="0.494792" stop-color="#25AFD4"/>
<stop offset="0.8125" stop-color="#1C92BA"/>
<stop offset="1" stop-color="#198AB3"/>
</linearGradient>
</defs>
</svg>
