<svg width="46" height="46" viewBox="0 0 46 46" fill="none" xmlns="http://www.w3.org/2000/svg">
<path d="M35.4857 14.2468L36.3488 13.7461L36.2778 38.6967L35.4159 39.1987L35.4857 14.2468Z" fill="#0078D4"/>
<path d="M35.4856 14.2467L35.4158 39.1985L16.8036 28.4525L16.8746 3.50195L35.4856 14.2467Z" fill="#0078D4"/>
<path d="M12.2517 7.67363C12.2517 7.67363 14.1947 7.42999 15.6664 6.44196C17.138 5.45392 17.1025 4.854 17.1025 4.854L34.8724 15.1223C34.8724 15.1223 34.4255 15.4138 32.8437 16.3688C31.2619 17.3238 29.691 17.7401 29.691 17.7401L12.2517 7.67363Z" fill="#E8E8E8"/>
<path d="M30.8128 17.3588L13.4517 7.41549C13.7087 7.34346 13.9913 7.25347 14.2829 7.14209L31.5653 17.0404C31.296 17.1635 31.0419 17.2694 30.8128 17.3588Z" fill="#D9D9D9"/>
<path d="M32.3267 16.6629L15.1895 6.7291C15.3518 6.64109 15.5118 6.54542 15.6665 6.44152C15.72 6.40565 15.7714 6.37029 15.8209 6.33545L32.9846 16.2833C32.9387 16.3111 32.8918 16.3394 32.8439 16.3684C32.6707 16.4729 32.4976 16.571 32.3267 16.6629Z" fill="#D9D9D9"/>
<path d="M33.6834 15.859L16.4348 5.84851C16.6423 5.65895 16.7854 5.49337 16.8841 5.35449L34.3155 15.4711C34.1505 15.5732 33.9425 15.7011 33.6834 15.859Z" fill="#D9D9D9"/>
<path d="M29.856 17.7395L29.7899 41.1181L12.3506 31.0492L12.4167 7.67188L29.856 17.7395Z" fill="#707172"/>
<path d="M28.6833 17.8924L29.5452 17.3916L29.4755 42.3422L28.6123 42.8429L28.6833 17.8924Z" fill="#2195DC"/>
<path d="M28.6833 17.8924L28.6122 42.843L10 32.0983L10.071 7.14648L28.6833 17.8924Z" fill="#32B0E7"/>
<path d="M30.0437 42.9995L29.2208 42.4976L29.1498 17.5693L30.0129 18.0713L30.0437 42.9995Z" fill="#32B0E7"/>
<path d="M36.4462 14.3711V39.419C36.4462 39.419 36.4456 40.6653 34.3765 41.8591C32.3086 43.0528 30.0435 43 30.0435 43L30.0131 17.9671L33.7007 16.0747L36.4462 14.3711Z" fill="#2195DC"/>
<path d="M36.4462 20.7236V24.823C36.4462 24.823 36.4823 25.9364 34.1157 27.0832C31.874 28.0502 30.0497 28.1194 30.0497 28.1194V24.02C30.0497 24.02 32.1348 24.02 34.3765 22.7045C36.6181 21.389 36.4462 20.7236 36.4462 20.7236Z" fill="#45CAF2"/>
<path d="M35.8604 14.03L36.3489 13.7459L17.7367 3L16.8735 3.50197L35.4858 14.2582H35.486C35.333 14.5655 34.9299 15.0388 33.7497 15.7342C31.9193 16.8129 30.0706 17.2536 29.5453 17.3932L10.9343 6.64605L10.0712 7.14802L28.6834 17.894L29.1842 17.6026L30.013 18.0837C30.013 18.0837 32.2254 17.7042 34.3398 16.4639C36.4554 15.2225 36.4456 14.3703 36.4456 14.3703L35.8604 14.03Z" fill="#45CAF2"/>
<path d="M21.5611 23.9417C21.6939 24.0185 21.8178 24.1167 21.9312 24.2371C22.0453 24.3574 22.1463 24.4944 22.2349 24.648C22.3234 24.8009 22.3891 24.9537 22.4334 25.1066C22.477 25.2602 22.5026 25.4186 22.5081 25.5826C22.5074 25.7278 22.4832 25.8544 22.4355 25.9616C22.3878 26.0689 22.3193 26.1484 22.2307 26.1989L18.4447 28.3621C18.3562 28.4126 18.2524 28.4312 18.1355 28.4181C18.0186 28.4056 17.8961 28.3641 17.7695 28.2943C17.6429 28.2209 17.5205 28.1234 17.4036 28.001C17.2867 27.8785 17.1843 27.7395 17.0958 27.5824L15.3809 24.612C15.2923 24.4591 15.2245 24.3014 15.1775 24.1395C15.1305 23.9777 15.1056 23.8227 15.1028 23.6754C15.1035 23.5218 15.1291 23.3952 15.1803 23.2928C15.2315 23.1911 15.2999 23.1143 15.3857 23.0618C15.4715 23.0092 15.5711 22.9898 15.6852 23.005C15.8001 23.0196 15.9246 23.0631 16.0609 23.1344C16.1875 23.2077 16.3099 23.3053 16.4268 23.4277C16.5437 23.5501 16.6468 23.6878 16.7347 23.8407L17.7771 25.6455L20.8853 23.8684C20.9745 23.8179 21.0776 23.7992 21.1945 23.8116C21.3121 23.8248 21.4338 23.8684 21.5611 23.9417Z" fill="#FDFDFD"/>
</svg>
