<svg width="46" height="46" viewBox="0 0 46 46" fill="none" xmlns="http://www.w3.org/2000/svg">
<rect width="46" height="46" fill="white"/>
<path d="M7.22278 8.12567L10.1141 6.46268C11.5042 5.65891 13.3669 5.60348 15.4798 6.43497L12.5884 8.09795C10.4755 7.26646 8.61284 7.32189 7.22278 8.12567Z" fill="#32B0E7"/>
<path d="M39.1665 37.7822L36.2752 39.4452C37.6096 38.6692 38.4437 37.0616 38.4437 34.7612C38.4715 30.4928 35.6357 25.3099 31.8826 22.4274L34.7739 20.7644C38.5271 23.6469 41.335 28.8299 41.335 33.0982C41.335 35.3986 40.5288 37.0062 39.1665 37.7822Z" fill="#32B0E7"/>
<path d="M14.8404 5.32632L17.7317 3.66334C19.5388 2.61012 22.1243 2.77642 24.9601 4.41168C30.3813 7.54363 34.7461 14.833 34.7739 20.792L31.8826 22.455C31.8548 16.5237 27.49 9.20661 22.0687 6.07466C19.233 4.4394 16.6475 4.2731 14.8404 5.32632Z" fill="#32B0E7"/>
<path d="M31.8826 22.4272C31.8548 16.4959 27.49 9.17881 22.0687 6.04686C17.6761 3.52467 13.8951 4.49474 12.6163 8.07015C8.08467 6.29631 4.69291 8.59676 4.66511 13.7243C4.63731 19.4339 8.89091 26.5015 14.1453 29.5226C14.4234 29.6889 14.7014 29.8275 14.9794 29.9661L30.3813 38.863C30.5203 38.9462 30.6593 39.0016 30.7705 39.0293C35.0241 41.2743 38.4159 39.4173 38.4159 34.7887C38.4715 30.4927 35.6357 25.3097 31.8826 22.4272Z" fill="url(#paint0_linear)"/>
<path d="M26.9491 37.3807L26.9134 38.7386C26.9134 39.8107 26.1987 40.9184 24.7693 41.7403C21.9105 43.4199 17.265 43.4199 14.3705 41.7403C12.9054 40.9184 12.1907 39.8107 12.1907 38.7029L12.2264 37.345C12.2264 38.4527 12.9411 39.5248 14.4062 40.3824C17.3007 42.062 21.9463 42.062 24.8051 40.3824C26.2344 39.5605 26.9491 38.4527 26.9491 37.3807Z" fill="#DCDCDC"/>
<path d="M27.2349 25.6596L27.1992 38.1668C27.1992 39.3103 26.4488 40.4181 24.9837 41.2757C22.0177 42.991 17.1577 42.991 14.156 41.2757C12.6552 40.3823 11.9047 39.2388 11.9047 38.0953L11.9405 25.5881C11.9405 26.7316 12.6909 27.8752 14.1918 28.7328C17.1935 30.4481 22.0534 30.4481 25.0194 28.7328C26.5203 27.9109 27.2349 26.7674 27.2349 25.6596Z" fill="url(#paint1_linear)"/>
<path d="M27.2349 25.338L27.1992 26.7674C27.1992 27.9109 26.4488 29.0187 24.9837 29.8763C22.0177 31.5916 17.1577 31.5916 14.156 29.8763C12.6552 29.0187 11.9047 27.8752 11.9047 26.7316L11.9405 25.3022C11.9405 26.4458 12.6909 27.5893 14.1918 28.4469C17.1935 30.1622 22.0534 30.1622 25.0194 28.4469C26.5203 27.5893 27.2349 26.4815 27.2349 25.338Z" fill="#E2E2E2"/>
<path d="M24.9842 22.4793C27.9859 24.1946 27.9859 27.0176 25.0199 28.7686C22.054 30.4839 17.194 30.4839 14.1923 28.7686C11.1906 27.0176 11.1906 24.2303 14.1566 22.4793C17.1583 20.7641 21.9825 20.7641 24.9842 22.4793Z" fill="#F4F4F4"/>
<path d="M23.7329 23.2297C26.0199 24.5519 26.0199 26.696 23.7686 28.0181C21.4816 29.3403 17.8009 29.3403 15.5139 28.0181C13.1911 26.696 13.1554 24.5519 15.4424 23.2297C17.7295 21.9075 21.4101 21.9075 23.7329 23.2297Z" fill="#D2D2D2"/>
<defs>
<linearGradient id="paint0_linear" x1="22.3139" y1="-13.6525" x2="19.9293" y2="39.9801" gradientUnits="userSpaceOnUse">
<stop stop-color="#84ECFD"/>
<stop offset="1" stop-color="#4DC2EB"/>
</linearGradient>
<linearGradient id="paint1_linear" x1="11.9047" y1="34.0804" x2="30.336" y2="34.0751" gradientUnits="userSpaceOnUse">
<stop stop-color="#4DC2EB"/>
<stop offset="0.647794" stop-color="#0078D4"/>
</linearGradient>
</defs>
</svg>
