<svg width="46" height="46" viewBox="0 0 46 46" fill="none" xmlns="http://www.w3.org/2000/svg">
<path d="M7.2229 8.12542L10.1142 6.46244C11.5043 5.65867 13.367 5.60323 15.4799 6.43472L12.5885 8.0977C10.4756 7.26621 8.61296 7.32165 7.2229 8.12542Z" fill="white"/>
<path d="M39.1666 37.782L36.2752 39.445C37.6097 38.6689 38.4437 37.0614 38.4437 34.7609C38.4715 30.4926 35.6358 25.3096 31.8826 22.4271L34.774 20.7642C38.5271 23.6467 41.3351 28.8296 41.3351 33.0979C41.3351 35.3984 40.5288 37.0059 39.1666 37.782Z" fill="white"/>
<path d="M14.8405 5.32632L17.7318 3.66334C19.5389 2.61012 22.1244 2.77642 24.9601 4.41168C30.3814 7.54363 34.7462 14.833 34.774 20.792L31.8826 22.455C31.8548 16.5237 27.49 9.20661 22.0688 6.07466C19.2331 4.4394 16.6475 4.2731 14.8405 5.32632Z" fill="white"/>
<path d="M31.8826 22.4272C31.8548 16.4959 27.49 9.17881 22.0688 6.04686C17.6762 3.52467 13.8952 4.49474 12.6163 8.07015C8.08473 6.29631 4.69298 8.59676 4.66517 13.7243C4.63737 19.4339 8.89097 26.5015 14.1454 29.5226C14.4234 29.6889 14.7014 29.8275 14.9794 29.9661L30.3814 38.863C30.5204 38.9462 30.6594 39.0016 30.7706 39.0293C35.0242 41.2743 38.4159 39.4173 38.4159 34.7887C38.4715 30.4927 35.6358 25.3097 31.8826 22.4272Z" fill="url(#paint0_linear)"/>
<path d="M26.9493 37.3809L26.9135 38.7389C26.9135 39.8109 26.1988 40.9187 24.7694 41.7406C21.9107 43.4201 17.2651 43.4201 14.3706 41.7406C12.9055 40.9187 12.1908 39.8109 12.1908 38.7031L12.2265 37.3452C12.2265 38.453 12.9412 39.525 14.4064 40.3827C17.3009 42.0622 21.9464 42.0622 24.8052 40.3827C26.2346 39.5608 26.9493 38.453 26.9493 37.3809Z" fill="white"/>
<path d="M27.235 25.6598L27.1993 38.167C27.1993 39.3105 26.4488 40.4183 24.9837 41.2759C22.0177 42.9912 17.1578 42.9912 14.1561 41.2759C12.6552 40.3826 11.9048 39.2391 11.9048 38.0956L11.9405 25.5884C11.9405 26.7319 12.691 27.8754 14.1918 28.733C17.1935 30.4483 22.0535 30.4483 25.0195 28.733C26.5203 27.9111 27.235 26.7676 27.235 25.6598Z" fill="url(#paint1_linear)"/>
<path d="M27.235 25.338L27.1993 26.7674C27.1993 27.9109 26.4488 29.0187 24.9837 29.8763C22.0177 31.5916 17.1578 31.5916 14.1561 29.8763C12.6552 29.0187 11.9048 27.8752 11.9048 26.7316L11.9405 25.3022C11.9405 26.4458 12.691 27.5893 14.1918 28.4469C17.1935 30.1622 22.0535 30.1622 25.0195 28.4469C26.5203 27.5893 27.235 26.4815 27.235 25.338Z" fill="white"/>
<path d="M24.9842 22.4793C27.9859 24.1946 27.9859 27.0176 25.0199 28.7686C22.054 30.4839 17.194 30.4839 14.1923 28.7686C11.1906 27.0176 11.1906 24.2303 14.1566 22.4793C17.1583 20.7641 21.9825 20.7641 24.9842 22.4793Z" fill="white"/>
<path d="M23.733 23.2294C26.0201 24.5516 26.0201 26.6957 23.7688 28.0179C21.4817 29.3401 17.8011 29.3401 15.514 28.0179C13.1913 26.6957 13.1555 24.5516 15.4426 23.2294C17.7296 21.9072 21.4103 21.9072 23.733 23.2294Z" fill="#D2D2D2"/>
<defs>
<linearGradient id="paint0_linear" x1="22.3139" y1="-13.6525" x2="19.9293" y2="39.9801" gradientUnits="userSpaceOnUse">
<stop stop-color="#84ECFD"/>
<stop offset="1" stop-color="#4DC2EB"/>
</linearGradient>
<linearGradient id="paint1_linear" x1="11.9048" y1="34.0806" x2="30.3361" y2="34.0754" gradientUnits="userSpaceOnUse">
<stop stop-color="#4DC2EB"/>
<stop offset="0.647794" stop-color="#0078D4"/>
</linearGradient>
</defs>
</svg>
