<svg width="41" height="36" viewBox="0 0 41 36" fill="none" xmlns="http://www.w3.org/2000/svg">
<path d="M33.3125 12.9375C34.3669 12.9375 35.3612 13.1377 36.2954 13.5381C37.2296 13.9385 38.0438 14.4857 38.7378 15.1797C39.4318 15.8737 39.979 16.6945 40.3794 17.6421C40.7798 18.5897 40.98 19.584 40.98 20.625C40.98 21.6927 40.7798 22.687 40.3794 23.6079C39.979 24.5288 39.4318 25.3429 38.7378 26.0503C38.0438 26.7576 37.2296 27.3115 36.2954 27.7119C35.3612 28.1123 34.3669 28.3125 33.3125 28.3125C32.5117 28.3125 31.7376 28.1924 30.9902 27.9521C30.2428 27.7119 29.5355 27.3516 28.8682 26.8711L20.1196 35.6196C19.866 35.8732 19.5657 36 19.2187 36C18.8717 36 18.5714 35.8732 18.3179 35.6196C18.0643 35.366 17.9375 35.0658 17.9375 34.7188C17.9375 34.3717 18.0643 34.0715 18.3179 33.8179L27.0664 25.0693C26.5993 24.4154 26.2456 23.7147 26.0054 22.9673C25.7651 22.2199 25.6383 21.4391 25.625 20.625C25.625 19.5706 25.8252 18.5763 26.2256 17.6421C26.626 16.7078 27.1732 15.8937 27.8672 15.1997C28.5612 14.5057 29.3753 13.9518 30.3096 13.5381C31.2438 13.1243 32.2448 12.9242 33.3125 12.9375ZM33.3125 25.75C34.0198 25.75 34.6805 25.6165 35.2944 25.3496C35.9084 25.0827 36.4556 24.7157 36.936 24.2485C37.4165 23.7814 37.7835 23.2409 38.0371 22.627C38.2907 22.013 38.4241 21.3457 38.4375 20.625C38.4375 19.9176 38.304 19.257 38.0371 18.6431C37.7702 18.0291 37.4031 17.4819 36.936 17.0015C36.4689 16.521 35.9284 16.154 35.3144 15.9004C34.7005 15.6468 34.0332 15.5133 33.3125 15.5C32.6051 15.5 31.9445 15.6335 31.3306 15.9004C30.7166 16.1673 30.1694 16.5343 29.689 17.0015C29.2085 17.4686 28.8415 18.0091 28.5879 18.623C28.3343 19.237 28.2008 19.9043 28.1875 20.625C28.1875 21.3324 28.321 21.993 28.5879 22.6069C28.8548 23.2209 29.2218 23.7681 29.689 24.2485C30.1561 24.729 30.6966 25.096 31.3105 25.3496C31.9245 25.6032 32.5918 25.7367 33.3125 25.75ZM23.0625 25.75H10.25C8.83528 25.75 7.50731 25.4831 6.2661 24.9492C5.02489 24.4154 3.94384 23.6813 3.02294 22.7471C2.10204 21.8128 1.36799 20.7251 0.820789 19.4839C0.273589 18.2427 0.00666155 16.9147 0.0200079 15.5C0.0200079 14.0853 0.286935 12.7573 0.820789 11.5161C1.35464 10.2749 2.08202 9.19385 3.00292 8.27295C3.92382 7.35205 5.01154 6.618 6.2661 6.0708C7.52066 5.5236 8.84862 5.25 10.25 5.25C10.8639 5.25 11.4845 5.31006 12.1118 5.43018C12.6457 4.61605 13.2663 3.882 13.9736 3.22803C14.681 2.57406 15.4484 2.02018 16.2759 1.56641C17.1033 1.11263 17.9842 0.758952 18.9184 0.505371C19.8527 0.25179 20.807 0.125 21.7812 0.125C23.2493 0.125 24.6374 0.385254 25.9453 0.905762C27.2532 1.42627 28.4277 2.14697 29.4687 3.06787C30.5098 3.98877 31.3573 5.06982 32.0112 6.31104C32.6652 7.55225 33.0789 8.9069 33.2524 10.375C32.812 10.375 32.3782 10.4084 31.9512 10.4751C31.5241 10.5418 31.0903 10.6419 30.6499 10.7754C30.5431 9.6276 30.2362 8.5599 29.729 7.57227C29.2218 6.58464 28.5745 5.73047 27.7871 5.00977C26.9997 4.28906 26.0854 3.72184 25.0444 3.30811C24.0034 2.89437 22.9157 2.6875 21.7812 2.6875C20.847 2.6875 19.9461 2.82764 19.0786 3.10791C18.2111 3.38818 17.417 3.7819 16.6963 4.28906C15.9756 4.79622 15.3283 5.40348 14.7544 6.11084C14.1805 6.8182 13.7334 7.61898 13.4131 8.51318C12.4121 8.04606 11.3577 7.8125 10.25 7.8125C9.18228 7.8125 8.18798 8.0127 7.26708 8.41309C6.34618 8.81348 5.53205 9.36068 4.8247 10.0547C4.11734 10.7487 3.56347 11.5695 3.16307 12.5171C2.76268 13.4647 2.56249 14.459 2.56249 15.5C2.56249 16.5677 2.76268 17.562 3.16307 18.4829C3.56347 19.4038 4.11067 20.2179 4.80468 20.9253C5.49869 21.6326 6.31281 22.1865 7.24706 22.5869C8.1813 22.9873 9.18228 23.1875 10.25 23.1875H23.0625V25.75Z" fill="url(#paint0_linear_508:2034)"/>
<defs>
<linearGradient id="paint0_linear_508:2034" x1="20.4238" y1="0.137468" x2="20.4238" y2="35.8717" gradientUnits="userSpaceOnUse">
<stop stop-color="#32D4F5"/>
<stop offset="0.177083" stop-color="#31D0F1"/>
<stop offset="0.333333" stop-color="#2CC3E6"/>
<stop offset="0.494792" stop-color="#25AFD4"/>
<stop offset="0.8125" stop-color="#1C92BA"/>
<stop offset="1" stop-color="#198AB3"/>
</linearGradient>
</defs>
</svg>
