<svg width="17" height="11" viewBox="0 0 17 11" fill="none" xmlns="http://www.w3.org/2000/svg">
<path d="M13.7876 4.4375C14.2303 4.4375 14.6453 4.52051 15.0327 4.68652C15.4201 4.85254 15.7604 5.07666 16.0537 5.35889C16.347 5.64111 16.5767 5.97868 16.7427 6.37158C16.9087 6.76449 16.9945 7.18229 17 7.625C17 8.06771 16.917 8.47998 16.751 8.86182C16.585 9.24365 16.3581 9.58122 16.0703 9.87451C15.7826 10.1678 15.4422 10.3975 15.0493 10.5635C14.6564 10.7295 14.2441 10.8125 13.8125 10.8125H4.25C3.66341 10.8125 3.11279 10.7018 2.59814 10.4805C2.0835 10.2591 1.63249 9.95752 1.24512 9.57568C0.857747 9.19385 0.553385 8.74284 0.332031 8.22266C0.110677 7.70247 0 7.14909 0 6.5625C0 5.97591 0.110677 5.42529 0.332031 4.91064C0.553385 4.396 0.85498 3.94499 1.23682 3.55762C1.61865 3.17025 2.06966 2.86589 2.58984 2.64453C3.11003 2.42318 3.66341 2.3125 4.25 2.3125C4.50456 2.3125 4.76188 2.3374 5.02197 2.38721C5.24333 2.04411 5.49788 1.73698 5.78564 1.46582C6.0734 1.19466 6.3916 0.96224 6.74023 0.768555C7.08887 0.57487 7.4541 0.43099 7.83594 0.336914C8.21777 0.242839 8.61621 0.193034 9.03125 0.1875C9.64551 0.1875 10.2238 0.29541 10.7661 0.51123C11.3084 0.727051 11.7926 1.02311 12.2188 1.39941C12.6449 1.77572 12.9907 2.22673 13.2563 2.75244C13.522 3.27816 13.6991 3.83984 13.7876 4.4375ZM13.8125 9.75C14.1058 9.75 14.3797 9.69466 14.6343 9.58398C14.8888 9.47331 15.1157 9.32113 15.3149 9.12744C15.5142 8.93376 15.6663 8.70964 15.7715 8.45508C15.8766 8.20052 15.932 7.92383 15.9375 7.625C15.9375 7.33171 15.8822 7.05778 15.7715 6.80322C15.6608 6.54867 15.5086 6.32178 15.3149 6.12256C15.1213 5.92334 14.8971 5.77116 14.6426 5.66602C14.388 5.56087 14.1113 5.50553 13.8125 5.5H12.75V4.96875C12.75 4.4541 12.6532 3.97266 12.4595 3.52441C12.2658 3.07617 12.0002 2.6805 11.6626 2.3374C11.325 1.9943 10.9321 1.72868 10.4839 1.54053C10.0356 1.35238 9.55143 1.25553 9.03125 1.25C8.64388 1.25 8.27035 1.30811 7.91064 1.42432C7.55094 1.54053 7.22168 1.70378 6.92285 1.91406C6.62402 2.12435 6.35563 2.37614 6.11768 2.66943C5.87972 2.96273 5.69434 3.29476 5.56152 3.66553C5.14648 3.47184 4.70931 3.375 4.25 3.375C3.80729 3.375 3.39502 3.45801 3.01318 3.62402C2.63135 3.79004 2.29378 4.01693 2.00049 4.30469C1.70719 4.59245 1.47754 4.93278 1.31152 5.32568C1.14551 5.71859 1.0625 6.13086 1.0625 6.5625C1.0625 7.00521 1.14551 7.41748 1.31152 7.79932C1.47754 8.18115 1.70443 8.51872 1.99219 8.81201C2.27995 9.10531 2.61751 9.33496 3.00488 9.50098C3.39225 9.66699 3.80729 9.75 4.25 9.75H13.8125Z" fill="url(#paint0_linear_508:2036)"/>
<defs>
<linearGradient id="paint0_linear_508:2036" x1="8.46847" y1="0.191193" x2="8.46847" y2="10.7745" gradientUnits="userSpaceOnUse">
<stop stop-color="#32D4F5"/>
<stop offset="0.177083" stop-color="#31D0F1"/>
<stop offset="0.333333" stop-color="#2CC3E6"/>
<stop offset="0.494792" stop-color="#25AFD4"/>
<stop offset="0.8125" stop-color="#1C92BA"/>
<stop offset="1" stop-color="#198AB3"/>
</linearGradient>
</defs>
</svg>
