<svg width="37" height="33" viewBox="0 0 37 33" fill="none" xmlns="http://www.w3.org/2000/svg">
<path d="M30.0739 11.7857C31.0263 11.7857 31.9245 11.9699 32.7684 12.3382C33.6123 12.7065 34.3477 13.2098 34.9746 13.8482C35.6015 14.4866 36.0958 15.2416 36.4575 16.1133C36.8192 16.9849 37 17.8996 37 18.8571C37 19.8393 36.8192 20.7539 36.4575 21.601C36.0958 22.4481 35.6015 23.197 34.9746 23.8477C34.3477 24.4983 33.6123 25.0078 32.7684 25.3761C31.9245 25.7444 31.0263 25.9286 30.0739 25.9286C29.3505 25.9286 28.6513 25.8181 27.9762 25.5971C27.301 25.3761 26.6621 25.0446 26.0593 24.6027L18.1566 32.6501C17.9276 32.8834 17.6563 33 17.3428 33C17.0294 33 16.7581 32.8834 16.5291 32.6501C16.3 32.4169 16.1855 32.1406 16.1855 31.8214C16.1855 31.5022 16.3 31.226 16.5291 30.9927L24.4317 22.9453C24.0098 22.3438 23.6903 21.6992 23.4733 21.0117C23.2563 20.3242 23.1417 19.606 23.1297 18.8571C23.1297 17.8873 23.3105 16.9727 23.6722 16.1133C24.0339 15.2539 24.5282 14.505 25.1551 13.8666C25.782 13.2282 26.5174 12.7188 27.3613 12.3382C28.2052 11.9576 29.1094 11.7734 30.0739 11.7857ZM30.0739 23.5714C30.7128 23.5714 31.3096 23.4487 31.8642 23.2031C32.4188 22.9576 32.913 22.62 33.3471 22.1903C33.7811 21.7606 34.1126 21.2634 34.3417 20.6987C34.5707 20.1339 34.6913 19.5201 34.7034 18.8571C34.7034 18.2065 34.5828 17.5988 34.3417 17.034C34.1006 16.4693 33.769 15.966 33.3471 15.524C32.9251 15.082 32.4368 14.7444 31.8823 14.5112C31.3277 14.2779 30.7249 14.1551 30.0739 14.1429C29.4349 14.1429 28.8382 14.2656 28.2836 14.5112C27.729 14.7567 27.2347 15.0943 26.8007 15.524C26.3667 15.9537 26.0352 16.4509 25.8061 17.0156C25.577 17.5804 25.4565 18.1942 25.4444 18.8571C25.4444 19.5078 25.565 20.1155 25.8061 20.6802C26.0472 21.245 26.3787 21.7483 26.8007 22.1903C27.2227 22.6323 27.7109 22.9699 28.2655 23.2031C28.8201 23.4364 29.4229 23.5592 30.0739 23.5714ZM20.8149 23.5714H9.24128C7.96335 23.5714 6.76379 23.3259 5.64259 22.8348C4.52139 22.3438 3.54487 21.6685 2.71301 20.8092C1.88115 19.9498 1.21808 18.9492 0.723785 17.8075C0.229493 16.6657 -0.0116253 15.4442 0.000430568 14.1429C0.000430568 12.8415 0.241549 11.62 0.723785 10.4782C1.20602 9.3365 1.86307 8.34208 2.69493 7.49498C3.52678 6.64788 4.50934 5.97266 5.64259 5.46931C6.77585 4.96596 7.97541 4.71429 9.24128 4.71429C9.79585 4.71429 10.3565 4.76953 10.9231 4.88002C11.4053 4.13114 11.9659 3.45592 12.6049 2.85435C13.2438 2.25279 13.9371 1.7433 14.6845 1.32589C15.432 0.908482 16.2277 0.583147 17.0716 0.349888C17.9155 0.116629 18.7775 0 19.6576 0C20.9837 0 22.2375 0.239397 23.419 0.718192C24.6005 1.19699 25.6614 1.85993 26.6018 2.70703C27.5421 3.55413 28.3077 4.54855 28.8984 5.69029C29.4892 6.83203 29.8629 8.07812 30.0196 9.42857C29.6218 9.42857 29.23 9.45926 28.8442 9.52065C28.4584 9.58203 28.0666 9.67411 27.6687 9.79688C27.5723 8.74107 27.295 7.75893 26.8369 6.85045C26.3787 5.94196 25.794 5.15625 25.0827 4.4933C24.3714 3.83036 23.5456 3.30859 22.6053 2.92801C21.6649 2.54743 20.6823 2.35714 19.6576 2.35714C18.8137 2.35714 17.9999 2.48605 17.2163 2.74386C16.4326 3.00167 15.7153 3.36384 15.0643 3.83036C14.4133 4.29688 13.8286 4.85547 13.3101 5.50614C12.7917 6.15681 12.3879 6.89342 12.0985 7.71596C11.1943 7.28627 10.2419 7.07143 9.24128 7.07143C8.27681 7.07143 7.37864 7.25558 6.54679 7.62388C5.71493 7.99219 4.97952 8.49554 4.34056 9.13393C3.70159 9.77232 3.20127 10.5273 2.8396 11.399C2.47792 12.2706 2.29708 13.1853 2.29708 14.1429C2.29708 15.125 2.47792 16.0396 2.8396 16.8867C3.20127 17.7338 3.69556 18.4827 4.32247 19.1334C4.94938 19.784 5.68479 20.2935 6.5287 20.6618C7.37262 21.0301 8.27681 21.2143 9.24128 21.2143H20.8149V23.5714Z" fill="url(#paint0_linear_510:2041)" stroke="url(#paint1_linear_510:2041)" stroke-width="0.001"/>
<defs>
<linearGradient id="paint0_linear_510:2041" x1="18.4314" y1="0.0114691" x2="18.4314" y2="32.882" gradientUnits="userSpaceOnUse">
<stop stop-color="#32D4F5"/>
<stop offset="0.177083" stop-color="#31D0F1"/>
<stop offset="0.333333" stop-color="#2CC3E6"/>
<stop offset="0.494792" stop-color="#25AFD4"/>
<stop offset="0.8125" stop-color="#1C92BA"/>
<stop offset="1" stop-color="#198AB3"/>
</linearGradient>
<linearGradient id="paint1_linear_510:2041" x1="18.4314" y1="0.0114691" x2="18.4314" y2="32.882" gradientUnits="userSpaceOnUse">
<stop stop-color="#32D4F5"/>
<stop offset="0.177083" stop-color="#31D0F1"/>
<stop offset="0.333333" stop-color="#2CC3E6"/>
<stop offset="0.494792" stop-color="#25AFD4"/>
<stop offset="0.8125" stop-color="#1C92BA"/>
<stop offset="1" stop-color="#198AB3"/>
</linearGradient>
</defs>
</svg>
