<svg xmlns="http://www.w3.org/2000/svg" class="fxs-portal-svg" id="FxSymbol0-126" role="presentation" viewBox="0 0 50 50" focusable="false" xmlns:xlink="http://www.w3.org/1999/xlink" data-type="140" xmlns:svg="http://www.w3.org/2000/svg"><g><title/><path class="msportalfx-svg-c10" fill="#ff8c00" d="M 23.987 40.351 h -3.951 c 0.957 5.788 -2.336 6.618 -7.968 6.618 V 50 h 19.151 v -3.031 c -5.631 0 -8.19 -0.827 -7.232 -6.618"/><path class="msportalfx-svg-c11" fill="#fcd116" d="M 12.07 46.968 h 19.151 V 50 H 12.07 Z"/><path class="msportalfx-svg-c15" fill="#59b4d9" stroke="#59b4d9" stroke-miterlimit="10" stroke-width="0.232" d="M 23.968 30.928 a 2.315 2.315 0 0 1 3.274 0 l -3.66 -3.66 a 2.315 2.315 0 0 1 3.274 -3.274 l 0.971 0.971 l 0.756 0.686 l 1.79 1.79 a 2.315 2.315 0 0 0 3.274 -3.274 l -1.79 -1.79 l -1.133 -1.133 l -5.447 -5.447 a 2.315 2.315 0 0 1 3.274 -3.274 l 2.387 2.387 a 2.315 2.315 0 0 1 3.274 -3.274 l 6.195 6.195 A 18.63 18.63 0 0 0 34.949 5.48 A 18.636 18.636 0 0 0 23.617 0.097 l 2.778 2.778 a 2.92 2.92 0 1 1 -4.131 4.131 l -1.9 -1.9 a 2.92 2.92 0 1 0 -4.131 4.131 l 3.743 3.743 a 2.92 2.92 0 1 1 -4.131 4.131 l -4.106 -4.106 a 2.92 2.92 0 0 1 -4.722 3.273 l 2.988 2.988 a 2.92 2.92 0 1 1 -4.131 4.131 l -2.778 -2.778 a 18.633 18.633 0 0 0 5.383 11.332 c 4.898 4.898 11.834 6.508 18.077 4.842 l -2.589 -2.589 a 2.317 2.317 0 0 1 0.001 -3.276 Z"/><path class="msportalfx-svg-c13" fill="#b8d432" d="M 40.409 17.831 l -6.195 -6.195 a 2.315 2.315 0 0 0 -3.274 3.274 l -2.387 -2.387 a 2.315 2.315 0 0 0 -3.274 3.274 l 5.447 5.447 l 1.133 1.133 l 1.79 1.79 a 2.315 2.315 0 0 1 -3.274 3.274 l -1.79 -1.79 l -0.756 -0.686 l -0.971 -0.971 a 2.315 2.315 0 0 0 -3.274 3.274 l 3.66 3.66 a 2.315 2.315 0 0 0 -3.274 3.274 l 2.589 2.589 a 18.62 18.62 0 0 0 8.392 -4.842 a 18.673 18.673 0 0 0 5.458 -14.118 Z m -30.404 5.563 a 2.92 2.92 0 0 0 0 -4.131 l -2.988 -2.988 a 2.92 2.92 0 1 0 4.722 -3.273 l 4.106 4.106 a 2.92 2.92 0 1 0 4.131 -4.131 l -3.743 -3.743 a 2.92 2.92 0 1 1 4.131 -4.131 l 1.9 1.9 a 2.92 2.92 0 1 0 4.131 -4.131 L 23.617 0.094 C 18.214 -0.452 12.619 1.341 8.48 5.48 s -5.932 9.734 -5.383 15.137 l 2.778 2.778 a 2.92 2.92 0 0 0 4.13 -0.001 Z"/><path class="msportalfx-svg-c11" fill="#fcd116" d="M 21.714 43.656 c -6.662 0 -12.926 -2.594 -17.637 -7.305 a 1.74 1.74 0 1 1 2.461 -2.461 a 21.32 21.32 0 0 0 15.176 6.286 A 21.32 21.32 0 0 0 36.89 33.89 c 4.054 -4.054 6.286 -9.443 6.286 -15.176 S 40.944 7.592 36.89 3.538 a 1.74 1.74 0 1 1 2.461 -2.461 c 4.711 4.711 7.305 10.974 7.305 17.637 s -2.594 12.926 -7.305 17.637 s -10.975 7.305 -17.637 7.305 Z"/></g><defs>
<linearGradient id="a" gradientUnits="userSpaceOnUse" x1="9" y1="16.39" x2="9" y2="-1.94"><stop stop-color="rgb(0, 120, 212)" offset="0"/><stop stop-color="rgb(19, 128, 218)" offset="0.16"/><stop stop-color="rgb(60, 145, 229)" offset="0.53"/><stop stop-color="rgb(85, 156, 236)" offset="0.82"/><stop stop-color="rgb(94, 160, 239)" offset="1"/></linearGradient>
<linearGradient id="b" gradientUnits="userSpaceOnUse" x1="9.88" y1="7.11" x2="9.99" y2="17.27"><stop stop-color="rgb(50, 212, 245)" offset="0"/><stop stop-color="rgb(49, 209, 243)" offset="0.32"/><stop stop-color="rgb(46, 201, 235)" offset="0.53"/><stop stop-color="rgb(41, 186, 222)" offset="0.7"/><stop stop-color="rgb(34, 165, 203)" offset="0.86"/><stop stop-color="rgb(25, 138, 179)" offset="1"/><stop stop-color="rgb(25, 138, 179)" offset="1"/></linearGradient>
<radialGradient id="c" gradientUnits="userSpaceOnUse" cx="9.43" cy="7.03" r="7.27"><stop stop-color="rgb(242, 242, 242)" offset="0"/><stop stop-color="rgb(238, 238, 238)" offset="0.58"/><stop stop-color="rgb(230, 230, 230)" offset="1"/></radialGradient>
</defs>
</svg>