<svg width="20" height="20" viewBox="0 0 20 20" fill="none" xmlns="http://www.w3.org/2000/svg">
<g clip-path="url(#clip0)">
<path d="M16.2778 20C16.4712 20.0074 16.6641 19.9759 16.8451 19.9074C17.026 19.8388 17.1914 19.7346 17.3313 19.6009C17.4712 19.4672 17.5828 19.3068 17.6595 19.1291C17.7362 18.9514 17.7765 18.7601 17.7778 18.5666V18.3888C17.2111 13.8666 14.6222 10.1889 9.70002 10.1889C4.7778 10.1889 2.05558 13.3333 1.55558 18.4C1.53247 18.5901 1.5477 18.7829 1.60037 18.9671C1.65303 19.1512 1.74207 19.3229 1.86222 19.4721C1.98237 19.6212 2.1312 19.7448 2.2999 19.8355C2.46861 19.9261 2.65378 19.9821 2.84447 20H16.2778Z" fill="url(#paint0_linear)"/>
<path opacity="0.8" d="M9.6444 11.2555C8.77277 11.2608 7.91883 11.0096 7.18884 10.5333L9.62218 16.8889L12.0444 10.5778C11.3233 11.0231 10.492 11.2578 9.6444 11.2555Z" fill="white"/>
<path d="M9.64442 11.2555C12.1481 11.2555 14.1778 9.2259 14.1778 6.72221C14.1778 4.21852 12.1481 2.18887 9.64442 2.18887C7.14073 2.18887 5.11108 4.21852 5.11108 6.72221C5.11108 9.2259 7.14073 11.2555 9.64442 11.2555Z" fill="url(#paint1_linear)"/>
<path d="M16.4445 8.03356C16.606 7.09226 16.572 6.12779 16.3445 5.20022C15.9798 3.74758 15.1508 2.45368 13.9837 1.51513C12.8165 0.576575 11.3749 0.0446672 9.87778 0.000223169C8.72072 -0.0856501 7.56299 0.157834 6.53854 0.702504C5.51409 1.24717 4.66479 2.07077 4.0889 3.078C3.99703 3.22413 3.96651 3.4006 4.00396 3.5691C4.0414 3.7376 4.14379 3.88453 4.2889 3.978C4.42188 4.0621 4.58259 4.09059 4.73638 4.05734C4.89017 4.02409 5.02475 3.93175 5.11112 3.80022C5.57576 2.97937 6.2617 2.30558 7.09074 1.8557C7.91978 1.40582 8.85854 1.19795 9.80001 1.25578C11.0012 1.2885 12.161 1.70224 13.1116 2.43722C14.0623 3.17221 14.7548 4.19039 15.0889 5.34467C15.3049 6.13704 15.3541 6.96564 15.2333 7.778C15.0909 7.83576 14.9631 7.92458 14.8593 8.03798C14.7555 8.15139 14.6783 8.28654 14.6333 8.43356L14.3333 9.43356C14.2534 9.6973 14.281 9.98194 14.41 10.2254C14.5391 10.4689 14.7591 10.6516 15.0222 10.7336C15.2929 10.7976 15.5777 10.7578 15.8205 10.622C16.0632 10.4863 16.2462 10.2644 16.3333 10.0002L16.6333 9.00023C16.6858 8.83623 16.696 8.66163 16.663 8.49264C16.63 8.32365 16.5548 8.16574 16.4445 8.03356Z" fill="#767676"/>
</g>
<defs>
<linearGradient id="paint0_linear" x1="9.63335" y1="8.98885" x2="9.63335" y2="22.4222" gradientUnits="userSpaceOnUse">
<stop offset="0.22" stop-color="#32D4F5"/>
<stop offset="1" stop-color="#198AB3"/>
</linearGradient>
<linearGradient id="paint1_linear" x1="9.25553" y1="1.78887" x2="10.2333" y2="13.9889" gradientUnits="userSpaceOnUse">
<stop offset="0.22" stop-color="#32D4F5"/>
<stop offset="1" stop-color="#198AB3"/>
</linearGradient>
<clipPath id="clip0">
<rect width="20" height="20" fill="white"/>
</clipPath>
</defs>
</svg>
