<svg width="20" height="20" viewBox="0 0 20 20" fill="none" xmlns="http://www.w3.org/2000/svg">
<path d="M15.9667 4.63331L16.0556 4.71108C16.0843 4.73763 16.122 4.75238 16.1611 4.75238C16.2003 4.75238 16.238 4.73763 16.2667 4.71108L17.0889 4.0222L18.5778 1.56664C18.5985 1.53952 18.6098 1.50633 18.6098 1.4722C18.6098 1.43806 18.5985 1.40487 18.5778 1.37775L18.3223 1.11108C18.2951 1.09036 18.2619 1.07913 18.2278 1.07913C18.1937 1.07913 18.1605 1.09036 18.1334 1.11108L15.7889 2.69997L15.1223 3.55553C15.0987 3.58355 15.0859 3.61895 15.0859 3.65553C15.0859 3.69211 15.0987 3.72751 15.1223 3.75553L15.2111 3.84442L10.3667 8.88886L9.3667 7.77775L8.25559 8.88886C8.30704 9.18645 8.2908 9.4918 8.20809 9.78225C8.12538 10.0727 7.97831 10.3408 7.77781 10.5666C7.58796 10.7755 7.35026 10.9351 7.08512 11.0319C6.81999 11.1287 6.53534 11.1596 6.25559 11.1222L1.48893 15.9555C1.45968 15.9835 1.43641 16.0172 1.42052 16.0544C1.40462 16.0916 1.39642 16.1317 1.39642 16.1722C1.39642 16.2127 1.40462 16.2528 1.42052 16.29C1.43641 16.3272 1.45968 16.3609 1.48893 16.3889L3.80004 18.7889C3.82816 18.8199 3.86246 18.8447 3.90073 18.8616C3.939 18.8786 3.9804 18.8873 4.02226 18.8873C4.06412 18.8873 4.10552 18.8786 4.14379 18.8616C4.18206 18.8447 4.21636 18.8199 4.24448 18.7889L8.88893 13.9444C8.85234 13.653 8.88343 13.357 8.97978 13.0795C9.07613 12.802 9.23515 12.5505 9.44448 12.3444C9.63604 12.1378 9.87395 11.9797 10.1386 11.8831C10.4033 11.7865 10.6871 11.7542 10.9667 11.7889L12.0778 10.6778L11.1111 9.59997L15.9667 4.63331Z" fill="url(#paint0_linear)"/>
<path d="M17.8889 15.6332L16.7778 14.4443L9.35556 6.83322L8.98889 6.43322C9.19951 5.73378 9.22101 4.99103 9.05121 4.28058C8.8814 3.57013 8.52636 2.91737 8.02223 2.38877C7.58629 1.93433 7.04454 1.595 6.4454 1.4011C5.84627 1.20721 5.20842 1.1648 4.58889 1.27766C4.56172 1.28448 4.5367 1.29803 4.51615 1.31708C4.4956 1.33612 4.48018 1.36004 4.47132 1.38662C4.46246 1.4132 4.46044 1.44158 4.46546 1.46915C4.47047 1.49671 4.48235 1.52257 4.5 1.54433L6.43334 3.511C6.44599 3.53497 6.4526 3.56167 6.4526 3.58877C6.4526 3.61588 6.44599 3.64258 6.43334 3.66655L5.96667 5.67766C5.95968 5.70438 5.9457 5.72875 5.92618 5.74828C5.90665 5.76781 5.88228 5.78178 5.85556 5.78877L3.87778 6.33322C3.85413 6.34687 3.82731 6.35406 3.8 6.35406C3.7727 6.35406 3.74587 6.34687 3.72223 6.33322L1.84445 4.34433C1.82336 4.32271 1.79644 4.3077 1.76697 4.30113C1.7375 4.29455 1.70675 4.2967 1.67848 4.3073C1.65021 4.3179 1.62563 4.3365 1.60775 4.36084C1.58987 4.38517 1.57946 4.41418 1.57778 4.44433C1.46724 5.07921 1.51044 5.73133 1.70376 6.34608C1.89708 6.96083 2.23489 7.52031 2.68889 7.97766C3.16243 8.47006 3.76165 8.82354 4.42167 8.9998C5.08169 9.17607 5.77736 9.16841 6.43334 8.97766L6.5 9.05544L6.92223 9.48877L15.3778 18.3777C15.6945 18.7141 16.1311 18.9121 16.5929 18.9288C17.0546 18.9454 17.5043 18.7793 17.8444 18.4666L17.9333 18.3777C18.1039 18.2007 18.2378 17.9919 18.3274 17.7631C18.417 17.5343 18.4606 17.29 18.4556 17.0443C18.454 16.5188 18.2512 16.0139 17.8889 15.6332Z" fill="url(#paint1_linear)"/>
<defs>
<linearGradient id="paint0_linear" x1="10" y1="1.11108" x2="10" y2="18.8889" gradientUnits="userSpaceOnUse">
<stop stop-color="#198AB3"/>
<stop offset="0.29" stop-color="#1786B1"/>
<stop offset="0.59" stop-color="#1079AD"/>
<stop offset="0.89" stop-color="#0565A5"/>
<stop offset="1" stop-color="#005BA1"/>
</linearGradient>
<linearGradient id="paint1_linear" x1="9.95556" y1="1.22211" x2="9.95556" y2="18.8666" gradientUnits="userSpaceOnUse">
<stop stop-color="#32D4F5"/>
<stop offset="0.23" stop-color="#31D0F1"/>
<stop offset="0.46" stop-color="#2CC3E6"/>
<stop offset="0.7" stop-color="#25AFD4"/>
<stop offset="0.94" stop-color="#1C92BA"/>
<stop offset="1" stop-color="#198AB3"/>
</linearGradient>
</defs>
</svg>
